<?xml version="1.0" encoding="UTF-8"?>
<svg width="400" height="300" viewBox="0 0 400 300" fill="none" xmlns="http://www.w3.org/2000/svg">
  <!-- Background elements -->
  <circle cx="200" cy="150" r="120" fill="#f1f5f9" opacity="0.6"/>
  
  <!-- Stylized "404" text -->
  <path d="M120 100V180H140V160H160V140H140V120H160V100H120Z" fill="#94a3b8"/>
  <circle cx="200" cy="140" r="40" stroke="#94a3b8" stroke-width="20" fill="none"/>
  <path d="M260 100V180H280V160H300V140H280V120H300V100H260Z" fill="#94a3b8"/>
  
  <!-- Decorative elements -->
  <circle cx="120" cy="70" r="10" fill="#cbd5e1"/>
  <circle cx="280" cy="70" r="10" fill="#cbd5e1"/>
  <circle cx="150" cy="220" r="8" fill="#cbd5e1"/>
  <circle cx="250" cy="220" r="8" fill="#cbd5e1"/>
  <circle cx="200" cy="240" r="12" fill="#cbd5e1"/>
  
  <!-- Page icon -->
  <rect x="170" y="180" width="60" height="80" rx="5" fill="#e2e8f0"/>
  <line x1="180" y1="200" x2="220" y2="200" stroke="#94a3b8" stroke-width="3"/>
  <line x1="180" y1="215" x2="220" y2="215" stroke="#94a3b8" stroke-width="3"/>
  <line x1="180" y1="230" x2="210" y2="230" stroke="#94a3b8" stroke-width="3"/>
  
  <!-- Broken link symbol -->
  <path d="M310 150 L330 130 M310 130 L330 150" stroke="#94a3b8" stroke-width="4"/>
  <path d="M70 150 L90 130 M70 130 L90 150" stroke="#94a3b8" stroke-width="4"/>
</svg>
