<?xml version="1.0" encoding="UTF-8"?>
<svg width="400" height="300" viewBox="0 0 400 300" fill="none" xmlns="http://www.w3.org/2000/svg">
  <!-- Background elements -->
  <circle cx="200" cy="150" r="120" fill="#fee2e2" opacity="0.6"/>
  
  <!-- Warning symbol -->
  <path d="M200 80L260 180H140L200 80Z" fill="#fecaca" stroke="#ef4444" stroke-width="4"/>
  <line x1="200" y1="120" x2="200" y2="150" stroke="#ef4444" stroke-width="6" stroke-linecap="round"/>
  <circle cx="200" cy="165" r="5" fill="#ef4444"/>
  
  <!-- Decorative elements -->
  <circle cx="120" cy="70" r="10" fill="#fca5a5"/>
  <circle cx="280" cy="70" r="10" fill="#fca5a5"/>
  <circle cx="150" cy="220" r="8" fill="#fca5a5"/>
  <circle cx="250" cy="220" r="8" fill="#fca5a5"/>
  <circle cx="200" cy="240" r="12" fill="#fca5a5"/>
  
  <!-- Computer/server icon -->
  <rect x="165" y="190" width="70" height="50" rx="5" fill="#f1f5f9"/>
  <rect x="180" y="200" width="40" height="25" rx="2" fill="#e2e8f0"/>
  <line x1="185" y1="210" x2="215" y2="210" stroke="#94a3b8" stroke-width="2"/>
  <line x1="185" y1="215" x2="205" y2="215" stroke="#94a3b8" stroke-width="2"/>
  
  <!-- Connection lines -->
  <path d="M100 150 C 120 120, 140 120, 160 150" stroke="#ef4444" stroke-width="2" stroke-dasharray="4 2"/>
  <path d="M240 150 C 260 120, 280 120, 300 150" stroke="#ef4444" stroke-width="2" stroke-dasharray="4 2"/>
</svg>
