<svg width="1551" height="129" viewBox="0 0 1551 129" fill="none" xmlns="http://www.w3.org/2000/svg">
<mask id="path-1-outside-1_6451_6469" maskUnits="userSpaceOnUse" x="0" y="0" width="1551" height="129" fill="black">
<rect fill="white" width="1551" height="129"/>
<path d="M1.5 126V9.63636H33.0909V55.0909H74.9091V9.63636H106.5V126H74.9091V80.5455H33.0909V126H1.5ZM170.173 127.591C160.855 127.591 152.824 125.811 146.082 122.25C139.377 118.652 134.207 113.5 130.57 106.795C126.972 100.053 125.173 91.9848 125.173 82.5909C125.173 73.5758 126.991 65.697 130.627 58.9545C134.264 52.2121 139.396 46.9659 146.025 43.2159C152.654 39.4659 160.476 37.5909 169.491 37.5909C176.082 37.5909 182.048 38.6136 187.389 40.6591C192.73 42.7045 197.294 45.678 201.082 49.5795C204.87 53.4432 207.786 58.1402 209.832 63.6705C211.877 69.2008 212.9 75.4318 212.9 82.3636V89.6364H134.945V72.3636H184.036C183.998 69.8636 183.355 67.6667 182.105 65.7727C180.892 63.8409 179.245 62.3447 177.161 61.2841C175.116 60.1856 172.786 59.6364 170.173 59.6364C167.635 59.6364 165.305 60.1856 163.184 61.2841C161.063 62.3447 159.358 63.822 158.07 65.7159C156.82 67.6098 156.158 69.8258 156.082 72.3636V91C156.082 93.803 156.669 96.303 157.843 98.5C159.017 100.697 160.703 102.42 162.9 103.67C165.097 104.92 167.748 105.545 170.855 105.545C173.014 105.545 174.983 105.242 176.764 104.636C178.582 104.03 180.135 103.159 181.423 102.023C182.711 100.848 183.658 99.447 184.264 97.8182H212.9C211.915 103.879 209.586 109.144 205.911 113.614C202.237 118.045 197.37 121.492 191.309 123.955C185.286 126.379 178.241 127.591 170.173 127.591ZM256.416 127.364C250.848 127.364 245.924 126.455 241.644 124.636C237.401 122.78 234.068 119.977 231.644 116.227C229.22 112.477 228.007 107.705 228.007 101.909C228.007 97.1364 228.822 93.0644 230.451 89.6932C232.079 86.2841 234.352 83.5 237.269 81.3409C240.185 79.1818 243.576 77.5341 247.439 76.3977C251.341 75.2614 255.545 74.5227 260.053 74.1818C264.939 73.803 268.86 73.3485 271.814 72.8182C274.807 72.25 276.966 71.4735 278.291 70.4886C279.617 69.4659 280.28 68.1212 280.28 66.4545V66.2273C280.28 63.9545 279.409 62.2121 277.666 61C275.924 59.7879 273.689 59.1818 270.962 59.1818C267.97 59.1818 265.526 59.8447 263.632 61.1705C261.776 62.4583 260.659 64.447 260.28 67.1364H231.416C231.795 61.8333 233.481 56.947 236.473 52.4773C239.504 47.9697 243.916 44.3712 249.712 41.6818C255.507 38.9545 262.742 37.5909 271.416 37.5909C277.666 37.5909 283.273 38.3295 288.235 39.8068C293.197 41.2462 297.42 43.2727 300.905 45.8864C304.39 48.4621 307.041 51.4924 308.86 54.9773C310.716 58.4242 311.644 62.1742 311.644 66.2273V126H282.326V113.727H281.644C279.901 116.985 277.78 119.617 275.28 121.625C272.818 123.633 269.996 125.091 266.814 126C263.67 126.909 260.204 127.364 256.416 127.364ZM266.644 107.591C269.03 107.591 271.265 107.098 273.348 106.114C275.47 105.129 277.193 103.708 278.519 101.852C279.845 99.9962 280.507 97.7424 280.507 95.0909V87.8182C279.674 88.1591 278.784 88.4811 277.837 88.7841C276.928 89.0871 275.943 89.3712 274.882 89.6364C273.86 89.9015 272.761 90.1477 271.587 90.375C270.451 90.6023 269.257 90.8106 268.007 91C265.583 91.3788 263.595 92.0038 262.041 92.875C260.526 93.7083 259.39 94.75 258.632 96C257.913 97.2121 257.553 98.5758 257.553 100.091C257.553 102.515 258.405 104.371 260.11 105.659C261.814 106.947 263.992 107.591 266.644 107.591ZM333.03 126V38.7273H363.484V55.3182H364.393C365.984 49.1818 368.503 44.6932 371.95 41.8523C375.435 39.0114 379.507 37.5909 384.166 37.5909C385.53 37.5909 386.874 37.7045 388.2 37.9318C389.564 38.1212 390.87 38.4053 392.12 38.7841V65.5455C390.567 65.0152 388.655 64.6174 386.382 64.3523C384.109 64.0871 382.158 63.9545 380.53 63.9545C377.461 63.9545 374.696 64.6553 372.234 66.0568C369.81 67.4205 367.897 69.3523 366.495 71.8523C365.094 74.3144 364.393 77.2121 364.393 80.5455V126H333.03ZM443.443 35.0909V9.63636H544.58V35.0909H509.58V126H478.443V35.0909H443.443ZM594.687 76.9091V126H563.323V9.63636H593.551V55.3182H594.46C596.429 49.75 599.706 45.4129 604.289 42.3068C608.873 39.1629 614.384 37.5909 620.823 37.5909C626.998 37.5909 632.357 38.9924 636.903 41.7955C641.486 44.5985 645.028 48.4621 647.528 53.3864C650.066 58.3106 651.316 63.9545 651.278 70.3182V126H619.914V76.9091C619.952 72.5909 618.873 69.2008 616.676 66.7386C614.517 64.2765 611.429 63.0455 607.414 63.0455C604.876 63.0455 602.642 63.6136 600.71 64.75C598.816 65.8485 597.338 67.4394 596.278 69.5227C595.255 71.5682 594.725 74.0303 594.687 76.9091ZM714.979 127.591C705.661 127.591 697.63 125.811 690.888 122.25C684.184 118.652 679.013 113.5 675.377 106.795C671.778 100.053 669.979 91.9848 669.979 82.5909C669.979 73.5758 671.797 65.697 675.434 58.9545C679.07 52.2121 684.202 46.9659 690.831 43.2159C697.46 39.4659 705.282 37.5909 714.297 37.5909C720.888 37.5909 726.854 38.6136 732.195 40.6591C737.536 42.7045 742.1 45.678 745.888 49.5795C749.676 53.4432 752.593 58.1402 754.638 63.6705C756.684 69.2008 757.706 75.4318 757.706 82.3636V89.6364H679.752V72.3636H728.843C728.805 69.8636 728.161 67.6667 726.911 65.7727C725.699 63.8409 724.051 62.3447 721.968 61.2841C719.922 60.1856 717.593 59.6364 714.979 59.6364C712.441 59.6364 710.112 60.1856 707.99 61.2841C705.869 62.3447 704.165 63.822 702.877 65.7159C701.627 67.6098 700.964 69.8258 700.888 72.3636V91C700.888 93.803 701.475 96.303 702.649 98.5C703.824 100.697 705.509 102.42 707.706 103.67C709.903 104.92 712.555 105.545 715.661 105.545C717.82 105.545 719.79 105.242 721.57 104.636C723.388 104.03 724.941 103.159 726.229 102.023C727.517 100.848 728.464 99.447 729.07 97.8182H757.706C756.721 103.879 754.392 109.144 750.718 113.614C747.043 118.045 742.176 121.492 736.115 123.955C730.093 126.379 723.047 127.591 714.979 127.591ZM776.905 126V38.7273H808.268V126H776.905ZM792.586 29.6364C788.344 29.6364 784.708 28.2348 781.677 25.4318C778.647 22.6288 777.132 19.2576 777.132 15.3182C777.132 11.3788 778.647 8.00757 781.677 5.20454C784.708 2.40151 788.344 1 792.586 1C796.867 1 800.503 2.40151 803.495 5.20454C806.526 8.00757 808.041 11.3788 808.041 15.3182C808.041 19.2576 806.526 22.6288 803.495 25.4318C800.503 28.2348 796.867 29.6364 792.586 29.6364ZM830.648 126V38.7273H861.103V55.3182H862.012C863.603 49.1818 866.122 44.6932 869.569 41.8523C873.054 39.0114 877.126 37.5909 881.785 37.5909C883.148 37.5909 884.493 37.7045 885.819 37.9318C887.182 38.1212 888.489 38.4053 889.739 38.7841V65.5455C888.186 65.0152 886.273 64.6174 884.001 64.3523C881.728 64.0871 879.777 63.9545 878.148 63.9545C875.08 63.9545 872.315 64.6553 869.853 66.0568C867.429 67.4205 865.516 69.3523 864.114 71.8523C862.713 74.3144 862.012 77.2121 862.012 80.5455V126H830.648ZM1006.97 46C1006.67 42.2121 1005.25 39.2576 1002.71 37.1364C1000.21 35.0151 996.403 33.9545 991.289 33.9545C988.032 33.9545 985.361 34.3523 983.278 35.1477C981.232 35.9053 979.717 36.947 978.732 38.2727C977.748 39.5985 977.236 41.1136 977.198 42.8182C977.123 44.2197 977.369 45.4886 977.937 46.625C978.543 47.7235 979.49 48.7273 980.778 49.6364C982.066 50.5076 983.713 51.303 985.721 52.0227C987.729 52.7424 990.115 53.3864 992.88 53.9545L1002.43 56C1008.86 57.3636 1014.38 59.1629 1018.96 61.3977C1023.54 63.6326 1027.29 66.2652 1030.21 69.2955C1033.13 72.2879 1035.27 75.6591 1036.63 79.4091C1038.03 83.1591 1038.75 87.25 1038.79 91.6818C1038.75 99.3333 1036.84 105.811 1033.05 111.114C1029.26 116.417 1023.85 120.451 1016.8 123.216C1009.79 125.981 1001.36 127.364 991.517 127.364C981.403 127.364 972.577 125.867 965.039 122.875C957.539 119.883 951.706 115.28 947.539 109.068C943.41 102.818 941.327 94.8258 941.289 85.0909H971.289C971.479 88.6515 972.369 91.6439 973.96 94.0682C975.551 96.4924 977.785 98.3295 980.664 99.5795C983.581 100.83 987.047 101.455 991.062 101.455C994.433 101.455 997.255 101.038 999.528 100.205C1001.8 99.3712 1003.52 98.2159 1004.7 96.7386C1005.87 95.2614 1006.48 93.5758 1006.52 91.6818C1006.48 89.9015 1005.89 88.3485 1004.76 87.0227C1003.66 85.6591 1001.84 84.447 999.301 83.3864C996.763 82.2879 993.335 81.2652 989.017 80.3182L977.426 77.8182C967.123 75.5833 958.998 71.8523 953.051 66.625C947.142 61.3598 944.206 54.1818 944.244 45.0909C944.206 37.7045 946.176 31.2462 950.153 25.7159C954.168 20.1477 959.717 15.8106 966.801 12.7045C973.922 9.59848 982.085 8.04545 991.289 8.04545C1000.68 8.04545 1008.81 9.61742 1015.66 12.7614C1022.52 15.9053 1027.8 20.3371 1031.52 26.0568C1035.27 31.7386 1037.16 38.3864 1037.2 46H1006.97ZM1109.71 38.7273V61.4545H1052.21V38.7273H1109.71ZM1063.34 17.8182H1094.71V97.9318C1094.71 99.1439 1094.91 100.167 1095.33 101C1095.75 101.795 1096.39 102.402 1097.26 102.818C1098.13 103.197 1099.25 103.386 1100.62 103.386C1101.56 103.386 1102.66 103.273 1103.91 103.045C1105.2 102.818 1106.15 102.629 1106.75 102.477L1111.3 124.523C1109.9 124.939 1107.89 125.451 1105.27 126.057C1102.7 126.663 1099.63 127.061 1096.07 127.25C1088.87 127.629 1082.83 126.89 1077.94 125.034C1073.06 123.14 1069.38 120.167 1066.92 116.114C1064.46 112.061 1063.27 106.985 1063.34 100.886V17.8182ZM1170.01 127.591C1160.54 127.591 1152.44 125.716 1145.69 121.966C1138.95 118.178 1133.78 112.913 1130.18 106.17C1126.58 99.3902 1124.79 91.5303 1124.79 82.5909C1124.79 73.6515 1126.58 65.8106 1130.18 59.0682C1133.78 52.2879 1138.95 47.0227 1145.69 43.2727C1152.44 39.4848 1160.54 37.5909 1170.01 37.5909C1179.48 37.5909 1187.59 39.4848 1194.33 43.2727C1201.07 47.0227 1206.24 52.2879 1209.84 59.0682C1213.44 65.8106 1215.24 73.6515 1215.24 82.5909C1215.24 91.5303 1213.44 99.3902 1209.84 106.17C1206.24 112.913 1201.07 118.178 1194.33 121.966C1187.59 125.716 1179.48 127.591 1170.01 127.591ZM1170.24 104.409C1172.89 104.409 1175.18 103.519 1177.11 101.739C1179.05 99.9583 1180.54 97.4205 1181.6 94.125C1182.66 90.8295 1183.19 86.9091 1183.19 82.3636C1183.19 77.7803 1182.66 73.8598 1181.6 70.6023C1180.54 67.3068 1179.05 64.7689 1177.11 62.9886C1175.18 61.2083 1172.89 60.3182 1170.24 60.3182C1167.44 60.3182 1165.03 61.2083 1163.02 62.9886C1161.02 64.7689 1159.48 67.3068 1158.42 70.6023C1157.36 73.8598 1156.83 77.7803 1156.83 82.3636C1156.83 86.9091 1157.36 90.8295 1158.42 94.125C1159.48 97.4205 1161.02 99.9583 1163.02 101.739C1165.03 103.519 1167.44 104.409 1170.24 104.409ZM1234.37 126V38.7273H1264.82V55.3182H1265.73C1267.32 49.1818 1269.84 44.6932 1273.29 41.8523C1276.77 39.0114 1280.84 37.5909 1285.5 37.5909C1286.87 37.5909 1288.21 37.7045 1289.54 37.9318C1290.9 38.1212 1292.21 38.4053 1293.46 38.7841V65.5455C1291.9 65.0152 1289.99 64.6174 1287.72 64.3523C1285.45 64.0871 1283.5 63.9545 1281.87 63.9545C1278.8 63.9545 1276.03 64.6553 1273.57 66.0568C1271.15 67.4205 1269.23 69.3523 1267.83 71.8523C1266.43 74.3144 1265.73 77.2121 1265.73 80.5455V126H1234.37ZM1310.14 126V38.7273H1341.51V126H1310.14ZM1325.82 29.6364C1321.58 29.6364 1317.95 28.2348 1314.91 25.4318C1311.88 22.6288 1310.37 19.2576 1310.37 15.3182C1310.37 11.3788 1311.88 8.00757 1314.91 5.20454C1317.95 2.40151 1321.58 1 1325.82 1C1330.1 1 1333.74 2.40151 1336.73 5.20454C1339.76 8.00757 1341.28 11.3788 1341.28 15.3182C1341.28 19.2576 1339.76 22.6288 1336.73 25.4318C1333.74 28.2348 1330.1 29.6364 1325.82 29.6364ZM1405.7 127.591C1396.39 127.591 1388.36 125.811 1381.61 122.25C1374.91 118.652 1369.74 113.5 1366.1 106.795C1362.5 100.053 1360.7 91.9848 1360.7 82.5909C1360.7 73.5758 1362.52 65.697 1366.16 58.9545C1369.79 52.2121 1374.93 46.9659 1381.56 43.2159C1388.19 39.4659 1396.01 37.5909 1405.02 37.5909C1411.61 37.5909 1417.58 38.6136 1422.92 40.6591C1428.26 42.7045 1432.83 45.678 1436.61 49.5795C1440.4 53.4432 1443.32 58.1402 1445.36 63.6705C1447.41 69.2008 1448.43 75.4318 1448.43 82.3636V89.6364H1370.48V72.3636H1419.57C1419.53 69.8636 1418.89 67.6667 1417.64 65.7727C1416.42 63.8409 1414.78 62.3447 1412.69 61.2841C1410.65 60.1856 1408.32 59.6364 1405.7 59.6364C1403.17 59.6364 1400.84 60.1856 1398.72 61.2841C1396.59 62.3447 1394.89 63.822 1393.6 65.7159C1392.35 67.6098 1391.69 69.8258 1391.61 72.3636V91C1391.61 93.803 1392.2 96.303 1393.37 98.5C1394.55 100.697 1396.23 102.42 1398.43 103.67C1400.63 104.92 1403.28 105.545 1406.39 105.545C1408.54 105.545 1410.51 105.242 1412.29 104.636C1414.11 104.03 1415.67 103.159 1416.95 102.023C1418.24 100.848 1419.19 99.447 1419.79 97.8182H1448.43C1447.45 103.879 1445.12 109.144 1441.44 113.614C1437.77 118.045 1432.9 121.492 1426.84 123.955C1420.82 126.379 1413.77 127.591 1405.7 127.591ZM1547.4 67.1364H1518.54C1518.39 65.3561 1517.76 63.822 1516.66 62.5341C1515.57 61.2462 1514.14 60.2614 1512.4 59.5795C1510.7 58.8598 1508.8 58.5 1506.72 58.5C1504.03 58.5 1501.72 58.9924 1499.79 59.9773C1497.86 60.9621 1496.91 62.3636 1496.95 64.1818C1496.91 65.4697 1497.46 66.6629 1498.6 67.7614C1499.77 68.8598 1502.02 69.7121 1505.36 70.3182L1523.08 73.5C1532.02 75.1288 1538.67 77.875 1543.03 81.7386C1547.42 85.5644 1549.64 90.697 1549.68 97.1364C1549.64 103.348 1547.78 108.746 1544.11 113.33C1540.47 117.875 1535.49 121.398 1529.16 123.898C1522.88 126.36 1515.7 127.591 1507.63 127.591C1494.3 127.591 1483.86 124.864 1476.32 119.409C1468.82 113.955 1464.64 106.758 1463.77 97.8182H1494.9C1495.32 100.583 1496.68 102.723 1498.99 104.239C1501.34 105.716 1504.3 106.455 1507.86 106.455C1510.74 106.455 1513.1 105.962 1514.96 104.977C1516.85 103.992 1517.82 102.591 1517.86 100.773C1517.82 99.1061 1516.99 97.7803 1515.36 96.7955C1513.77 95.8106 1511.27 95.0152 1507.86 94.4091L1492.4 91.6818C1483.5 90.1288 1476.83 87.1742 1472.4 82.8182C1467.97 78.4621 1465.77 72.8561 1465.81 66C1465.77 59.9394 1467.36 54.8068 1470.58 50.6023C1473.84 46.3598 1478.48 43.1401 1484.5 40.9432C1490.57 38.7083 1497.74 37.5909 1506.04 37.5909C1518.65 37.5909 1528.6 40.2045 1535.87 45.4318C1543.18 50.6591 1547.02 57.8939 1547.4 67.1364Z"/>
</mask>
<path d="M1.5 126H0.5V127H1.5V126ZM1.5 9.63636V8.63636H0.5V9.63636H1.5ZM33.0909 9.63636H34.0909V8.63636H33.0909V9.63636ZM33.0909 55.0909H32.0909V56.0909H33.0909V55.0909ZM74.9091 55.0909V56.0909H75.9091V55.0909H74.9091ZM74.9091 9.63636V8.63636H73.9091V9.63636H74.9091ZM106.5 9.63636H107.5V8.63636H106.5V9.63636ZM106.5 126V127H107.5V126H106.5ZM74.9091 126H73.9091V127H74.9091V126ZM74.9091 80.5455H75.9091V79.5455H74.9091V80.5455ZM33.0909 80.5455V79.5455H32.0909V80.5455H33.0909ZM33.0909 126V127H34.0909V126H33.0909ZM2.5 126V9.63636H0.5V126H2.5ZM1.5 10.6364H33.0909V8.63636H1.5V10.6364ZM32.0909 9.63636V55.0909H34.0909V9.63636H32.0909ZM33.0909 56.0909H74.9091V54.0909H33.0909V56.0909ZM75.9091 55.0909V9.63636H73.9091V55.0909H75.9091ZM74.9091 10.6364H106.5V8.63636H74.9091V10.6364ZM105.5 9.63636V126H107.5V9.63636H105.5ZM106.5 125H74.9091V127H106.5V125ZM75.9091 126V80.5455H73.9091V126H75.9091ZM74.9091 79.5455H33.0909V81.5455H74.9091V79.5455ZM32.0909 80.5455V126H34.0909V80.5455H32.0909ZM33.0909 125H1.5V127H33.0909V125ZM146.082 122.25L145.609 123.131L145.615 123.134L146.082 122.25ZM130.57 106.795L129.688 107.266L129.691 107.272L130.57 106.795ZM130.627 58.9545L131.507 59.4292L130.627 58.9545ZM146.025 43.2159L146.517 44.0863L146.025 43.2159ZM187.389 40.6591L187.746 39.7252L187.389 40.6591ZM201.082 49.5795L200.364 50.2761L200.368 50.2796L201.082 49.5795ZM209.832 63.6705L208.894 64.0173L209.832 63.6705ZM212.9 89.6364V90.6364H213.9V89.6364H212.9ZM134.945 89.6364H133.945V90.6364H134.945V89.6364ZM134.945 72.3636V71.3636H133.945V72.3636H134.945ZM184.036 72.3636V73.3636H185.052L185.036 72.3485L184.036 72.3636ZM182.105 65.7727L181.257 66.3042L181.264 66.314L181.27 66.3236L182.105 65.7727ZM177.161 61.2841L176.688 62.1651L176.698 62.1703L176.708 62.1753L177.161 61.2841ZM163.184 61.2841L163.631 62.1785L163.638 62.1753L163.644 62.1721L163.184 61.2841ZM158.07 65.7159L157.243 65.1535L157.236 65.1651L158.07 65.7159ZM156.082 72.3636L155.082 72.3338L155.082 72.3487V72.3636H156.082ZM157.843 98.5L156.961 98.9714L157.843 98.5ZM162.9 103.67L162.405 104.54L162.9 103.67ZM176.764 104.636L176.447 103.688L176.441 103.69L176.764 104.636ZM181.423 102.023L182.084 102.773L182.09 102.767L182.096 102.762L181.423 102.023ZM184.264 97.8182V96.8182H183.569L183.326 97.4694L184.264 97.8182ZM212.9 97.8182L213.887 97.9786L214.076 96.8182H212.9V97.8182ZM205.911 113.614L206.681 114.252L206.684 114.249L205.911 113.614ZM191.309 123.955L191.682 124.882L191.685 124.881L191.309 123.955ZM170.173 126.591C160.982 126.591 153.119 124.835 146.549 121.366L145.615 123.134C152.53 126.786 160.728 128.591 170.173 128.591V126.591ZM146.555 121.369C140.023 117.863 134.993 112.852 131.449 106.319L129.691 107.272C133.421 114.148 138.732 119.44 145.609 123.131L146.555 121.369ZM131.453 106.325C127.947 99.7566 126.173 91.8578 126.173 82.5909H124.173C124.173 92.1119 125.997 100.349 129.688 107.266L131.453 106.325ZM126.173 82.5909C126.173 73.7121 127.963 66.002 131.507 59.4292L129.747 58.4799C126.019 65.3919 124.173 73.4394 124.173 82.5909H126.173ZM131.507 59.4292C135.055 52.8516 140.054 47.743 146.517 44.0863L145.533 42.3455C138.739 46.1888 133.472 51.5727 129.747 58.4799L131.507 59.4292ZM146.517 44.0863C152.971 40.4357 160.617 38.5909 169.491 38.5909V36.5909C160.335 36.5909 152.337 38.4962 145.533 42.3455L146.517 44.0863ZM169.491 38.5909C175.978 38.5909 181.82 39.5973 187.031 41.5929L187.746 39.7252C182.275 37.6299 176.186 36.5909 169.491 36.5909V38.5909ZM187.031 41.5929C192.243 43.5892 196.683 46.4843 200.364 50.2761L201.799 48.883C197.905 44.8718 193.216 41.8199 187.746 39.7252L187.031 41.5929ZM200.368 50.2796C204.048 54.0339 206.893 58.6072 208.894 64.0173L210.77 63.3236C208.68 57.6731 205.691 52.8525 201.796 48.8795L200.368 50.2796ZM208.894 64.0173C210.892 69.419 211.9 75.5299 211.9 82.3636H213.9C213.9 75.3338 212.863 68.9825 210.77 63.3236L208.894 64.0173ZM211.9 82.3636V89.6364H213.9V82.3636H211.9ZM212.9 88.6364H134.945V90.6364H212.9V88.6364ZM135.945 89.6364V72.3636H133.945V89.6364H135.945ZM134.945 73.3636H184.036V71.3636H134.945V73.3636ZM185.036 72.3485C184.996 69.6779 184.305 67.291 182.939 65.2219L181.27 66.3236C182.404 68.0424 183.001 70.0493 183.036 72.3788L185.036 72.3485ZM182.952 65.2412C181.641 63.1522 179.855 61.5335 177.615 60.3929L176.708 62.1753C178.634 63.1559 180.144 64.5297 181.257 66.3042L182.952 65.2412ZM177.634 60.4031C175.426 59.2171 172.93 58.6364 170.173 58.6364V60.6364C172.642 60.6364 174.806 61.1541 176.688 62.1651L177.634 60.4031ZM170.173 58.6364C167.485 58.6364 164.996 59.2194 162.724 60.3961L163.644 62.1721C165.614 61.1518 167.785 60.6364 170.173 60.6364V58.6364ZM162.737 60.3897C160.468 61.5239 158.631 63.1132 157.244 65.1536L158.897 66.2782C160.086 64.5307 161.657 63.1655 163.631 62.1785L162.737 60.3897ZM157.236 65.1651C155.872 67.2319 155.163 69.633 155.082 72.3338L157.081 72.3935C157.152 70.0185 157.769 67.9878 158.905 66.2667L157.236 65.1651ZM155.082 72.3636V91H157.082V72.3636H155.082ZM155.082 91C155.082 93.9466 155.7 96.612 156.961 98.9714L158.725 98.0286C157.638 95.994 157.082 93.6595 157.082 91H155.082ZM156.961 98.9714C158.226 101.337 160.047 103.198 162.405 104.54L163.395 102.801C161.359 101.643 159.809 100.057 158.725 98.0286L156.961 98.9714ZM162.405 104.54C164.784 105.893 167.614 106.545 170.855 106.545V104.545C167.883 104.545 165.41 103.948 163.395 102.801L162.405 104.54ZM170.855 106.545C173.107 106.545 175.188 106.229 177.086 105.583L176.441 103.69C174.779 104.256 172.92 104.545 170.855 104.545V106.545ZM177.08 105.585C179.011 104.941 180.685 104.007 182.084 102.773L180.761 101.273C179.585 102.311 178.153 103.119 176.447 103.688L177.08 105.585ZM182.096 102.762C183.502 101.481 184.539 99.9453 185.201 98.1669L183.326 97.4694C182.776 98.9486 181.92 100.216 180.749 101.284L182.096 102.762ZM184.264 98.8182H212.9V96.8182H184.264V98.8182ZM211.913 97.6578C210.955 103.555 208.694 108.654 205.139 112.979L206.684 114.249C210.477 109.634 212.876 104.202 213.887 97.9786L211.913 97.6578ZM205.142 112.975C201.586 117.264 196.861 120.62 190.933 123.028L191.685 124.881C197.878 122.365 202.888 118.827 206.681 114.252L205.142 112.975ZM190.936 123.027C185.057 125.393 178.143 126.591 170.173 126.591V128.591C178.339 128.591 185.516 127.364 191.682 124.882L190.936 123.027ZM241.644 124.636L241.243 125.553L241.253 125.557L241.644 124.636ZM231.644 116.227L230.804 116.77L231.644 116.227ZM230.451 89.6932L231.351 90.1282L231.353 90.1243L230.451 89.6932ZM237.269 81.3409L237.864 82.1447L237.269 81.3409ZM247.439 76.3977L247.16 75.4376L247.157 75.4384L247.439 76.3977ZM260.053 74.1818L260.128 75.179L260.13 75.1788L260.053 74.1818ZM271.814 72.8182L271.991 73.8025L272.001 73.8006L271.814 72.8182ZM278.291 70.4886L278.888 71.2914L278.895 71.286L278.902 71.2804L278.291 70.4886ZM277.666 61L277.095 61.8209L277.666 61ZM263.632 61.1705L264.202 61.9921L264.206 61.9897L263.632 61.1705ZM260.28 67.1364V68.1364H261.149L261.27 67.2758L260.28 67.1364ZM231.416 67.1364L230.419 67.0651L230.342 68.1364H231.416V67.1364ZM236.473 52.4773L235.643 51.9194L235.642 51.9209L236.473 52.4773ZM249.712 41.6818L250.133 42.5889L250.138 42.5866L249.712 41.6818ZM288.235 39.8068L287.949 40.7653L287.956 40.7672L288.235 39.8068ZM300.905 45.8864L300.305 46.6864L300.311 46.6905L300.905 45.8864ZM308.86 54.9773L307.973 55.4399L307.979 55.4514L308.86 54.9773ZM311.644 126V127H312.644V126H311.644ZM282.326 126H281.326V127H282.326V126ZM282.326 113.727H283.326V112.727H282.326V113.727ZM281.644 113.727V112.727H281.045L280.762 113.256L281.644 113.727ZM275.28 121.625L274.654 120.845L274.648 120.85L275.28 121.625ZM266.814 126L266.539 125.038L266.536 125.039L266.814 126ZM273.348 106.114L272.927 105.207L272.921 105.21L273.348 106.114ZM278.519 101.852L277.705 101.271L278.519 101.852ZM280.507 87.8182H281.507V86.3286L280.129 86.8926L280.507 87.8182ZM277.837 88.7841L277.532 87.8316L277.521 87.8354L277.837 88.7841ZM274.882 89.6364L274.64 88.6662L274.631 88.6684L274.882 89.6364ZM271.587 90.375L271.397 89.3932L271.391 89.3944L271.587 90.375ZM268.007 91L267.858 90.0113L267.853 90.012L268.007 91ZM262.041 92.875L262.523 93.7512L262.531 93.7471L262.041 92.875ZM258.632 96L257.777 95.4817L257.773 95.4895L258.632 96ZM260.11 105.659L260.712 104.861L260.11 105.659ZM256.416 126.364C250.957 126.364 246.17 125.472 242.035 123.716L241.253 125.557C245.679 127.437 250.74 128.364 256.416 128.364V126.364ZM242.045 123.72C237.975 121.94 234.797 119.263 232.484 115.684L230.804 116.77C233.339 120.691 236.828 123.621 241.243 125.553L242.045 123.72ZM232.484 115.684C230.191 112.138 229.007 107.569 229.007 101.909H227.007C227.007 107.841 228.248 112.817 230.804 116.77L232.484 115.684ZM229.007 101.909C229.007 97.2469 229.803 93.3318 231.351 90.1282L229.55 89.2581C227.84 92.797 227.007 97.0258 227.007 101.909H229.007ZM231.353 90.1243C232.914 86.8564 235.084 84.2024 237.864 82.1447L236.674 80.5372C233.62 82.7976 231.245 85.7118 229.548 89.2621L231.353 90.1243ZM237.864 82.1447C240.676 80.0626 243.958 78.464 247.721 77.3571L247.157 75.4384C243.193 76.6042 239.695 78.301 236.674 80.5372L237.864 82.1447ZM247.719 77.3578C251.547 76.2429 255.682 75.5152 260.128 75.179L259.977 73.1847C255.408 73.5302 251.135 74.2798 247.16 75.4376L247.719 77.3578ZM260.13 75.1788C265.032 74.7989 268.99 74.3412 271.991 73.8025L271.638 71.8339C268.73 72.3558 264.847 72.8072 259.976 73.1848L260.13 75.1788ZM272.001 73.8006C275.037 73.2242 277.377 72.4135 278.888 71.2914L277.695 69.6859C276.554 70.5334 274.577 71.2758 271.628 71.8357L272.001 73.8006ZM278.902 71.2804C280.472 70.0694 281.28 68.4329 281.28 66.4545H279.28C279.28 67.8095 278.762 68.8624 277.681 69.6969L278.902 71.2804ZM281.28 66.4545V66.2273H279.28V66.4545H281.28ZM281.28 66.2273C281.28 63.6545 280.27 61.5932 278.238 60.1791L277.095 61.8209C278.547 62.831 279.28 64.2546 279.28 66.2273H281.28ZM278.238 60.1791C276.285 58.8211 273.835 58.1818 270.962 58.1818V60.1818C273.543 60.1818 275.563 60.7546 277.095 61.8209L278.238 60.1791ZM270.962 58.1818C267.824 58.1818 265.164 58.8775 263.059 60.3512L264.206 61.9897C265.888 60.8119 268.115 60.1818 270.962 60.1818V58.1818ZM263.062 60.3489C260.932 61.8274 259.699 64.092 259.29 66.9969L261.27 67.2758C261.619 64.802 262.621 63.0893 264.202 61.992L263.062 60.3489ZM260.28 66.1364H231.416V68.1364H260.28V66.1364ZM232.414 67.2076C232.78 62.0801 234.407 57.3606 237.304 53.0336L235.642 51.9209C232.554 56.5333 230.81 61.5865 230.419 67.0651L232.414 67.2076ZM237.303 53.0352C240.215 48.7041 244.474 45.2151 250.133 42.5889L249.291 40.7747C243.359 43.5273 238.792 47.2353 235.643 51.9194L237.303 53.0352ZM250.138 42.5866C255.762 39.9401 262.84 38.5909 271.416 38.5909V36.5909C262.644 36.5909 255.253 37.969 249.286 40.777L250.138 42.5866ZM271.416 38.5909C277.589 38.5909 283.097 39.3206 287.949 40.7652L288.52 38.8484C283.448 37.3385 277.744 36.5909 271.416 36.5909V38.5909ZM287.956 40.7672C292.823 42.1791 296.933 44.1573 300.305 46.6864L301.505 45.0864C297.908 42.3882 293.57 40.3133 288.513 38.8464L287.956 40.7672ZM300.311 46.6905C303.686 49.1854 306.232 52.1029 307.973 55.4398L309.746 54.5147C307.851 50.882 305.094 47.7388 301.5 45.0822L300.311 46.6905ZM307.979 55.4514C309.754 58.7474 310.644 62.3337 310.644 66.2273H312.644C312.644 62.0148 311.677 58.1011 309.74 54.5032L307.979 55.4514ZM310.644 66.2273V126H312.644V66.2273H310.644ZM311.644 125H282.326V127H311.644V125ZM283.326 126V113.727H281.326V126H283.326ZM282.326 112.727H281.644V114.727H282.326V112.727ZM280.762 113.256C279.074 116.412 277.034 118.934 274.654 120.845L275.906 122.405C278.526 120.301 280.729 117.557 282.526 114.199L280.762 113.256ZM274.648 120.85C272.296 122.768 269.596 124.165 266.539 125.038L267.089 126.962C270.396 126.017 273.34 124.497 275.912 122.4L274.648 120.85ZM266.536 125.039C263.496 125.919 260.125 126.364 256.416 126.364V128.364C260.284 128.364 263.845 127.9 267.092 126.961L266.536 125.039ZM266.644 108.591C269.173 108.591 271.554 108.068 273.776 107.018L272.921 105.21C270.976 106.129 268.888 106.591 266.644 106.591V108.591ZM273.769 107.021C276.043 105.965 277.904 104.434 279.332 102.434L277.705 101.271C276.482 102.983 274.896 104.293 272.927 105.207L273.769 107.021ZM279.332 102.434C280.798 100.381 281.507 97.9159 281.507 95.0909H279.507C279.507 97.569 278.891 99.611 277.705 101.271L279.332 102.434ZM281.507 95.0909V87.8182H279.507V95.0909H281.507ZM280.129 86.8926C279.322 87.2227 278.457 87.5358 277.532 87.8317L278.142 89.7365C279.111 89.4263 280.026 89.0955 280.886 88.7437L280.129 86.8926ZM277.521 87.8354C276.639 88.1293 275.679 88.4064 274.64 88.6662L275.125 90.6065C276.207 90.336 277.217 90.0449 278.153 89.7328L277.521 87.8354ZM274.631 88.6684C273.631 88.9277 272.553 89.1694 271.397 89.3932L271.777 91.3568C272.969 91.1261 274.088 90.8754 275.133 90.6044L274.631 88.6684ZM271.391 89.3944C270.271 89.6184 269.093 89.824 267.858 90.0113L268.157 91.9887C269.421 91.7972 270.63 91.5862 271.783 91.3556L271.391 89.3944ZM267.853 90.012C265.352 90.4027 263.24 91.0559 261.552 92.0029L262.531 93.7471C263.949 92.9516 265.814 92.3549 268.162 91.988L267.853 90.012ZM261.56 91.9988C259.919 92.9011 258.641 94.0564 257.777 95.4817L259.488 96.5183C260.139 95.4436 261.134 94.5156 262.523 93.7512L261.56 91.9988ZM257.773 95.4895C256.954 96.8676 256.553 98.41 256.553 100.091H258.553C258.553 98.7415 258.871 97.5566 259.492 96.5105L257.773 95.4895ZM256.553 100.091C256.553 102.78 257.516 104.953 259.507 106.457L260.712 104.861C259.294 103.79 258.553 102.25 258.553 100.091H256.553ZM259.507 106.457C261.423 107.905 263.828 108.591 266.644 108.591V106.591C264.156 106.591 262.205 105.989 260.712 104.861L259.507 106.457ZM333.03 126H332.03V127H333.03V126ZM333.03 38.7273V37.7273H332.03V38.7273H333.03ZM363.484 38.7273H364.484V37.7273H363.484V38.7273ZM363.484 55.3182H362.484V56.3182H363.484V55.3182ZM364.393 55.3182V56.3182H365.167L365.361 55.5691L364.393 55.3182ZM371.95 41.8523L371.318 41.0772L371.314 41.0806L371.95 41.8523ZM388.2 37.9318L388.031 38.9174L388.047 38.9201L388.062 38.9223L388.2 37.9318ZM392.12 38.7841H393.12V38.0422L392.41 37.8271L392.12 38.7841ZM392.12 65.5455L391.797 66.4918L393.12 66.9436V65.5455H392.12ZM386.382 64.3523L386.498 63.359L386.382 64.3523ZM372.234 66.0568L372.724 66.9284L372.729 66.9259L372.234 66.0568ZM366.495 71.8523L367.365 72.347L367.368 72.3413L366.495 71.8523ZM364.393 126V127H365.393V126H364.393ZM334.03 126V38.7273H332.03V126H334.03ZM333.03 39.7273H363.484V37.7273H333.03V39.7273ZM362.484 38.7273V55.3182H364.484V38.7273H362.484ZM363.484 56.3182H364.393V54.3182H363.484V56.3182ZM365.361 55.5691C366.921 49.5542 369.357 45.2849 372.586 42.624L371.314 41.0806C367.649 44.1014 365.048 48.8094 363.425 55.0672L365.361 55.5691ZM372.582 42.6274C375.881 39.9375 379.728 38.5909 384.166 38.5909V36.5909C379.286 36.5909 374.988 38.0852 371.318 41.0772L372.582 42.6274ZM384.166 38.5909C385.474 38.5909 386.762 38.6999 388.031 38.9174L388.369 36.9462C386.987 36.7092 385.585 36.5909 384.166 36.5909V38.5909ZM388.062 38.9223C389.377 39.1049 390.633 39.3782 391.83 39.7411L392.41 37.8271C391.108 37.4324 389.75 37.1375 388.338 36.9413L388.062 38.9223ZM391.12 38.7841V65.5455H393.12V38.7841H391.12ZM392.444 64.5991C390.803 64.0388 388.816 63.6294 386.498 63.359L386.266 65.3455C388.493 65.6054 390.332 65.9915 391.797 66.4918L392.444 64.5991ZM386.498 63.359C384.201 63.091 382.209 62.9545 380.53 62.9545V64.9545C382.108 64.9545 384.018 65.0832 386.266 65.3455L386.498 63.359ZM380.53 62.9545C377.303 62.9545 374.365 63.6934 371.739 65.1878L372.729 66.9259C375.028 65.6172 377.62 64.9545 380.53 64.9545V62.9545ZM371.744 65.1852C369.155 66.6417 367.112 68.7082 365.623 71.3633L367.368 72.3413C368.682 69.9963 370.465 68.1992 372.724 66.9284L371.744 65.1852ZM365.626 71.3576C364.125 73.9951 363.393 77.0695 363.393 80.5455H365.393C365.393 77.3548 366.063 74.6337 367.365 72.347L365.626 71.3576ZM363.393 80.5455V126H365.393V80.5455H363.393ZM364.393 125H333.03V127H364.393V125ZM443.443 35.0909H442.443V36.0909H443.443V35.0909ZM443.443 9.63636V8.63636H442.443V9.63636H443.443ZM544.58 9.63636H545.58V8.63636H544.58V9.63636ZM544.58 35.0909V36.0909H545.58V35.0909H544.58ZM509.58 35.0909V34.0909H508.58V35.0909H509.58ZM509.58 126V127H510.58V126H509.58ZM478.443 126H477.443V127H478.443V126ZM478.443 35.0909H479.443V34.0909H478.443V35.0909ZM444.443 35.0909V9.63636H442.443V35.0909H444.443ZM443.443 10.6364H544.58V8.63636H443.443V10.6364ZM543.58 9.63636V35.0909H545.58V9.63636H543.58ZM544.58 34.0909H509.58V36.0909H544.58V34.0909ZM508.58 35.0909V126H510.58V35.0909H508.58ZM509.58 125H478.443V127H509.58V125ZM479.443 126V35.0909H477.443V126H479.443ZM478.443 34.0909H443.443V36.0909H478.443V34.0909ZM594.687 76.9091L593.687 76.8959V76.9091H594.687ZM594.687 126V127H595.687V126H594.687ZM563.323 126H562.323V127H563.323V126ZM563.323 9.63636V8.63636H562.323V9.63636H563.323ZM593.551 9.63636H594.551V8.63636H593.551V9.63636ZM593.551 55.3182H592.551V56.3182H593.551V55.3182ZM594.46 55.3182V56.3182H595.167L595.402 55.6517L594.46 55.3182ZM604.289 42.3068L604.85 43.1347L604.855 43.1315L604.289 42.3068ZM636.903 41.7955L636.378 42.6466L636.381 42.6486L636.903 41.7955ZM647.528 53.3864L646.636 53.8391L646.639 53.8445L647.528 53.3864ZM651.278 70.3182L650.278 70.3122V70.3182H651.278ZM651.278 126V127H652.278V126H651.278ZM619.914 126H618.914V127H619.914V126ZM619.914 76.9091L618.914 76.9003V76.9091H619.914ZM616.676 66.7386L615.924 67.398L615.929 67.4044L616.676 66.7386ZM600.71 64.75L601.211 65.615L601.217 65.6119L600.71 64.75ZM596.278 69.5227L595.387 69.069L595.383 69.0755L596.278 69.5227ZM593.687 76.9091V126H595.687V76.9091H593.687ZM594.687 125H563.323V127H594.687V125ZM564.323 126V9.63636H562.323V126H564.323ZM563.323 10.6364H593.551V8.63636H563.323V10.6364ZM592.551 9.63636V55.3182H594.551V9.63636H592.551ZM593.551 56.3182H594.46V54.3182H593.551V56.3182ZM595.402 55.6517C597.306 50.2705 600.456 46.1127 604.85 43.1346L603.728 41.479C598.956 44.7131 595.553 49.2295 593.517 54.9847L595.402 55.6517ZM604.855 43.1315C609.246 40.1191 614.553 38.5909 620.823 38.5909V36.5909C614.215 36.5909 608.499 38.2067 603.724 41.4822L604.855 43.1315ZM620.823 38.5909C626.842 38.5909 632.014 39.9553 636.378 42.6466L637.428 40.9443C632.701 38.0296 627.153 36.5909 620.823 36.5909V38.5909ZM636.381 42.6486C640.802 45.3522 644.218 49.0751 646.636 53.8391L648.42 52.9337C645.838 47.8491 642.171 43.8448 637.425 40.9423L636.381 42.6486ZM646.639 53.8445C649.093 58.6052 650.315 64.0858 650.278 70.3122L652.278 70.3241C652.317 63.8233 651.039 58.016 648.417 52.9282L646.639 53.8445ZM650.278 70.3182V126H652.278V70.3182H650.278ZM651.278 125H619.914V127H651.278V125ZM620.914 126V76.9091H618.914V126H620.914ZM620.914 76.9179C620.954 72.4297 619.83 68.7718 617.422 66.0728L615.929 67.4044C617.915 69.6297 618.951 72.7521 618.914 76.9003L620.914 76.9179ZM617.427 66.0793C615.036 63.3526 611.647 62.0455 607.414 62.0455V64.0455C611.212 64.0455 613.997 65.2004 615.924 67.398L617.427 66.0793ZM607.414 62.0455C604.722 62.0455 602.308 62.6498 600.203 63.8881L601.217 65.6119C602.975 64.5774 605.031 64.0455 607.414 64.0455V62.0455ZM600.208 63.885C598.136 65.0868 596.529 66.8261 595.387 69.069L597.169 69.9764C598.148 68.0527 599.496 66.6102 601.211 65.615L600.208 63.885ZM595.383 69.0755C594.278 71.2861 593.726 73.9043 593.687 76.8959L595.687 76.9222C595.723 74.1563 596.232 71.8502 597.172 69.9699L595.383 69.0755ZM690.888 122.25L690.415 123.131L690.421 123.134L690.888 122.25ZM675.377 106.795L674.494 107.266L674.498 107.272L675.377 106.795ZM675.434 58.9545L676.314 59.4292L675.434 58.9545ZM690.831 43.2159L691.324 44.0863L690.831 43.2159ZM732.195 40.6591L732.553 39.7252L732.195 40.6591ZM745.888 49.5795L745.171 50.2761L745.174 50.2796L745.888 49.5795ZM754.638 63.6705L753.7 64.0173L754.638 63.6705ZM757.706 89.6364V90.6364H758.706V89.6364H757.706ZM679.752 89.6364H678.752V90.6364H679.752V89.6364ZM679.752 72.3636V71.3636H678.752V72.3636H679.752ZM728.843 72.3636V73.3636H729.858L729.842 72.3485L728.843 72.3636ZM726.911 65.7727L726.064 66.3042L726.07 66.314L726.076 66.3236L726.911 65.7727ZM721.968 61.2841L721.494 62.1651L721.504 62.1703L721.514 62.1753L721.968 61.2841ZM707.99 61.2841L708.438 62.1785L708.444 62.1753L708.45 62.1721L707.99 61.2841ZM702.877 65.7159L702.05 65.1535L702.042 65.1651L702.877 65.7159ZM700.888 72.3636L699.888 72.3338L699.888 72.3487V72.3636H700.888ZM702.649 98.5L701.768 98.9714L702.649 98.5ZM707.706 103.67L707.212 104.54L707.706 103.67ZM721.57 104.636L721.254 103.688L721.248 103.69L721.57 104.636ZM726.229 102.023L726.891 102.773L726.897 102.767L726.903 102.762L726.229 102.023ZM729.07 97.8182V96.8182H728.375L728.133 97.4694L729.07 97.8182ZM757.706 97.8182L758.693 97.9786L758.882 96.8182H757.706V97.8182ZM750.718 113.614L751.487 114.252L751.49 114.249L750.718 113.614ZM736.115 123.955L736.489 124.882L736.492 124.881L736.115 123.955ZM714.979 126.591C705.788 126.591 697.925 124.835 691.355 121.366L690.421 123.134C697.336 126.786 705.534 128.591 714.979 128.591V126.591ZM691.361 121.369C684.829 117.863 679.799 112.852 676.256 106.319L674.498 107.272C678.227 114.148 683.538 119.44 690.415 123.131L691.361 121.369ZM676.259 106.325C672.754 99.7566 670.979 91.8578 670.979 82.5909H668.979C668.979 92.1119 670.803 100.349 674.495 107.266L676.259 106.325ZM670.979 82.5909C670.979 73.7121 672.769 66.002 676.314 59.4292L674.553 58.4799C670.826 65.3919 668.979 73.4394 668.979 82.5909H670.979ZM676.314 59.4292C679.861 52.8516 684.86 47.743 691.324 44.0863L690.339 42.3455C683.545 46.1888 678.279 51.5727 674.553 58.4799L676.314 59.4292ZM691.324 44.0863C697.777 40.4357 705.423 38.5909 714.297 38.5909V36.5909C705.141 36.5909 697.143 38.4962 690.339 42.3455L691.324 44.0863ZM714.297 38.5909C720.784 38.5909 726.626 39.5973 731.837 41.5929L732.553 39.7252C727.081 37.6299 720.992 36.5909 714.297 36.5909V38.5909ZM731.837 41.5929C737.05 43.5892 741.489 46.4843 745.171 50.2761L746.606 48.883C742.711 44.8718 738.022 41.8199 732.553 39.7252L731.837 41.5929ZM745.174 50.2796C748.855 54.0339 751.699 58.6072 753.7 64.0173L755.576 63.3236C753.486 57.6731 750.497 52.8525 746.602 48.8795L745.174 50.2796ZM753.7 64.0173C755.698 69.419 756.706 75.5299 756.706 82.3636H758.706C758.706 75.3338 757.669 68.9825 755.576 63.3236L753.7 64.0173ZM756.706 82.3636V89.6364H758.706V82.3636H756.706ZM757.706 88.6364H679.752V90.6364H757.706V88.6364ZM680.752 89.6364V72.3636H678.752V89.6364H680.752ZM679.752 73.3636H728.843V71.3636H679.752V73.3636ZM729.842 72.3485C729.802 69.6779 729.111 67.291 727.745 65.2219L726.076 66.3236C727.211 68.0424 727.807 70.0493 727.843 72.3788L729.842 72.3485ZM727.758 65.2412C726.447 63.1522 724.662 61.5335 722.421 60.3929L721.514 62.1753C723.44 63.1559 724.95 64.5297 726.064 66.3042L727.758 65.2412ZM722.441 60.4031C720.232 59.2171 717.737 58.6364 714.979 58.6364V60.6364C717.449 60.6364 719.612 61.1541 721.494 62.1651L722.441 60.4031ZM714.979 58.6364C712.291 58.6364 709.803 59.2194 707.53 60.3961L708.45 62.1721C710.42 61.1518 712.591 60.6364 714.979 60.6364V58.6364ZM707.543 60.3897C705.275 61.5239 703.437 63.1132 702.05 65.1536L703.704 66.2782C704.892 64.5307 706.464 63.1655 708.438 62.1785L707.543 60.3897ZM702.042 65.1651C700.678 67.2319 699.969 69.633 699.888 72.3338L701.888 72.3935C701.958 70.0185 702.575 67.9878 703.711 66.2667L702.042 65.1651ZM699.888 72.3636V91H701.888V72.3636H699.888ZM699.888 91C699.888 93.9466 700.506 96.612 701.768 98.9714L703.531 98.0286C702.444 95.994 701.888 93.6595 701.888 91H699.888ZM701.768 98.9714C703.032 101.337 704.853 103.198 707.212 104.54L708.201 102.801C706.165 101.643 704.615 100.057 703.531 98.0286L701.768 98.9714ZM707.212 104.54C709.59 105.893 712.421 106.545 715.661 106.545V104.545C712.689 104.545 710.216 103.948 708.201 102.801L707.212 104.54ZM715.661 106.545C717.914 106.545 719.994 106.229 721.892 105.583L721.248 103.69C719.585 104.256 717.726 104.545 715.661 104.545V106.545ZM721.886 105.585C723.817 104.941 725.491 104.007 726.891 102.773L725.567 101.273C724.391 102.311 722.959 103.119 721.254 103.688L721.886 105.585ZM726.903 102.762C728.308 101.481 729.345 99.9453 730.007 98.1669L728.133 97.4694C727.582 98.9486 726.726 100.216 725.555 101.284L726.903 102.762ZM729.07 98.8182H757.706V96.8182H729.07V98.8182ZM756.719 97.6578C755.761 103.555 753.5 108.654 749.945 112.979L751.49 114.249C755.283 109.634 757.682 104.202 758.693 97.9786L756.719 97.6578ZM749.948 112.975C746.393 117.264 741.668 120.62 735.739 123.028L736.492 124.881C742.684 122.365 747.694 118.827 751.487 114.252L749.948 112.975ZM735.742 123.027C729.863 125.393 722.949 126.591 714.979 126.591V128.591C723.145 128.591 730.322 127.364 736.489 124.882L735.742 123.027ZM776.905 126H775.905V127H776.905V126ZM776.905 38.7273V37.7273H775.905V38.7273H776.905ZM808.268 38.7273H809.268V37.7273H808.268V38.7273ZM808.268 126V127H809.268V126H808.268ZM781.677 25.4318L780.998 26.1659V26.1659L781.677 25.4318ZM781.677 5.20454L780.998 4.47044V4.47044L781.677 5.20454ZM803.495 5.20454L802.812 5.93438L802.816 5.93864L803.495 5.20454ZM803.495 25.4318L802.816 24.6977L802.812 24.702L803.495 25.4318ZM777.905 126V38.7273H775.905V126H777.905ZM776.905 39.7273H808.268V37.7273H776.905V39.7273ZM807.268 38.7273V126H809.268V38.7273H807.268ZM808.268 125H776.905V127H808.268V125ZM792.586 28.6364C788.588 28.6364 785.196 27.3246 782.356 24.6977L780.998 26.1659C784.219 29.1451 788.1 30.6364 792.586 30.6364V28.6364ZM782.356 24.6977C779.52 22.0737 778.132 18.9641 778.132 15.3182H776.132C776.132 19.551 777.774 23.1838 780.998 26.1659L782.356 24.6977ZM778.132 15.3182C778.132 11.6722 779.52 8.56261 782.356 5.93864L780.998 4.47044C777.774 7.45253 776.132 11.0854 776.132 15.3182H778.132ZM782.356 5.93864C785.196 3.31173 788.588 2 792.586 2V0C788.1 0 784.219 1.49129 780.998 4.47044L782.356 5.93864ZM792.586 2C796.625 2 800.013 3.31316 802.812 5.93437L804.179 4.47471C800.993 1.48987 797.108 0 792.586 0V2ZM802.816 5.93864C805.653 8.56261 807.041 11.6722 807.041 15.3182H809.041C809.041 11.0854 807.398 7.45253 804.174 4.47044L802.816 5.93864ZM807.041 15.3182C807.041 18.9641 805.653 22.0737 802.816 24.6977L804.174 26.1659C807.398 23.1838 809.041 19.551 809.041 15.3182H807.041ZM802.812 24.702C800.013 27.3232 796.625 28.6364 792.586 28.6364V30.6364C797.108 30.6364 800.993 29.1465 804.179 26.1616L802.812 24.702ZM830.648 126H829.648V127H830.648V126ZM830.648 38.7273V37.7273H829.648V38.7273H830.648ZM861.103 38.7273H862.103V37.7273H861.103V38.7273ZM861.103 55.3182H860.103V56.3182H861.103V55.3182ZM862.012 55.3182V56.3182H862.786L862.98 55.5691L862.012 55.3182ZM869.569 41.8523L868.937 41.0772L868.933 41.0806L869.569 41.8523ZM885.819 37.9318L885.65 38.9174L885.665 38.9201L885.681 38.9223L885.819 37.9318ZM889.739 38.7841H890.739V38.0422L890.029 37.8271L889.739 38.7841ZM889.739 65.5455L889.416 66.4918L890.739 66.9436V65.5455H889.739ZM884.001 64.3523L884.116 63.359L884.001 64.3523ZM869.853 66.0568L870.343 66.9284L870.348 66.9259L869.853 66.0568ZM864.114 71.8523L864.983 72.347L864.986 72.3413L864.114 71.8523ZM862.012 126V127H863.012V126H862.012ZM831.648 126V38.7273H829.648V126H831.648ZM830.648 39.7273H861.103V37.7273H830.648V39.7273ZM860.103 38.7273V55.3182H862.103V38.7273H860.103ZM861.103 56.3182H862.012V54.3182H861.103V56.3182ZM862.98 55.5691C864.539 49.5542 866.976 45.2849 870.205 42.624L868.933 41.0806C865.267 44.1014 862.666 48.8094 861.044 55.0672L862.98 55.5691ZM870.201 42.6274C873.5 39.9375 877.347 38.5909 881.785 38.5909V36.5909C876.904 36.5909 872.607 38.0852 868.937 41.0772L870.201 42.6274ZM881.785 38.5909C883.092 38.5909 884.381 38.6999 885.65 38.9174L885.988 36.9462C884.605 36.7092 883.204 36.5909 881.785 36.5909V38.5909ZM885.681 38.9223C886.996 39.1049 888.252 39.3782 889.449 39.7411L890.029 37.8271C888.727 37.4324 887.369 37.1375 885.956 36.9413L885.681 38.9223ZM888.739 38.7841V65.5455H890.739V38.7841H888.739ZM890.062 64.5991C888.422 64.0388 886.434 63.6294 884.116 63.359L883.885 65.3455C886.112 65.6054 887.951 65.9915 889.416 66.4918L890.062 64.5991ZM884.116 63.359C881.819 63.091 879.828 62.9545 878.148 62.9545V64.9545C879.726 64.9545 881.636 65.0832 883.885 65.3455L884.116 63.359ZM878.148 62.9545C874.921 62.9545 871.983 63.6934 869.358 65.1878L870.348 66.9259C872.646 65.6172 875.239 64.9545 878.148 64.9545V62.9545ZM869.363 65.1852C866.773 66.6417 864.73 68.7082 863.242 71.3633L864.986 72.3413C866.301 69.9963 868.084 68.1992 870.343 66.9284L869.363 65.1852ZM863.245 71.3576C861.744 73.9951 861.012 77.0695 861.012 80.5455H863.012C863.012 77.3548 863.682 74.6337 864.983 72.347L863.245 71.3576ZM861.012 80.5455V126H863.012V80.5455H861.012ZM862.012 125H830.648V127H862.012V125ZM1006.97 46L1005.97 46.0797L1006.05 47H1006.97V46ZM1002.71 37.1364L1002.06 37.8989L1002.07 37.9036L1002.71 37.1364ZM983.278 35.1477L983.625 36.0855L983.635 36.0819L983.278 35.1477ZM978.732 38.2727L977.93 37.6764V37.6764L978.732 38.2727ZM977.198 42.8182L978.197 42.8722L978.198 42.8563L978.198 42.8404L977.198 42.8182ZM977.937 46.625L977.043 47.0722L977.052 47.0903L977.061 47.1081L977.937 46.625ZM980.778 49.6364L980.201 50.4533L980.209 50.4591L980.218 50.4646L980.778 49.6364ZM992.88 53.9545L993.09 52.9767L993.081 52.975L992.88 53.9545ZM1002.43 56L1002.22 56.9778L1002.22 56.9783L1002.43 56ZM1018.96 61.3977L1018.52 62.2966L1018.96 61.3977ZM1030.21 69.2955L1029.49 69.9889L1029.49 69.9934L1030.21 69.2955ZM1036.63 79.4091L1035.69 79.7508L1035.69 79.7592L1036.63 79.4091ZM1038.79 91.6818L1039.79 91.6868L1039.79 91.6733L1038.79 91.6818ZM1033.05 111.114L1033.86 111.695L1033.05 111.114ZM1016.8 123.216L1016.44 122.285L1016.43 122.286L1016.8 123.216ZM965.039 122.875L964.669 123.804L964.67 123.804L965.039 122.875ZM947.539 109.068L946.705 109.619L946.709 109.625L947.539 109.068ZM941.289 85.0909V84.0909H940.285L940.289 85.0948L941.289 85.0909ZM971.289 85.0909L972.288 85.0378L972.237 84.0909H971.289V85.0909ZM973.96 94.0682L973.124 94.6168L973.96 94.0682ZM980.664 99.5795L980.266 100.497L980.27 100.499L980.664 99.5795ZM999.528 100.205L999.872 101.143L999.528 100.205ZM1004.7 96.7386L1005.48 97.3609L1004.7 96.7386ZM1006.52 91.6818L1007.52 91.7018L1007.52 91.6812L1007.52 91.6605L1006.52 91.6818ZM1004.76 87.0227L1003.98 87.6501L1003.99 87.6619L1004 87.6735L1004.76 87.0227ZM999.301 83.3864L998.903 84.3042L998.915 84.309L999.301 83.3864ZM989.016 80.3182L989.231 79.3414L989.227 79.3407L989.016 80.3182ZM977.426 77.8182L977.214 78.7955L977.215 78.7957L977.426 77.8182ZM953.051 66.625L952.385 67.3716L952.39 67.3761L953.051 66.625ZM944.244 45.0909L945.244 45.0951L945.244 45.0858L944.244 45.0909ZM950.153 25.7159L949.342 25.131L949.341 25.132L950.153 25.7159ZM966.801 12.7045L966.401 11.7879L966.399 11.7887L966.801 12.7045ZM1015.66 12.7614L1015.25 13.6703L1015.66 12.7614ZM1031.52 26.0568L1030.68 26.6012L1030.68 26.6077L1031.52 26.0568ZM1037.2 46V47H1038.2L1038.2 45.995L1037.2 46ZM1007.97 45.9203C1007.65 41.9081 1006.13 38.6885 1003.35 36.3691L1002.07 37.9036C1004.37 39.8267 1005.69 42.5161 1005.97 46.0797L1007.97 45.9203ZM1003.36 36.3739C1000.6 34.0338 996.514 32.9545 991.289 32.9545V34.9545C996.292 34.9545 999.821 35.9965 1002.06 37.8989L1003.36 36.3739ZM991.289 32.9545C987.961 32.9545 985.158 33.3594 982.921 34.2135L983.635 36.0819C985.564 35.3451 988.102 34.9545 991.289 34.9545V32.9545ZM982.931 34.21C980.761 35.0137 979.062 36.1525 977.93 37.6764L979.535 38.869C980.373 37.7414 981.704 36.7969 983.625 36.0855L982.931 34.21ZM977.93 37.6764C976.817 39.1741 976.241 40.8914 976.199 42.796L978.198 42.8404C978.232 41.3359 978.678 40.0228 979.535 38.869L977.93 37.6764ZM976.2 42.7642C976.116 44.3204 976.389 45.7648 977.043 47.0722L978.831 46.1778C978.349 45.2125 978.129 44.119 978.197 42.8722L976.2 42.7642ZM977.061 47.1081C977.757 48.3686 978.821 49.4788 980.201 50.4533L981.355 48.8194C980.159 47.9758 979.329 47.0784 978.813 46.1419L977.061 47.1081ZM980.218 50.4646C981.595 51.3964 983.324 52.2258 985.384 52.9641L986.059 51.0814C984.103 50.3803 982.537 49.6187 981.338 48.8081L980.218 50.4646ZM985.384 52.9641C987.447 53.7038 989.881 54.3592 992.679 54.9341L993.081 52.975C990.349 52.4135 988.01 51.781 986.059 51.0814L985.384 52.9641ZM992.671 54.9323L1002.22 56.9778L1002.64 55.0222L993.09 52.9767L992.671 54.9323ZM1002.22 56.9783C1008.6 58.3296 1014.03 60.1062 1018.52 62.2966L1019.4 60.4989C1014.72 58.2196 1009.13 56.3976 1002.63 55.0217L1002.22 56.9783ZM1018.52 62.2966C1023.02 64.4906 1026.67 67.0589 1029.49 69.9889L1030.93 68.602C1027.92 65.4714 1024.06 62.7745 1019.4 60.4989L1018.52 62.2966ZM1029.49 69.9934C1032.32 72.8892 1034.38 76.1404 1035.69 79.7508L1037.57 79.0673C1036.16 75.1778 1033.94 71.6865 1030.93 68.5975L1029.49 69.9934ZM1035.69 79.7592C1037.05 83.3888 1037.75 87.3628 1037.79 91.6904L1039.79 91.6733C1039.75 87.1372 1039.01 82.9294 1037.57 79.059L1035.69 79.7592ZM1037.79 91.6769C1037.75 99.1587 1035.88 105.425 1032.24 110.532L1033.86 111.695C1037.79 106.196 1039.75 99.508 1039.79 91.6868L1037.79 91.6769ZM1032.24 110.532C1028.58 115.654 1023.33 119.579 1016.44 122.285L1017.17 124.147C1024.36 121.323 1029.95 117.179 1033.86 111.695L1032.24 110.532ZM1016.43 122.286C1009.57 124.993 1001.28 126.364 991.516 126.364V128.364C1001.45 128.364 1010.01 126.969 1017.17 124.146L1016.43 122.286ZM991.516 126.364C981.499 126.364 972.804 124.881 965.408 121.946L964.67 123.804C972.351 126.853 981.307 128.364 991.516 128.364V126.364ZM965.41 121.946C958.081 119.022 952.415 114.542 948.37 108.511L946.709 109.625C950.997 116.018 956.997 120.743 964.669 123.804L965.41 121.946ZM948.374 108.517C944.38 102.472 942.327 94.6848 942.289 85.087L940.289 85.0948C940.328 94.9667 942.441 103.165 946.705 109.619L948.374 108.517ZM941.289 86.0909H971.289V84.0909H941.289V86.0909ZM970.291 85.144C970.487 88.841 971.416 92.0142 973.124 94.6168L974.796 93.5195C973.322 91.2736 972.47 88.4621 972.288 85.0378L970.291 85.144ZM973.124 94.6168C974.83 97.2174 977.224 99.1759 980.266 100.497L981.062 98.6623C978.347 97.4832 976.271 95.7674 974.796 93.5195L973.124 94.6168ZM980.27 100.499C983.34 101.814 986.946 102.455 991.062 102.455V100.455C987.148 100.455 983.822 99.8449 981.058 98.6604L980.27 100.499ZM991.062 102.455C994.508 102.455 997.455 102.03 999.872 101.143L999.184 99.2657C997.055 100.046 994.358 100.455 991.062 100.455V102.455ZM999.872 101.143C1002.27 100.264 1004.16 99.0173 1005.48 97.3609L1003.92 96.1164C1002.88 97.4145 1001.33 98.478 999.184 99.2657L999.872 101.143ZM1005.48 97.3609C1006.79 95.7113 1007.47 93.8139 1007.52 91.7018L1005.52 91.6618C1005.48 93.3376 1004.95 94.8114 1003.92 96.1164L1005.48 97.3609ZM1007.52 91.6605C1007.47 89.6539 1006.8 87.8771 1005.51 86.3719L1004 87.6735C1004.98 88.8198 1005.48 90.1491 1005.52 91.7031L1007.52 91.6605ZM1005.53 86.3954C1004.29 84.8486 1002.3 83.5554 999.686 82.4637L998.915 84.309C1001.38 85.3386 1003.03 86.4696 1003.98 87.6501L1005.53 86.3954ZM999.698 82.4686C997.077 81.3342 993.579 80.295 989.231 79.3414L988.802 81.295C993.09 82.2353 996.449 83.2416 998.903 84.3041L999.698 82.4686ZM989.227 79.3407L977.636 76.8407L977.215 78.7957L988.806 81.2957L989.227 79.3407ZM977.638 76.8409C967.448 74.6306 959.495 70.9578 953.711 65.8739L952.39 67.3761C958.501 72.7468 966.797 76.5361 977.214 78.7955L977.638 76.8409ZM953.716 65.8784C948.054 60.8332 945.207 53.9465 945.244 45.0951L943.244 45.0867C943.205 54.4171 946.229 61.8865 952.385 67.3716L953.716 65.8784ZM945.244 45.0858C945.207 37.8919 947.121 31.6439 950.965 26.2998L949.341 25.132C945.23 30.8485 943.205 37.5172 943.244 45.096L945.244 45.0858ZM950.964 26.3008C954.862 20.8952 960.261 16.664 967.202 13.6204L966.399 11.7887C959.173 14.9572 953.474 19.4002 949.342 25.131L950.964 26.3008ZM967.2 13.6211C974.174 10.5793 982.197 9.04545 991.289 9.04545V7.04545C981.972 7.04545 973.669 8.61767 966.401 11.7879L967.2 13.6211ZM991.289 9.04545C1000.57 9.04545 1008.55 10.5992 1015.25 13.6703L1016.08 11.8524C1009.07 8.63563 1000.79 7.04545 991.289 7.04545V9.04545ZM1015.25 13.6703C1021.95 16.7439 1027.08 21.0572 1030.68 26.6012L1032.36 25.5124C1028.53 19.617 1023.09 15.0667 1016.08 11.8524L1015.25 13.6703ZM1030.68 26.6077C1034.31 32.1087 1036.16 38.5617 1036.2 46.005L1038.2 45.995C1038.16 38.211 1036.22 31.3686 1032.35 25.506L1030.68 26.6077ZM1037.2 45H1006.97V47H1037.2V45ZM1109.71 38.7273H1110.71V37.7273H1109.71V38.7273ZM1109.71 61.4545V62.4545H1110.71V61.4545H1109.71ZM1052.21 61.4545H1051.21V62.4545H1052.21V61.4545ZM1052.21 38.7273V37.7273H1051.21V38.7273H1052.21ZM1063.34 17.8182V16.8182H1062.34V17.8182H1063.34ZM1094.71 17.8182H1095.71V16.8182H1094.71V17.8182ZM1095.33 101L1094.44 101.447L1094.44 101.456L1094.45 101.464L1095.33 101ZM1097.26 102.818L1096.83 103.72L1096.85 103.728L1096.86 103.735L1097.26 102.818ZM1103.91 103.045L1103.74 102.061L1103.73 102.062L1103.91 103.045ZM1106.75 102.477L1107.73 102.275L1107.52 101.254L1106.51 101.507L1106.75 102.477ZM1111.3 124.523L1111.58 125.481L1112.46 125.22L1112.28 124.321L1111.3 124.523ZM1105.27 126.057L1105.05 125.083L1105.05 125.083L1105.27 126.057ZM1096.07 127.25L1096.12 128.249L1096.12 128.249L1096.07 127.25ZM1077.94 125.034L1077.58 125.967L1077.59 125.969L1077.94 125.034ZM1066.92 116.114L1066.07 116.633L1066.92 116.114ZM1063.34 100.886L1064.34 100.899V100.886H1063.34ZM1108.71 38.7273V61.4545H1110.71V38.7273H1108.71ZM1109.71 60.4545H1052.21V62.4545H1109.71V60.4545ZM1053.21 61.4545V38.7273H1051.21V61.4545H1053.21ZM1052.21 39.7273H1109.71V37.7273H1052.21V39.7273ZM1063.34 18.8182H1094.71V16.8182H1063.34V18.8182ZM1093.71 17.8182V97.9318H1095.71V17.8182H1093.71ZM1093.71 97.9318C1093.71 99.2541 1093.93 100.44 1094.44 101.447L1096.23 100.553C1095.9 99.8937 1095.71 99.0337 1095.71 97.9318H1093.71ZM1094.45 101.464C1094.97 102.465 1095.78 103.218 1096.83 103.72L1097.69 101.916C1097 101.585 1096.53 101.125 1096.22 100.536L1094.45 101.464ZM1096.86 103.735C1097.9 104.187 1099.17 104.386 1100.62 104.386V102.386C1099.33 102.386 1098.36 102.207 1097.66 101.901L1096.86 103.735ZM1100.62 104.386C1101.64 104.386 1102.8 104.264 1104.09 104.029L1103.73 102.062C1102.52 102.282 1101.49 102.386 1100.62 102.386V104.386ZM1104.08 104.03C1105.38 103.802 1106.35 103.608 1106.99 103.447L1106.51 101.507C1105.94 101.65 1105.02 101.834 1103.74 102.061L1104.08 104.03ZM1105.77 102.679L1110.32 124.725L1112.28 124.321L1107.73 102.275L1105.77 102.679ZM1111.01 123.564C1109.64 123.972 1107.66 124.478 1105.05 125.083L1105.5 127.031C1108.12 126.423 1110.15 125.907 1111.58 125.481L1111.01 123.564ZM1105.05 125.083C1102.54 125.672 1099.54 126.064 1096.02 126.251L1096.12 128.249C1099.72 128.057 1102.85 127.654 1105.5 127.03L1105.05 125.083ZM1096.02 126.251C1088.91 126.625 1083.02 125.891 1078.3 124.099L1077.59 125.969C1082.65 127.889 1088.84 128.632 1096.12 128.249L1096.02 126.251ZM1078.31 124.102C1073.6 122.279 1070.11 119.439 1067.78 115.594L1066.07 116.633C1068.66 120.894 1072.51 124.002 1077.58 125.966L1078.31 124.102ZM1067.78 115.594C1065.44 111.741 1064.27 106.863 1064.34 100.899L1062.34 100.874C1062.27 107.107 1063.48 112.38 1066.07 116.633L1067.78 115.594ZM1064.34 100.886V17.8182H1062.34V100.886H1064.34ZM1145.69 121.966L1145.2 122.838L1145.21 122.84L1145.69 121.966ZM1130.18 106.17L1129.3 106.639L1129.3 106.641L1130.18 106.17ZM1130.18 59.0682L1131.07 59.539L1131.07 59.537L1130.18 59.0682ZM1145.69 43.2727L1146.18 44.1467L1146.18 44.1446L1145.69 43.2727ZM1194.33 43.2727L1193.84 44.1446L1193.84 44.1466L1194.33 43.2727ZM1209.84 59.0682L1208.96 59.537L1208.96 59.539L1209.84 59.0682ZM1209.84 106.17L1210.72 106.641L1210.73 106.639L1209.84 106.17ZM1194.33 121.966L1194.82 122.84L1194.82 122.838L1194.33 121.966ZM1177.11 101.739L1177.79 102.474L1177.11 101.739ZM1181.6 94.125L1182.56 94.4314L1181.6 94.125ZM1181.6 70.6023L1180.65 70.9086L1180.65 70.9119L1181.6 70.6023ZM1177.11 62.9886L1177.79 62.2533L1177.11 62.9886ZM1158.42 70.6023L1159.37 70.9119L1159.37 70.9086L1158.42 70.6023ZM1158.42 94.125L1159.37 93.8186L1158.42 94.125ZM1170.01 126.591C1160.67 126.591 1152.74 124.742 1146.18 121.092L1145.21 122.84C1152.13 126.689 1160.41 128.591 1170.01 128.591V126.591ZM1146.18 121.094C1139.61 117.398 1134.57 112.272 1131.07 105.7L1129.3 106.641C1132.99 113.554 1138.3 118.958 1145.2 122.838L1146.18 121.094ZM1131.07 105.702C1127.56 99.0878 1125.79 91.3938 1125.79 82.5909H1123.79C1123.79 91.6668 1125.61 99.6925 1129.3 106.639L1131.07 105.702ZM1125.79 82.5909C1125.79 73.7878 1127.56 66.1138 1131.07 59.539L1129.3 58.5973C1125.61 65.5074 1123.79 73.5152 1123.79 82.5909H1125.79ZM1131.07 59.537C1134.57 52.9282 1139.61 47.8033 1146.18 44.1466L1145.21 42.3988C1138.3 46.2421 1132.99 51.6476 1129.3 58.5994L1131.07 59.537ZM1146.18 44.1446C1152.75 40.4576 1160.68 38.5909 1170.01 38.5909V36.5909C1160.41 36.5909 1152.13 38.5121 1145.2 42.4009L1146.18 44.1446ZM1170.01 38.5909C1179.35 38.5909 1187.28 40.4576 1193.84 44.1446L1194.82 42.4009C1187.9 38.5121 1179.62 36.5909 1170.01 36.5909V38.5909ZM1193.84 44.1466C1200.42 47.8033 1205.45 52.9282 1208.96 59.537L1210.73 58.5994C1207.04 51.6476 1201.73 46.2421 1194.82 42.3988L1193.84 44.1466ZM1208.96 59.539C1212.47 66.1138 1214.24 73.7878 1214.24 82.5909H1216.24C1216.24 73.5152 1214.41 65.5074 1210.72 58.5973L1208.96 59.539ZM1214.24 82.5909C1214.24 91.3938 1212.47 99.0878 1208.96 105.702L1210.73 106.639C1214.41 99.6925 1216.24 91.6668 1216.24 82.5909H1214.24ZM1208.96 105.7C1205.45 112.272 1200.42 117.398 1193.84 121.094L1194.82 122.838C1201.73 118.958 1207.03 113.554 1210.72 106.641L1208.96 105.7ZM1193.84 121.092C1187.28 124.742 1179.35 126.591 1170.01 126.591V128.591C1179.61 128.591 1187.9 126.689 1194.82 122.84L1193.84 121.092ZM1170.24 105.409C1173.14 105.409 1175.67 104.426 1177.79 102.474L1176.44 101.003C1174.69 102.612 1172.64 103.409 1170.24 103.409V105.409ZM1177.79 102.474C1179.89 100.545 1181.46 97.8405 1182.56 94.4314L1180.65 93.8186C1179.63 97.0004 1178.21 99.3713 1176.44 101.003L1177.79 102.474ZM1182.56 94.4314C1183.66 91.0115 1184.19 86.9825 1184.19 82.3636H1182.19C1182.19 86.8357 1181.67 90.6476 1180.65 93.8186L1182.56 94.4314ZM1184.19 82.3636C1184.19 77.7084 1183.66 73.6775 1182.55 70.2927L1180.65 70.9119C1181.67 74.0422 1182.19 77.8522 1182.19 82.3636H1184.19ZM1182.56 70.2959C1181.46 66.8868 1179.89 64.1819 1177.79 62.2533L1176.44 63.724C1178.21 65.356 1179.63 67.7269 1180.65 70.9086L1182.56 70.2959ZM1177.79 62.2533C1175.67 60.3011 1173.14 59.3182 1170.24 59.3182V61.3182C1172.64 61.3182 1174.69 62.1156 1176.44 63.724L1177.79 62.2533ZM1170.24 59.3182C1167.2 59.3182 1164.56 60.2902 1162.36 62.2404L1163.69 63.7368C1165.5 62.1265 1167.67 61.3182 1170.24 61.3182V59.3182ZM1162.36 62.2404C1160.19 64.1693 1158.57 66.8785 1157.47 70.2959L1159.37 70.9086C1160.39 67.7352 1161.85 65.3686 1163.69 63.7368L1162.36 62.2404ZM1157.47 70.2927C1156.37 73.6775 1155.83 77.7084 1155.83 82.3636H1157.83C1157.83 77.8522 1158.35 74.0422 1159.37 70.9119L1157.47 70.2927ZM1155.83 82.3636C1155.83 86.9825 1156.37 91.0115 1157.47 94.4314L1159.37 93.8186C1158.35 90.6476 1157.83 86.8357 1157.83 82.3636H1155.83ZM1157.47 94.4314C1158.57 97.8488 1160.19 100.558 1162.36 102.487L1163.69 100.99C1161.85 99.3587 1160.39 96.9921 1159.37 93.8186L1157.47 94.4314ZM1162.36 102.487C1164.56 104.437 1167.2 105.409 1170.24 105.409V103.409C1167.67 103.409 1165.5 102.601 1163.69 100.99L1162.36 102.487ZM1234.37 126H1233.37V127H1234.37V126ZM1234.37 38.7273V37.7273H1233.37V38.7273H1234.37ZM1264.82 38.7273H1265.82V37.7273H1264.82V38.7273ZM1264.82 55.3182H1263.82V56.3182H1264.82V55.3182ZM1265.73 55.3182V56.3182H1266.5L1266.7 55.5691L1265.73 55.3182ZM1273.29 41.8523L1272.66 41.0772L1272.65 41.0806L1273.29 41.8523ZM1289.54 37.9318L1289.37 38.9174L1289.38 38.9201L1289.4 38.9223L1289.54 37.9318ZM1293.46 38.7841H1294.46V38.0422L1293.75 37.8271L1293.46 38.7841ZM1293.46 65.5455L1293.13 66.4918L1294.46 66.9436V65.5455H1293.46ZM1287.72 64.3523L1287.84 63.359L1287.72 64.3523ZM1273.57 66.0568L1274.06 66.9284L1274.07 66.9259L1273.57 66.0568ZM1267.83 71.8523L1268.7 72.347L1268.71 72.3413L1267.83 71.8523ZM1265.73 126V127H1266.73V126H1265.73ZM1235.37 126V38.7273H1233.37V126H1235.37ZM1234.37 39.7273H1264.82V37.7273H1234.37V39.7273ZM1263.82 38.7273V55.3182H1265.82V38.7273H1263.82ZM1264.82 56.3182H1265.73V54.3182H1264.82V56.3182ZM1266.7 55.5691C1268.26 49.5542 1270.69 45.2849 1273.92 42.624L1272.65 41.0806C1268.99 44.1014 1266.39 48.8094 1264.76 55.0672L1266.7 55.5691ZM1273.92 42.6274C1277.22 39.9375 1281.07 38.5909 1285.5 38.5909V36.5909C1280.62 36.5909 1276.33 38.0852 1272.66 41.0772L1273.92 42.6274ZM1285.5 38.5909C1286.81 38.5909 1288.1 38.6999 1289.37 38.9174L1289.71 36.9462C1288.32 36.7092 1286.92 36.5909 1285.5 36.5909V38.5909ZM1289.4 38.9223C1290.71 39.1049 1291.97 39.3782 1293.17 39.7411L1293.75 37.8271C1292.45 37.4324 1291.09 37.1375 1289.68 36.9413L1289.4 38.9223ZM1292.46 38.7841V65.5455H1294.46V38.7841H1292.46ZM1293.78 64.5991C1292.14 64.0388 1290.15 63.6294 1287.84 63.359L1287.6 65.3455C1289.83 65.6054 1291.67 65.9915 1293.13 66.4918L1293.78 64.5991ZM1287.84 63.359C1285.54 63.091 1283.55 62.9545 1281.87 62.9545V64.9545C1283.45 64.9545 1285.36 65.0832 1287.6 65.3455L1287.84 63.359ZM1281.87 62.9545C1278.64 62.9545 1275.7 63.6934 1273.08 65.1878L1274.07 66.9259C1276.37 65.6172 1278.96 64.9545 1281.87 64.9545V62.9545ZM1273.08 65.1852C1270.49 66.6417 1268.45 68.7082 1266.96 71.3633L1268.71 72.3413C1270.02 69.9963 1271.8 68.1992 1274.06 66.9284L1273.08 65.1852ZM1266.96 71.3576C1265.46 73.9951 1264.73 77.0695 1264.73 80.5455H1266.73C1266.73 77.3548 1267.4 74.6337 1268.7 72.347L1266.96 71.3576ZM1264.73 80.5455V126H1266.73V80.5455H1264.73ZM1265.73 125H1234.37V127H1265.73V125ZM1310.14 126H1309.14V127H1310.14V126ZM1310.14 38.7273V37.7273H1309.14V38.7273H1310.14ZM1341.51 38.7273H1342.51V37.7273H1341.51V38.7273ZM1341.51 126V127H1342.51V126H1341.51ZM1314.91 25.4318L1314.24 26.1659V26.1659L1314.91 25.4318ZM1314.91 5.20454L1314.24 4.47044V4.47044L1314.91 5.20454ZM1336.73 5.20454L1336.05 5.93438L1336.05 5.93864L1336.73 5.20454ZM1336.73 25.4318L1336.05 24.6977L1336.05 24.702L1336.73 25.4318ZM1311.14 126V38.7273H1309.14V126H1311.14ZM1310.14 39.7273H1341.51V37.7273H1310.14V39.7273ZM1340.51 38.7273V126H1342.51V38.7273H1340.51ZM1341.51 125H1310.14V127H1341.51V125ZM1325.82 28.6364C1321.83 28.6364 1318.43 27.3246 1315.59 24.6977L1314.24 26.1659C1317.46 29.1451 1321.34 30.6364 1325.82 30.6364V28.6364ZM1315.59 24.6977C1312.76 22.0737 1311.37 18.9641 1311.37 15.3182H1309.37C1309.37 19.551 1311.01 23.1838 1314.24 26.1659L1315.59 24.6977ZM1311.37 15.3182C1311.37 11.6722 1312.76 8.56261 1315.59 5.93864L1314.24 4.47044C1311.01 7.45253 1309.37 11.0854 1309.37 15.3182H1311.37ZM1315.59 5.93864C1318.43 3.31173 1321.83 2 1325.82 2V0C1321.34 0 1317.46 1.49129 1314.24 4.47044L1315.59 5.93864ZM1325.82 2C1329.86 2 1333.25 3.31316 1336.05 5.93437L1337.42 4.47471C1334.23 1.48987 1330.35 0 1325.82 0V2ZM1336.05 5.93864C1338.89 8.56261 1340.28 11.6722 1340.28 15.3182H1342.28C1342.28 11.0854 1340.64 7.45253 1337.41 4.47044L1336.05 5.93864ZM1340.28 15.3182C1340.28 18.9641 1338.89 22.0737 1336.05 24.6977L1337.41 26.1659C1340.64 23.1838 1342.28 19.551 1342.28 15.3182H1340.28ZM1336.05 24.702C1333.25 27.3232 1329.86 28.6364 1325.82 28.6364V30.6364C1330.35 30.6364 1334.23 29.1465 1337.42 26.1616L1336.05 24.702ZM1381.61 122.25L1381.14 123.131L1381.15 123.134L1381.61 122.25ZM1366.1 106.795L1365.22 107.266L1365.22 107.272L1366.1 106.795ZM1366.16 58.9545L1367.04 59.4292L1366.16 58.9545ZM1381.56 43.2159L1382.05 44.0863L1381.56 43.2159ZM1422.92 40.6591L1423.28 39.7252L1422.92 40.6591ZM1436.61 49.5795L1435.9 50.2761L1435.9 50.2796L1436.61 49.5795ZM1445.36 63.6705L1444.43 64.0173L1445.36 63.6705ZM1448.43 89.6364V90.6364H1449.43V89.6364H1448.43ZM1370.48 89.6364H1369.48V90.6364H1370.48V89.6364ZM1370.48 72.3636V71.3636H1369.48V72.3636H1370.48ZM1419.57 72.3636V73.3636H1420.58L1420.57 72.3485L1419.57 72.3636ZM1417.64 65.7727L1416.79 66.3042L1416.79 66.314L1416.8 66.3236L1417.64 65.7727ZM1412.69 61.2841L1412.22 62.1651L1412.23 62.1703L1412.24 62.1753L1412.69 61.2841ZM1398.72 61.2841L1399.16 62.1785L1399.17 62.1753L1399.18 62.1721L1398.72 61.2841ZM1393.6 65.7159L1392.77 65.1535L1392.77 65.1651L1393.6 65.7159ZM1391.61 72.3636L1390.61 72.3338L1390.61 72.3487V72.3636H1391.61ZM1393.37 98.5L1392.49 98.9714L1393.37 98.5ZM1398.43 103.67L1397.94 104.54L1398.43 103.67ZM1412.29 104.636L1411.98 103.688L1411.97 103.69L1412.29 104.636ZM1416.95 102.023L1417.62 102.773L1417.62 102.767L1417.63 102.762L1416.95 102.023ZM1419.79 97.8182V96.8182H1419.1L1418.86 97.4694L1419.79 97.8182ZM1448.43 97.8182L1449.42 97.9786L1449.61 96.8182H1448.43V97.8182ZM1441.44 113.614L1442.21 114.252L1442.22 114.249L1441.44 113.614ZM1426.84 123.955L1427.21 124.882L1427.22 124.881L1426.84 123.955ZM1405.7 126.591C1396.51 126.591 1388.65 124.835 1382.08 121.366L1381.15 123.134C1388.06 126.786 1396.26 128.591 1405.7 128.591V126.591ZM1382.09 121.369C1375.55 117.863 1370.52 112.852 1366.98 106.319L1365.22 107.272C1368.95 114.148 1374.26 119.44 1381.14 123.131L1382.09 121.369ZM1366.98 106.325C1363.48 99.7566 1361.7 91.8578 1361.7 82.5909H1359.7C1359.7 92.1119 1361.53 100.349 1365.22 107.266L1366.98 106.325ZM1361.7 82.5909C1361.7 73.7121 1363.49 66.002 1367.04 59.4292L1365.28 58.4799C1361.55 65.3919 1359.7 73.4394 1359.7 82.5909H1361.7ZM1367.04 59.4292C1370.59 52.8516 1375.58 47.743 1382.05 44.0863L1381.06 42.3455C1374.27 46.1888 1369 51.5727 1365.28 58.4799L1367.04 59.4292ZM1382.05 44.0863C1388.5 40.4357 1396.15 38.5909 1405.02 38.5909V36.5909C1395.87 36.5909 1387.87 38.4962 1381.06 42.3455L1382.05 44.0863ZM1405.02 38.5909C1411.51 38.5909 1417.35 39.5973 1422.56 41.5929L1423.28 39.7252C1417.81 37.6299 1411.72 36.5909 1405.02 36.5909V38.5909ZM1422.56 41.5929C1427.77 43.5892 1432.21 46.4843 1435.9 50.2761L1437.33 48.883C1433.44 44.8718 1428.75 41.8199 1423.28 39.7252L1422.56 41.5929ZM1435.9 50.2796C1439.58 54.0339 1442.42 58.6072 1444.43 64.0173L1446.3 63.3236C1444.21 57.6731 1441.22 52.8525 1437.33 48.8795L1435.9 50.2796ZM1444.43 64.0173C1446.42 69.419 1447.43 75.5299 1447.43 82.3636H1449.43C1449.43 75.3338 1448.39 68.9825 1446.3 63.3236L1444.43 64.0173ZM1447.43 82.3636V89.6364H1449.43V82.3636H1447.43ZM1448.43 88.6364H1370.48V90.6364H1448.43V88.6364ZM1371.48 89.6364V72.3636H1369.48V89.6364H1371.48ZM1370.48 73.3636H1419.57V71.3636H1370.48V73.3636ZM1420.57 72.3485C1420.53 69.6779 1419.84 67.291 1418.47 65.2219L1416.8 66.3236C1417.94 68.0424 1418.53 70.0493 1418.57 72.3788L1420.57 72.3485ZM1418.48 65.2412C1417.17 63.1522 1415.39 61.5335 1413.15 60.3929L1412.24 62.1753C1414.17 63.1559 1415.68 64.5297 1416.79 66.3042L1418.48 65.2412ZM1413.17 60.4031C1410.96 59.2171 1408.46 58.6364 1405.7 58.6364V60.6364C1408.17 60.6364 1410.34 61.1541 1412.22 62.1651L1413.17 60.4031ZM1405.7 58.6364C1403.02 58.6364 1400.53 59.2194 1398.26 60.3961L1399.18 62.1721C1401.15 61.1518 1403.32 60.6364 1405.7 60.6364V58.6364ZM1398.27 60.3897C1396 61.5239 1394.16 63.1132 1392.77 65.1536L1394.43 66.2782C1395.62 64.5307 1397.19 63.1655 1399.16 62.1785L1398.27 60.3897ZM1392.77 65.1651C1391.4 67.2319 1390.69 69.633 1390.61 72.3338L1392.61 72.3935C1392.68 70.0185 1393.3 67.9878 1394.44 66.2667L1392.77 65.1651ZM1390.61 72.3636V91H1392.61V72.3636H1390.61ZM1390.61 91C1390.61 93.9466 1391.23 96.612 1392.49 98.9714L1394.26 98.0286C1393.17 95.994 1392.61 93.6595 1392.61 91H1390.61ZM1392.49 98.9714C1393.76 101.337 1395.58 103.198 1397.94 104.54L1398.93 102.801C1396.89 101.643 1395.34 100.057 1394.26 98.0286L1392.49 98.9714ZM1397.94 104.54C1400.32 105.893 1403.15 106.545 1406.39 106.545V104.545C1403.41 104.545 1400.94 103.948 1398.93 102.801L1397.94 104.54ZM1406.39 106.545C1408.64 106.545 1410.72 106.229 1412.62 105.583L1411.97 103.69C1410.31 104.256 1408.45 104.545 1406.39 104.545V106.545ZM1412.61 105.585C1414.54 104.941 1416.22 104.007 1417.62 102.773L1416.29 101.273C1415.12 102.311 1413.68 103.119 1411.98 103.688L1412.61 105.585ZM1417.63 102.762C1419.03 101.481 1420.07 99.9453 1420.73 98.1669L1418.86 97.4694C1418.31 98.9486 1417.45 100.216 1416.28 101.284L1417.63 102.762ZM1419.79 98.8182H1448.43V96.8182H1419.79V98.8182ZM1447.44 97.6578C1446.49 103.555 1444.23 108.654 1440.67 112.979L1442.22 114.249C1446.01 109.634 1448.41 104.202 1449.42 97.9786L1447.44 97.6578ZM1440.67 112.975C1437.12 117.264 1432.39 120.62 1426.46 123.028L1427.22 124.881C1433.41 122.365 1438.42 118.827 1442.21 114.252L1440.67 112.975ZM1426.47 123.027C1420.59 125.393 1413.67 126.591 1405.7 126.591V128.591C1413.87 128.591 1421.05 127.364 1427.21 124.882L1426.47 123.027ZM1547.4 67.1364V68.1364H1548.44L1548.4 67.0954L1547.4 67.1364ZM1518.54 67.1364L1517.54 67.2212L1517.62 68.1364H1518.54V67.1364ZM1516.66 62.5341L1517.42 61.8851L1516.66 62.5341ZM1512.4 59.5795L1512.01 60.5008L1512.03 60.506L1512.04 60.5108L1512.4 59.5795ZM1499.79 59.9773L1499.33 59.0864L1499.79 59.9773ZM1496.95 64.1818L1497.95 64.2112L1497.95 64.1861L1497.95 64.161L1496.95 64.1818ZM1498.6 67.7614L1497.9 68.4804L1497.91 68.486L1497.91 68.4916L1498.6 67.7614ZM1505.36 70.3182L1505.18 71.3021L1505.18 71.3025L1505.36 70.3182ZM1523.08 73.5L1523.26 72.5162L1523.26 72.5157L1523.08 73.5ZM1543.03 81.7386L1542.36 82.4868L1542.37 82.4928L1543.03 81.7386ZM1549.68 97.1364L1550.68 97.1425V97.1305L1549.68 97.1364ZM1544.11 113.33L1543.33 112.704L1543.33 112.705L1544.11 113.33ZM1529.16 123.898L1529.53 124.829L1529.53 124.828L1529.16 123.898ZM1476.32 119.409L1475.73 120.218L1475.74 120.219L1476.32 119.409ZM1463.77 97.8182V96.8182H1462.66L1462.77 97.9152L1463.77 97.8182ZM1494.9 97.8182L1495.89 97.6692L1495.76 96.8182H1494.9V97.8182ZM1498.99 104.239L1498.44 105.075L1498.45 105.08L1498.46 105.085L1498.99 104.239ZM1514.96 104.977L1514.5 104.09L1514.49 104.094L1514.96 104.977ZM1517.86 100.773L1518.86 100.794L1518.86 100.772L1518.86 100.75L1517.86 100.773ZM1515.36 96.7955L1514.83 97.6458L1514.84 97.6512L1515.36 96.7955ZM1507.86 94.4091L1508.03 93.4245L1508.03 93.4243L1507.86 94.4091ZM1492.4 91.6818L1492.58 90.697L1492.57 90.6967L1492.4 91.6818ZM1472.4 82.8182L1473.1 82.105L1472.4 82.8182ZM1465.81 66L1466.81 66.0055L1466.81 65.9938L1465.81 66ZM1470.58 50.6023L1469.79 49.9932L1469.79 49.9943L1470.58 50.6023ZM1484.5 40.9432L1484.85 41.8826L1484.85 41.8814L1484.5 40.9432ZM1535.87 45.4318L1535.28 46.2438L1535.29 46.2453L1535.87 45.4318ZM1547.4 66.1364H1518.54V68.1364H1547.4V66.1364ZM1519.54 67.0516C1519.37 65.0755 1518.67 63.341 1517.42 61.8851L1515.9 63.183C1516.86 64.3029 1517.41 65.6366 1517.54 67.2212L1519.54 67.0516ZM1517.42 61.8851C1516.21 60.4592 1514.65 59.3837 1512.77 58.6483L1512.04 60.5108C1513.64 61.139 1514.92 62.0333 1515.9 63.183L1517.42 61.8851ZM1512.79 58.6583C1510.95 57.8805 1508.92 57.5 1506.72 57.5V59.5C1508.69 59.5 1510.45 59.8392 1512.01 60.5008L1512.79 58.6583ZM1506.72 57.5C1503.91 57.5 1501.44 58.0146 1499.33 59.0864L1500.24 60.8682C1502 59.9702 1504.15 59.5 1506.72 59.5V57.5ZM1499.33 59.0864C1498.26 59.6345 1497.39 60.3321 1496.8 61.2072C1496.2 62.0923 1495.93 63.1033 1495.95 64.2026L1497.95 64.161C1497.93 63.4421 1498.11 62.8433 1498.46 62.3269C1498.81 61.8005 1499.39 61.3049 1500.24 60.8682L1499.33 59.0864ZM1495.95 64.1524C1495.9 65.7836 1496.61 67.2342 1497.9 68.4804L1499.29 67.0424C1498.31 66.0916 1497.92 65.1558 1497.95 64.2112L1495.95 64.1524ZM1497.91 68.4916C1499.31 69.8027 1501.82 70.6922 1505.18 71.3021L1505.54 69.3343C1502.22 68.7321 1500.23 67.917 1499.28 67.0311L1497.91 68.4916ZM1505.18 71.3025L1522.91 74.4843L1523.26 72.5157L1505.53 69.3339L1505.18 71.3025ZM1522.9 74.4838C1531.76 76.0966 1538.2 78.7945 1542.36 82.4868L1543.69 80.9905C1539.14 76.9555 1532.29 74.1609 1523.26 72.5162L1522.9 74.4838ZM1542.37 82.4928C1546.52 86.1089 1548.64 90.9561 1548.68 97.1422L1550.68 97.1305C1550.64 90.4378 1548.32 85.0199 1543.68 80.9845L1542.37 82.4928ZM1548.68 97.1303C1548.64 103.131 1546.85 108.307 1543.33 112.704L1544.89 113.955C1548.71 109.185 1550.64 103.566 1550.68 97.1425L1548.68 97.1303ZM1543.33 112.705C1539.82 117.093 1534.99 120.521 1528.8 122.968L1529.53 124.828C1535.99 122.275 1541.13 118.657 1544.89 113.954L1543.33 112.705ZM1528.8 122.967C1522.65 125.375 1515.6 126.591 1507.63 126.591V128.591C1515.8 128.591 1523.1 127.344 1529.53 124.829L1528.8 122.967ZM1507.63 126.591C1494.42 126.591 1484.22 123.887 1476.91 118.599L1475.74 120.219C1483.5 125.84 1494.17 128.591 1507.63 128.591V126.591ZM1476.91 118.6C1469.63 113.308 1465.6 106.366 1464.76 97.7212L1462.77 97.9152C1463.67 107.149 1468.01 114.601 1475.73 120.218L1476.91 118.6ZM1463.77 98.8182H1494.9V96.8182H1463.77V98.8182ZM1493.91 97.9672C1494.37 101.01 1495.89 103.402 1498.44 105.075L1499.54 103.402C1497.47 102.045 1496.27 100.157 1495.89 97.6692L1493.91 97.9672ZM1498.46 105.085C1501.01 106.687 1504.16 107.455 1507.86 107.455V105.455C1504.43 105.455 1501.68 104.744 1499.53 103.392L1498.46 105.085ZM1507.86 107.455C1510.84 107.455 1513.38 106.945 1515.43 105.861L1514.49 104.094C1512.82 104.979 1510.63 105.455 1507.86 105.455V107.455ZM1515.42 105.864C1517.57 104.746 1518.81 103.048 1518.86 100.794L1516.86 100.752C1516.83 102.134 1516.14 103.239 1514.5 104.09L1515.42 105.864ZM1518.86 100.75C1518.81 98.6881 1517.75 97.072 1515.87 95.9397L1514.84 97.6512C1516.22 98.4886 1516.83 99.524 1516.86 100.795L1518.86 100.75ZM1515.88 95.9452C1514.13 94.8591 1511.48 94.0372 1508.03 93.4245L1507.68 95.3937C1511.05 95.9931 1513.4 96.7621 1514.83 97.6457L1515.88 95.9452ZM1508.03 93.4243L1492.58 90.697L1492.23 92.6666L1507.68 95.3939L1508.03 93.4243ZM1492.57 90.6967C1483.79 89.1635 1477.34 86.2677 1473.1 82.105L1471.7 83.5314C1476.33 88.0808 1483.22 91.0941 1492.23 92.6669L1492.57 90.6967ZM1473.1 82.105C1468.89 77.9588 1466.77 72.6222 1466.81 66.0055L1464.81 65.9945C1464.77 73.0899 1467.06 78.9654 1471.7 83.5314L1473.1 82.105ZM1466.81 65.9938C1466.77 60.1215 1468.31 55.2137 1471.38 51.2103L1469.79 49.9943C1466.42 54.4 1464.77 59.7573 1464.81 66.0062L1466.81 65.9938ZM1471.38 51.2113C1474.5 47.1472 1478.97 44.0275 1484.85 41.8826L1484.16 40.0037C1478 42.2527 1473.19 45.5725 1469.79 49.9932L1471.38 51.2113ZM1484.85 41.8814C1490.77 39.6972 1497.83 38.5909 1506.04 38.5909V36.5909C1497.66 36.5909 1490.36 37.7195 1484.16 40.0049L1484.85 41.8814ZM1506.04 38.5909C1518.53 38.5909 1528.24 41.1796 1535.28 46.2438L1536.45 44.6198C1528.95 39.2295 1518.78 36.5909 1506.04 36.5909V38.5909ZM1535.29 46.2453C1542.34 51.2871 1546.04 58.2325 1546.4 67.1773L1548.4 67.0954C1548.01 57.5554 1544.02 50.031 1536.45 44.6184L1535.29 46.2453Z" fill="#7D7D7D" mask="url(#path-1-outside-1_6451_6469)"/>
</svg>
