<svg xmlns="http://www.w3.org/2000/svg" width="52" height="52" viewBox="0 0 52 52" fill="none">
  <g clip-path="url(#clip0_6451_6367)">
    <path d="M47.2137 3.25H24.3681C21.7243 3.25 19.5815 5.39313 19.5815 8.03653V19.2897C20.7892 19.89 22.094 20.539 23.312 21.1444L25.1754 17.416C26.3037 15.1614 29.0542 14.2453 31.308 15.3716C33.5666 16.5019 34.4819 19.2449 33.3512 21.5039L30.0294 28.1491C30.1175 29.0286 30.0393 29.9153 29.7914 30.7734H31.9845L26.2002 46.6791C25.857 47.6225 26.5203 48.7234 27.6324 48.7234C28.254 48.7234 28.8388 48.3398 29.0634 47.7201L35.2261 30.7734H36.2937L42.5192 47.7253C42.7457 48.3418 43.3289 48.7234 43.9502 48.7234C44.9892 48.7234 45.7509 47.6856 45.3792 46.6751L39.5394 30.7734H47.2137C49.8571 30.7734 52.0002 28.6303 52.0002 25.9869V8.03653C52.0002 5.39313 49.8571 3.25 47.2137 3.25ZM43.9494 24.2469H37.1142C36.2731 24.2469 35.5907 23.5645 35.5907 22.7234C35.5907 21.8816 36.2731 21.2 37.1142 21.2H43.9494C44.7913 21.2 45.4728 21.8816 45.4728 22.7234C45.4728 23.5645 44.7913 24.2469 43.9494 24.2469ZM43.9494 18.5352H37.1142C36.2731 18.5352 35.5907 17.8536 35.5907 17.0117C35.5907 16.1707 36.2731 15.4883 37.1142 15.4883H43.9494C44.7913 15.4883 45.4728 16.1707 45.4728 17.0117C45.4728 17.8536 44.7913 18.5352 43.9494 18.5352ZM43.9494 12.8242H27.6324C26.7905 12.8242 26.1089 12.1419 26.1089 11.3008C26.1089 10.4597 26.7905 9.77737 27.6324 9.77737H43.9494C44.7913 9.77737 45.4728 10.4597 45.4728 11.3008C45.4728 12.1419 44.7913 12.8242 43.9494 12.8242Z" fill="#2E90FA"/>
    <path d="M26.8046 30.12C27.0799 29.3135 27.0779 28.4708 26.8454 27.702L30.6262 20.1411C31.0023 19.3885 30.6977 18.4733 29.9451 18.0972C29.1929 17.7207 28.2776 18.0258 27.9011 18.7784L24.6765 25.2268C22.7492 24.2671 19.821 22.8111 17.462 21.638C15.2673 20.5466 13.701 19.5678 11.0287 19.5678H9.68256C11.7634 19.5678 13.6205 18.6101 14.8361 17.1113C15.7636 15.9707 16.3182 14.5171 16.3182 12.933C16.3182 9.26758 13.3475 6.29688 9.68176 6.29688C6.01758 6.29688 3.04687 9.26758 3.04687 12.933C3.04687 14.6932 3.73242 16.2928 4.8508 17.4799C6.06003 18.7657 7.77747 19.5678 9.68137 19.5682C7.12881 19.5682 4.63339 20.6025 2.8382 22.4025C1.00809 24.2278 0 26.6598 0 29.2504V34.1456C0 36.2531 1.36832 38.0463 3.26349 38.6842V47.1996C3.26349 48.041 3.94546 48.723 4.78693 48.723H14.5774C15.4189 48.723 16.1008 48.041 16.1008 47.1996V30.0827C17.5453 30.8048 19.4429 31.7534 20.9782 32.5214C22.0545 33.0594 23.3122 33.1078 24.4337 32.6516C25.5521 32.1913 26.4142 31.2753 26.7986 30.1379C26.8006 30.1319 26.8026 30.126 26.8046 30.12Z" fill="#2E90FA"/>
  </g>
  <defs>
    <clipPath id="clip0_6451_6367">
      <rect width="52" height="52" fill="white"/>
    </clipPath>
  </defs>
</svg>