<svg xmlns="http://www.w3.org/2000/svg" width="52" height="52" viewBox="0 0 52 52" fill="none">
  <g clip-path="url(#clip0_6451_6402)">
    <path d="M51.6274 30.9939L48.343 27.2078C50.7103 24.2464 52 20.5851 52 16.7578C52 7.51755 44.4825 0 35.2422 0C26.0018 0 18.4844 7.51755 18.4844 16.7578C18.4844 25.9981 26.0019 33.5156 35.2422 33.5156H50.4766C51.0731 33.5156 51.6149 33.1674 51.8625 32.6247C52.1102 32.082 52.0183 31.4447 51.6274 30.9939ZM35.2422 27.1172C34.4008 27.1172 33.7187 26.4351 33.7187 25.5938C33.7187 24.7524 34.4008 24.0703 35.2422 24.0703C36.0835 24.0703 36.7656 24.7524 36.7656 25.5938C36.7656 26.4351 36.0836 27.1172 35.2422 27.1172ZM39.4807 16.1648C38.7384 16.9466 37.7927 17.5033 36.7657 17.7822V20.9814C36.7657 21.8227 36.0836 22.5048 35.2423 22.5048C34.4009 22.5048 33.7189 21.8227 33.7189 20.9814V16.4628C33.7189 15.6214 34.4009 14.9393 35.2423 14.9393C36.0165 14.9393 36.737 14.6295 37.2712 14.0669C37.8048 13.5049 38.0765 12.7675 38.0362 11.9907C37.9607 10.5362 36.7591 9.37371 35.3008 9.34436C35.2817 9.34395 35.2626 9.34375 35.2435 9.34375C33.8506 9.34375 32.6642 10.3686 32.4716 11.7495C32.4536 11.878 32.4445 12.01 32.4445 12.1416C32.4445 12.9829 31.7625 13.665 30.9211 13.665C30.0798 13.665 29.3977 12.9829 29.3977 12.1416C29.3977 11.8696 29.4167 11.5961 29.4539 11.3284C29.8624 8.40105 32.4057 6.23746 35.3621 6.29809C38.4099 6.35954 40.9211 8.79064 41.079 11.8327C41.163 13.4523 40.5953 14.9908 39.4807 16.1648Z" fill="#FF7B34"/>
    <path d="M21.8355 33.7187H11.6792C10.8379 33.7187 10.1558 33.0366 10.1558 32.1953C10.1558 31.354 10.8379 30.6719 11.6792 30.6719H21.1646C18.0166 27.4874 15.9373 23.2442 15.5173 18.5303C6.85389 19.1671 -0.000462189 26.419 -0.000462189 35.2422C-0.000462189 39.0695 1.28928 42.7307 3.6565 45.6921L0.372171 49.4783C-0.0187434 49.929 -0.110658 50.5663 0.137053 51.1091C0.384764 51.6517 0.926397 52 1.52298 52H16.7574C25.5806 52 32.8325 45.1456 33.4693 36.4823C29.6777 36.1444 26.1911 34.7325 23.3143 32.5553C23.1523 33.2226 22.5526 33.7187 21.8355 33.7187ZM21.8355 39.8125H11.6792C10.8379 39.8125 10.1558 39.1304 10.1558 38.2891C10.1558 37.4477 10.8379 36.7656 11.6792 36.7656H21.8355C22.6768 36.7656 23.3589 37.4477 23.3589 38.2891C23.3589 39.1304 22.6768 39.8125 21.8355 39.8125Z" fill="#FF7B34"/>
  </g>
  <defs>
    <clipPath id="clip0_6451_6402">
      <rect width="52" height="52" fill="white"/>
    </clipPath>
  </defs>
</svg>