<svg xmlns="http://www.w3.org/2000/svg" width="52" height="52" viewBox="0 0 52 52" fill="none">
  <path fill-rule="evenodd" clip-rule="evenodd" d="M40.0136 38.3727H42.7916V39.2312H40.0136V38.3727ZM40.0136 36.6506H44.0233V37.5091H40.0136V36.6506ZM40.0136 34.9336H44.0233V35.7921H40.0136V34.9336ZM38.2754 32.0437V43.241H45.7403V32.0437H38.2754ZM29.7015 32.0437V43.241H37.1664V32.0437H29.7015ZM27.9846 30.3535H47.4785V44.9579H40.0136C40.0122 45.1861 39.9206 45.4044 39.7588 45.5652C39.597 45.7261 39.3781 45.8164 39.1499 45.8164H36.2865C36.0626 45.8109 35.8497 45.718 35.6932 45.5576C35.5368 45.3972 35.4493 45.182 35.4494 44.9579H27.9846V30.3535ZM28.5178 23.9551C30.9035 23.9637 33.2749 24.3231 35.5561 25.0215C38.3935 25.7703 41.0686 27.0355 43.4475 28.7539H26.385V41.0176H12.6763C13.5825 40.5527 14.3082 39.7994 14.7388 38.8764C15.1694 37.9534 15.2805 36.9133 15.0545 35.9202C14.8326 35.0842 14.3755 34.3294 13.7376 33.7453C13.0997 33.1612 12.3076 32.7724 11.4553 32.6248V32.4863C11.4691 31.8266 11.6293 31.1783 11.9244 30.5881C12.2195 29.9979 12.6421 29.4808 13.1616 29.074C15.6848 27.262 18.4975 25.8917 21.4796 25.0215C23.7678 24.3548 26.1347 23.9962 28.5178 23.9551ZM4.38227 18.7376C4.51665 18.6931 4.66319 18.7038 4.78968 18.7673C4.91618 18.8309 5.01226 18.942 5.05681 19.0764L9.88766 33.6541C10.3386 33.5509 10.8056 33.539 11.2611 33.6191C11.7167 33.6991 12.1517 33.8696 12.5404 34.1204C12.929 34.3712 13.2636 34.6972 13.5243 35.0793C13.7851 35.4614 13.9667 35.8918 14.0585 36.3451C14.1503 36.7985 14.1505 37.2656 14.0589 37.7191C13.9674 38.1725 13.7861 38.603 13.5256 38.9852C13.2651 39.3675 12.9307 39.6937 12.5422 39.9448C12.1537 40.1958 11.7188 40.3665 11.2633 40.4469C9.2638 40.9429 8.16008 41.2203 7.31761 37.8611C6.5871 34.9177 7.33894 34.3366 8.87456 33.9048L4.04372 19.4121C4.02167 19.3456 4.01293 19.2754 4.018 19.2055C4.02308 19.1356 4.04188 19.0673 4.07332 19.0047C4.10476 18.9421 4.14823 18.8863 4.20125 18.8404C4.25427 18.7946 4.31575 18.7597 4.38227 18.7376ZM28.5178 4.75977C30.2051 4.75977 31.8545 5.26011 33.2575 6.19754C34.6605 7.13497 35.7539 8.46737 36.3996 10.0262C37.0453 11.5851 37.2143 13.3005 36.8851 14.9554C36.5559 16.6103 35.7434 18.1304 34.5503 19.3235C33.3572 20.5166 31.8371 21.3292 30.1822 21.6583C28.5273 21.9875 26.8119 21.8186 25.253 21.1729C23.6941 20.5272 22.3617 19.4337 21.4243 18.0307C20.4869 16.6278 19.9865 14.9783 19.9865 13.291C19.9865 11.0284 20.8854 8.85843 22.4853 7.25851C24.0852 5.65859 26.2552 4.75977 28.5178 4.75977Z" fill="#C852FF"/>
</svg>