<svg xmlns="http://www.w3.org/2000/svg" width="53" height="52" viewBox="0 0 53 52" fill="none">
  <path d="M26.667 24.375C31.1543 24.375 34.792 20.7373 34.792 16.25C34.792 11.7627 31.1543 8.125 26.667 8.125C22.1797 8.125 18.542 11.7627 18.542 16.25C18.542 20.7373 22.1797 24.375 26.667 24.375Z" fill="#1ECD67"/>
  <path d="M29.6895 36.9198L26.667 27.8848L23.6445 36.9198V36.936L26.667 39.9585L29.6895 36.936V36.9198Z" fill="#1ECD67"/>
  <path d="M29.9171 26H29.4621L33.0534 36.7575C33.1704 37.0558 33.199 37.3816 33.1356 37.6958C33.0722 38.01 32.9195 38.2992 32.6959 38.5287L27.3496 43.875H41.2921C41.7227 43.8738 42.1353 43.7022 42.4398 43.3977C42.7443 43.0932 42.9159 42.6806 42.9171 42.25V39C42.9126 35.5536 41.5415 32.2496 39.1045 29.8126C36.6675 27.3757 33.3635 26.0046 29.9171 26Z" fill="#1ECD67"/>
  <path d="M20.6382 38.5287C20.4146 38.2992 20.2619 38.01 20.1985 37.6958C20.1351 37.3816 20.1636 37.0558 20.2807 36.7575L23.872 26H23.417C19.9706 26.0046 16.6666 27.3757 14.2296 29.8126C11.7927 32.2496 10.4215 35.5536 10.417 39V42.25C10.4182 42.6806 10.5898 43.0932 10.8943 43.3977C11.1988 43.7022 11.6114 43.8738 12.042 43.875H26.0007C26.0007 43.875 24.9622 42.8527 20.6382 38.5287Z" fill="#1ECD67"/>
</svg>