<svg width="430" height="112" viewBox="0 0 430 112" fill="none" xmlns="http://www.w3.org/2000/svg">
<rect width="430" height="112" transform="translate(0 0.00292969)" fill="#1871FF"/>
<path d="M159.476 1.69442L155.811 11.8437C155.576 12.4949 156.39 13.0104 156.878 12.5191L164.208 5.13849C164.484 4.86052 164.452 4.40287 164.139 4.16674L160.474 1.39803C160.126 1.13546 159.624 1.28469 159.476 1.69442Z" fill="#FF006F"/>
<path d="M20.7668 93.2441L22.9338 82.4093L28.8424 82.4093L28.4235 84.4751H25.2308L24.7541 86.8588L27.5856 86.8588L27.1955 88.7946L24.364 88.7946L23.4683 93.2441H20.7668ZM29.0069 85.2408C29.4258 83.1171 30.9716 82.2648 33.1964 82.2648C35.4067 82.2648 36.6057 83.1171 36.1868 85.2408L35.1611 90.4126C34.7277 92.5363 33.1819 93.3886 30.9716 93.3886C28.7468 93.3886 27.5478 92.5363 27.9667 90.4126L29.0069 85.2408ZM30.6538 90.5571C30.5671 90.9616 30.7838 91.3228 31.3761 91.3228C31.9829 91.3228 32.344 90.9616 32.4163 90.5571L33.5142 85.0963C33.5864 84.6918 33.3842 84.3306 32.7774 84.3306C32.1707 84.3306 31.824 84.6918 31.7373 85.0963L30.6538 90.5571ZM35.4949 93.2441L37.6619 82.4093H41.2735C43.7295 82.4093 44.7263 83.3627 44.2495 85.7608C43.9173 87.3933 43.2527 88.4046 42.0681 88.8668L42.646 93.2441H40.06L39.54 89.228C39.4822 89.2425 39.4099 89.2425 39.3666 89.2425H39.0054L38.1964 93.2441H35.4949ZM39.4099 87.1622H40.2767C40.869 87.1622 41.2447 86.8443 41.3602 86.4543C41.4469 86.0353 41.548 85.6019 41.6058 85.1974C41.6492 84.8218 41.4614 84.504 40.9124 84.4751C40.8835 84.4751 40.869 84.4751 40.8402 84.4751H39.9589L39.4099 87.1622ZM50.0324 84.8796L48.8189 85.1685L49.2234 83.1171L50.6536 82.4093L53.2251 82.4093L51.0581 93.2441L48.3566 93.2441L50.0324 84.8796ZM54.5488 83.6241C54.8348 82.2026 55.7883 81.6565 57.1232 81.6565C58.5274 81.6565 59.2035 82.1159 58.9088 83.6068C58.8914 83.7022 58.8741 83.7975 58.8481 83.8929C58.5274 83.8929 57.5132 83.8929 57.2185 83.8929C57.2272 83.8495 57.2532 83.7022 57.2705 83.6501C57.3485 83.2688 57.3485 82.896 56.8805 82.896C56.5771 82.896 56.2911 83.0694 56.2217 83.3901C55.979 84.6123 58.8134 84.1702 58.3714 86.3632C58.0853 87.7847 57.1318 88.3308 55.7883 88.3308C54.3841 88.3308 53.7167 87.8714 54.0114 86.3719C54.0287 86.2765 54.0461 86.1898 54.0721 86.0945C54.3928 86.0945 55.4069 86.0945 55.7016 86.0945C55.6843 86.1378 55.6583 86.2852 55.6496 86.3372C55.5716 86.7273 55.563 87.0913 56.0397 87.0913C56.3864 87.0913 56.6378 86.8833 56.7071 86.5279C56.9498 85.3057 54.1067 85.8171 54.5488 83.6241ZM59.6654 81.7432H63.9734L63.7307 82.9827H62.3872L61.3297 88.2441L59.7088 88.2441L60.7576 82.9827L59.4141 82.9827L59.6654 81.7432ZM69.8351 84.8796L68.6216 85.1685L69.0261 83.1171L70.4563 82.4093H73.0278L70.8608 93.2441H68.1593L69.8351 84.8796ZM73.3703 85.2263C73.7748 83.2038 75.3784 82.2648 77.2709 82.2648C79.1634 82.2648 80.3769 83.2038 79.9724 85.2263L78.9322 90.4271C78.5422 92.4496 76.9386 93.3886 75.0461 93.3886C73.1536 93.3886 71.9257 92.4496 72.3302 90.4271L73.3703 85.2263ZM76.8519 84.3306C76.4763 84.3306 76.2018 84.5907 76.1296 84.9518L74.9883 90.7016C74.9016 91.0627 75.075 91.3228 75.4506 91.3228C75.8407 91.3228 76.1007 91.0627 76.1729 90.7016L77.3287 84.9518C77.4009 84.5907 77.2275 84.3306 76.8519 84.3306ZM80.8402 85.2263C81.2447 83.2038 82.8482 82.2648 84.7407 82.2648C86.6332 82.2648 87.8467 83.2038 87.4422 85.2263L86.4021 90.4271C86.012 92.4496 84.4085 93.3886 82.516 93.3886C80.6235 93.3886 79.3955 92.4496 79.8 90.4271L80.8402 85.2263ZM84.3218 84.3306C83.9462 84.3306 83.6717 84.5907 83.5995 84.9518L82.4582 90.7016C82.3715 91.0627 82.5449 91.3228 82.9205 91.3228C83.3105 91.3228 83.5706 91.0627 83.6428 90.7016L84.7985 84.9518C84.8707 84.5907 84.6974 84.3306 84.3218 84.3306ZM88.31 85.2263C88.7145 83.2038 90.3181 82.2648 92.2106 82.2648C94.1031 82.2648 95.3166 83.2038 94.9121 85.2263L93.8719 90.4271C93.4819 92.4496 91.8783 93.3886 89.9858 93.3886C88.0933 93.3886 86.8654 92.4496 87.2699 90.4271L88.31 85.2263ZM91.7916 84.3306C91.416 84.3306 91.1416 84.5907 91.0693 84.9518L89.928 90.7016C89.8414 91.0627 90.0147 91.3228 90.3903 91.3228C90.7804 91.3228 91.0404 91.0627 91.1127 90.7016L92.2684 84.9518C92.3406 84.5907 92.1673 84.3306 91.7916 84.3306ZM99.4943 85.5441C99.9711 83.1749 101.56 82.2648 103.785 82.2648C106.125 82.2648 107.252 83.0305 106.761 85.5153C106.732 85.6742 106.703 85.8331 106.66 85.992C106.125 85.992 104.435 85.992 103.944 85.992C103.958 85.9198 104.002 85.6742 104.031 85.5875C104.161 84.9518 104.161 84.3306 103.38 84.3306C102.875 84.3306 102.398 84.6196 102.283 85.1541C101.878 87.1911 106.602 86.4543 105.865 90.1092C105.389 92.4785 103.799 93.3886 101.56 93.3886C99.2199 93.3886 98.1075 92.6229 98.5987 90.1237C98.6276 89.9648 98.6564 89.8203 98.6998 89.6614C99.2343 89.6614 100.925 89.6614 101.416 89.6614C101.387 89.7336 101.343 89.9792 101.329 90.0659C101.199 90.716 101.185 91.3228 101.979 91.3228C102.557 91.3228 102.976 90.976 103.092 90.3837C103.496 88.3468 98.7576 89.1991 99.4943 85.5441ZM108.022 82.4093L115.202 82.4093L114.797 84.4751H112.558L110.796 93.2441H108.094L109.842 84.4751H107.603L108.022 82.4093ZM114.399 90.4126L116.002 82.4093H118.704L117.086 90.5571C116.999 90.9616 117.216 91.3228 117.808 91.3228C118.415 91.3228 118.776 90.9616 118.848 90.5571L120.481 82.4093H123.182L121.593 90.4126C121.16 92.5363 119.614 93.3886 117.404 93.3886C115.179 93.3886 113.98 92.5363 114.399 90.4126ZM121.912 93.2441L124.079 82.4093C124.498 82.4093 127.286 82.4093 127.676 82.4093C129.886 82.4093 131.085 83.2616 130.666 85.3852C130.478 86.3387 129.901 89.228 129.698 90.2682C129.265 92.3918 127.719 93.2441 125.509 93.2441C124.772 93.2441 122.576 93.2441 121.912 93.2441ZM125.913 91.1783C126.52 91.1783 126.881 90.8171 126.954 90.4126L127.994 85.2408C128.066 84.8363 127.864 84.4751 127.257 84.4751C127.069 84.4751 126.52 84.4751 126.376 84.4751L125.032 91.1783C125.177 91.1783 125.726 91.1783 125.913 91.1783ZM130.003 93.2441L132.17 82.4093H134.871L135.348 88.8813L136.648 82.4093L139.35 82.4093L137.183 93.2441H134.481L134.005 86.7721L132.704 93.2441H130.003ZM138.136 93.2441L140.303 82.4093H146.212L145.793 84.4751H142.6L142.123 86.8588H144.955L144.565 88.7946H141.733L141.256 91.1783H144.449L144.045 93.2441H138.136ZM146.994 82.4093H154.174L153.769 84.4751H151.53L149.768 93.2441H147.066L148.814 84.4751H146.575L146.994 82.4093ZM154.224 85.5441C154.701 83.1749 156.29 82.2648 158.515 82.2648C160.855 82.2648 161.982 83.0305 161.491 85.5153C161.462 85.6742 161.433 85.8331 161.39 85.992C160.855 85.992 159.165 85.992 158.674 85.992C158.688 85.9198 158.731 85.6742 158.76 85.5875C158.89 84.9518 158.89 84.3306 158.11 84.3306C157.605 84.3306 157.128 84.6196 157.012 85.1541C156.608 87.1911 161.332 86.4543 160.595 90.1092C160.118 92.4785 158.529 93.3886 156.29 93.3886C153.95 93.3886 152.837 92.6229 153.328 90.1237C153.357 89.9648 153.386 89.8203 153.429 89.6614C153.964 89.6614 155.654 89.6614 156.145 89.6614C156.117 89.7336 156.073 89.9792 156.059 90.0659C155.929 90.716 155.914 91.3228 156.709 91.3228C157.287 91.3228 157.706 90.976 157.821 90.3837C158.226 88.3468 153.487 89.1991 154.224 85.5441Z" fill="white"/>
<path d="M23.1879 16.1934L154.616 16.1934L149.428 47.568L18 47.568L23.1879 16.1934Z" fill="#FF006F"/>
<path d="M29.1647 39.6045L32.6975 21.9408L42.3301 21.9408L41.6471 25.3087L36.4422 25.3087L35.665 29.1947L40.2811 29.1947L39.6452 32.3506H35.0291L34.2519 36.2366L39.4568 36.2366L38.7973 39.6045L29.1647 39.6045ZM46.597 21.9408L53.5212 21.9408L52.4378 39.6045L47.9394 39.6045L48.5282 34.8235H46.4557L45.1132 39.6045L40.6149 39.6045C41.9573 35.7185 45.2781 25.8032 46.597 21.9408ZM49.0935 25.3087L47.2564 31.6676L48.9757 31.6676L49.6822 25.3087L49.0935 25.3087ZM54.3355 39.6045L57.8683 21.9408L63.7562 21.9408C67.7599 21.9408 69.385 23.4952 68.6078 27.4048C68.0661 30.0661 66.9827 31.7147 65.0515 32.4684L65.9936 39.6045H61.7778L60.93 33.0571C60.8358 33.0807 60.718 33.0807 60.6474 33.0807H60.0586L58.7397 39.6045L54.3355 39.6045ZM60.718 29.6893H62.1311C63.0967 29.6893 63.7091 29.1711 63.8975 28.5352C64.0388 27.8522 64.2037 27.1457 64.2979 26.4862C64.3685 25.8739 64.0623 25.3558 63.1674 25.3087C63.1203 25.3087 63.0967 25.3087 63.0496 25.3087L61.613 25.3087L60.718 29.6893ZM68.1859 39.6045L71.7186 21.9408L76.1228 21.9408L73.273 36.2366L78.478 36.2366L77.8185 39.6045L68.1859 39.6045ZM79.4675 21.9408L84.0836 21.9408L84.3427 29.3595L87.5692 21.9408L92.1854 21.9408L85.5909 34.117L84.5075 39.6045L80.0798 39.6045L81.1868 34.117L79.4675 21.9408ZM101.103 21.9408L106.967 21.9408C110.688 21.9408 112.573 23.4952 111.913 26.8866C111.56 28.5117 111.089 30.2309 109.723 30.6549L109.676 30.8668C110.9 31.3614 110.665 33.0336 110.335 34.6587C109.652 38.1443 107.132 39.6045 103.435 39.6045L97.5702 39.6045L101.103 21.9408ZM104.118 29.0063L105.79 29.0063C106.59 29.0063 107.062 28.5352 107.203 28.0406C107.321 27.7109 107.533 26.6982 107.533 26.392C107.58 25.8268 107.226 25.3087 106.284 25.3087L104.848 25.3087L104.118 29.0063ZM102.657 36.2366H104.094C104.848 36.2366 105.601 35.8598 105.813 35.059C105.907 34.6822 106.19 33.4104 106.237 33.01C106.331 32.327 105.837 31.9502 105.201 31.9502L103.529 31.9502L102.657 36.2366ZM111.421 39.6045L114.954 21.9408L119.382 21.9408L115.849 39.6045L111.421 39.6045ZM118.141 39.6045L121.674 21.9408L127.562 21.9408C131.566 21.9408 133.191 23.4952 132.413 27.4048C131.872 30.0661 130.788 31.7147 128.857 32.4684L129.799 39.6045L125.583 39.6045L124.736 33.0571C124.641 33.0807 124.524 33.0807 124.453 33.0807H123.864L122.545 39.6045L118.141 39.6045ZM124.524 29.6893H125.937C126.902 29.6893 127.515 29.1711 127.703 28.5352C127.844 27.8522 128.009 27.1457 128.103 26.4862C128.174 25.8739 127.868 25.3558 126.973 25.3087C126.926 25.3087 126.902 25.3087 126.855 25.3087L125.419 25.3087L124.524 29.6893ZM131.921 39.6045L135.454 21.9408C136.137 21.9408 140.683 21.9408 141.318 21.9408C144.922 21.9408 146.877 23.3303 146.194 26.7924C145.887 28.3468 144.945 33.0571 144.616 34.7529C143.909 38.2149 141.389 39.6045 137.786 39.6045C136.585 39.6045 133.005 39.6045 131.921 39.6045ZM138.445 36.2366C139.434 36.2366 140.023 35.6478 140.141 34.9884L141.837 26.5569C141.954 25.8975 141.625 25.3087 140.635 25.3087C140.329 25.3087 139.434 25.3087 139.199 25.3087L137.009 36.2366C137.244 36.2366 138.139 36.2366 138.445 36.2366Z" fill="white"/>
<path d="M53.0141 44.3692L134.321 43.1318L129.133 74.5065L47.8262 75.7439L53.0141 44.3692Z" fill="#FFDC00"/>
<path d="M61.5335 54.7327C62.2165 51.2706 64.7365 49.881 68.3635 49.881C71.9669 49.881 73.9217 51.2706 73.2387 54.7327L71.5665 63.1642C70.8599 66.6262 68.3399 68.0158 64.7365 68.0158C61.1096 68.0158 59.1548 66.6262 59.8378 63.1642L61.5335 54.7327ZM64.2184 63.3997C64.0771 64.0591 64.4304 64.6479 65.396 64.6479C66.3851 64.6479 66.9739 64.0591 67.0917 63.3997L68.8816 54.4972C68.9994 53.8377 68.6696 53.2489 67.6805 53.2489C66.6913 53.2489 66.1261 53.8377 65.9848 54.4972L64.2184 63.3997ZM72.8173 67.7803L76.35 50.1166L85.9827 50.1166L85.2997 53.4844L80.0948 53.4844L79.3176 57.3705L83.9337 57.3705L83.2978 60.5264L78.6817 60.5264L77.2215 67.7803H72.8173ZM84.5287 67.7803L88.0615 50.1166L97.6941 50.1166L97.0111 53.4844L91.8062 53.4844L91.029 57.3705H95.6451L95.0092 60.5264L90.3931 60.5264L88.9329 67.7803L84.5287 67.7803ZM96.2401 67.7803L99.7729 50.1166L109.405 50.1166L108.722 53.4844L103.518 53.4844L102.74 57.3705L107.356 57.3705L106.721 60.5264L102.104 60.5264L101.327 64.4124L106.532 64.4124L105.873 67.7803L96.2401 67.7803ZM107.975 67.7803L111.507 50.1166L117.395 50.1166C121.399 50.1166 123.024 51.671 122.247 55.5805C121.705 58.2419 120.622 59.8905 118.691 60.6441L119.633 67.7803L115.417 67.7803L114.569 61.2329C114.475 61.2565 114.357 61.2565 114.286 61.2565H113.698L112.379 67.7803H107.975ZM114.357 57.865H115.77C116.736 57.865 117.348 57.3469 117.536 56.711C117.678 56.028 117.843 55.3215 117.937 54.662C118.008 54.0497 117.701 53.5315 116.806 53.4844C116.759 53.4844 116.736 53.4844 116.689 53.4844H115.252L114.357 57.865Z" fill="black"/>
<mask id="path-7-outside-1_6655_54971" maskUnits="userSpaceOnUse" x="191" y="12" width="32" height="7" fill="black">
<rect fill="white" x="191" y="12" width="32" height="7"/>
<path d="M194.806 12.6123C195.284 12.6123 195.671 12.6736 195.967 12.7961C196.267 12.9186 196.504 13.1079 196.677 13.3641C196.788 13.5367 196.874 13.7316 196.936 13.9488C196.997 14.166 197.027 14.4166 197.027 14.7006C197.027 14.9456 197.005 15.1906 196.961 15.4356C196.916 15.6807 196.852 15.9173 196.768 16.1456C196.691 16.3684 196.593 16.58 196.476 16.7805C196.365 16.9754 196.239 17.148 196.1 17.2983C195.839 17.5824 195.535 17.7828 195.19 17.8998C194.85 18.0111 194.43 18.0668 193.928 18.0668C193.444 18.0668 193.054 18.0167 192.759 17.9165C192.464 17.8162 192.23 17.6547 192.057 17.432C191.935 17.2761 191.837 17.0784 191.765 16.8389C191.698 16.5995 191.665 16.2988 191.665 15.9368C191.665 15.3187 191.773 14.7674 191.991 14.2829C192.213 13.7929 192.528 13.4059 192.934 13.1219C193.179 12.9492 193.452 12.8212 193.753 12.7376C194.054 12.6541 194.405 12.6123 194.806 12.6123ZM193.862 17.4821C193.99 17.4821 194.109 17.4264 194.221 17.3151C194.338 17.1981 194.444 17.045 194.538 16.8556C194.638 16.6607 194.728 16.4408 194.806 16.1958C194.889 15.9507 194.959 15.6974 195.014 15.4356C195.07 15.1739 195.112 14.915 195.14 14.6588C195.173 14.3971 195.19 14.1604 195.19 13.9488C195.19 13.6592 195.159 13.4616 195.098 13.3557C195.042 13.2444 194.959 13.1887 194.847 13.1887C194.719 13.1887 194.597 13.2444 194.48 13.3557C194.363 13.4671 194.251 13.6175 194.146 13.8068C194.045 13.9906 193.954 14.205 193.87 14.45C193.792 14.6894 193.722 14.9372 193.661 15.1934C193.605 15.4496 193.561 15.7029 193.528 15.9535C193.5 16.2041 193.486 16.4352 193.486 16.6468C193.486 16.9642 193.519 17.1842 193.586 17.3067C193.658 17.4236 193.75 17.4821 193.862 17.4821ZM198.218 12.6959L201.735 12.6959L201.601 13.3307L199.889 13.3307L199.563 14.8593L200.992 14.8593L200.858 15.5025L199.43 15.5025L198.895 18L197.091 18L198.218 12.6959ZM202.321 12.6959L205.838 12.6959L205.704 13.3307L203.992 13.3307L203.666 14.8593L205.095 14.8593L204.961 15.5025L203.533 15.5025L202.998 18L201.194 18L202.321 12.6959ZM206.424 12.6959L208.237 12.6959L207.251 17.2983H208.947L208.805 18L205.297 18L206.424 12.6959ZM211.131 18L209.326 18L210.454 12.6959L212.267 12.6959L211.131 18ZM216.503 18L214.549 18L213.621 14.166L212.803 18H212.051L213.179 12.6959L215.175 12.6959L216.052 16.58L216.879 12.6959H217.647L216.503 18ZM218.554 12.6959L222.071 12.6959L221.937 13.3307L220.233 13.3307L219.882 14.9428L221.311 14.9428L221.177 15.5693L219.749 15.5693L219.364 17.3568L221.068 17.3568L220.943 18L217.427 18L218.554 12.6959Z"/>
</mask>
<path d="M194.806 12.6123C195.284 12.6123 195.671 12.6736 195.967 12.7961C196.267 12.9186 196.504 13.1079 196.677 13.3641C196.788 13.5367 196.874 13.7316 196.936 13.9488C196.997 14.166 197.027 14.4166 197.027 14.7006C197.027 14.9456 197.005 15.1906 196.961 15.4356C196.916 15.6807 196.852 15.9173 196.768 16.1456C196.691 16.3684 196.593 16.58 196.476 16.7805C196.365 16.9754 196.239 17.148 196.1 17.2983C195.839 17.5824 195.535 17.7828 195.19 17.8998C194.85 18.0111 194.43 18.0668 193.928 18.0668C193.444 18.0668 193.054 18.0167 192.759 17.9165C192.464 17.8162 192.23 17.6547 192.057 17.432C191.935 17.2761 191.837 17.0784 191.765 16.8389C191.698 16.5995 191.665 16.2988 191.665 15.9368C191.665 15.3187 191.773 14.7674 191.991 14.2829C192.213 13.7929 192.528 13.4059 192.934 13.1219C193.179 12.9492 193.452 12.8212 193.753 12.7376C194.054 12.6541 194.405 12.6123 194.806 12.6123ZM193.862 17.4821C193.99 17.4821 194.109 17.4264 194.221 17.3151C194.338 17.1981 194.444 17.045 194.538 16.8556C194.638 16.6607 194.728 16.4408 194.806 16.1958C194.889 15.9507 194.959 15.6974 195.014 15.4356C195.07 15.1739 195.112 14.915 195.14 14.6588C195.173 14.3971 195.19 14.1604 195.19 13.9488C195.19 13.6592 195.159 13.4616 195.098 13.3557C195.042 13.2444 194.959 13.1887 194.847 13.1887C194.719 13.1887 194.597 13.2444 194.48 13.3557C194.363 13.4671 194.251 13.6175 194.146 13.8068C194.045 13.9906 193.954 14.205 193.87 14.45C193.792 14.6894 193.722 14.9372 193.661 15.1934C193.605 15.4496 193.561 15.7029 193.528 15.9535C193.5 16.2041 193.486 16.4352 193.486 16.6468C193.486 16.9642 193.519 17.1842 193.586 17.3067C193.658 17.4236 193.75 17.4821 193.862 17.4821ZM198.218 12.6959L201.735 12.6959L201.601 13.3307L199.889 13.3307L199.563 14.8593L200.992 14.8593L200.858 15.5025L199.43 15.5025L198.895 18L197.091 18L198.218 12.6959ZM202.321 12.6959L205.838 12.6959L205.704 13.3307L203.992 13.3307L203.666 14.8593L205.095 14.8593L204.961 15.5025L203.533 15.5025L202.998 18L201.194 18L202.321 12.6959ZM206.424 12.6959L208.237 12.6959L207.251 17.2983H208.947L208.805 18L205.297 18L206.424 12.6959ZM211.131 18L209.326 18L210.454 12.6959L212.267 12.6959L211.131 18ZM216.503 18L214.549 18L213.621 14.166L212.803 18H212.051L213.179 12.6959L215.175 12.6959L216.052 16.58L216.879 12.6959H217.647L216.503 18ZM218.554 12.6959L222.071 12.6959L221.937 13.3307L220.233 13.3307L219.882 14.9428L221.311 14.9428L221.177 15.5693L219.749 15.5693L219.364 17.3568L221.068 17.3568L220.943 18L217.427 18L218.554 12.6959Z" fill="white"/>
<path d="M195.967 12.7961L195.786 13.2308L195.789 13.2319L195.967 12.7961ZM196.677 13.3641L197.072 13.1089L197.067 13.1011L196.677 13.3641ZM196.936 13.9488L196.483 14.0766V14.0766L196.936 13.9488ZM196.768 16.1456L196.326 15.9839L196.324 15.9902L196.768 16.1456ZM196.476 16.7805L196.07 16.5433L196.068 16.547L196.476 16.7805ZM196.1 17.2984L195.755 16.9786L195.754 16.9794L196.1 17.2984ZM195.19 17.8998L195.336 18.347L195.341 18.3455L195.19 17.8998ZM192.759 17.9165L192.91 17.4708L192.759 17.9165ZM192.057 17.432L192.429 17.1437L192.427 17.1412L192.057 17.432ZM191.765 16.8389L191.312 16.9655L191.315 16.9751L191.765 16.8389ZM191.991 14.2829L191.562 14.0882L191.561 14.0904L191.991 14.2829ZM192.934 13.1219L193.204 13.5077L193.206 13.5066L192.934 13.1219ZM193.753 12.7376L193.627 12.2842L193.627 12.2842L193.753 12.7376ZM194.221 17.3151L194.554 17.6478L194.554 17.6478L194.221 17.3151ZM194.538 16.8556L194.12 16.6404L194.117 16.6452L194.538 16.8556ZM194.806 16.1958L194.36 16.0439L194.357 16.0531L194.806 16.1958ZM195.14 14.6588L194.673 14.5992L194.672 14.608L195.14 14.6588ZM195.098 13.3557L194.677 13.5662L194.683 13.5791L194.691 13.5916L195.098 13.3557ZM194.48 13.3557L194.155 13.0149L194.155 13.0149L194.48 13.3557ZM194.146 13.8068L193.735 13.5772L193.732 13.5814L194.146 13.8068ZM193.87 14.45L193.425 14.2981L193.422 14.3043L193.87 14.45ZM193.661 15.1934L193.203 15.0839L193.201 15.0934L193.661 15.1934ZM193.528 15.9535L193.061 15.8913L193.06 15.9015L193.528 15.9535ZM193.586 17.3067L193.173 17.5321L193.179 17.5434L193.186 17.5544L193.586 17.3067ZM194.806 13.083C195.25 13.083 195.569 13.1408 195.786 13.2308L196.147 12.3614C195.774 12.2064 195.318 12.1417 194.806 12.1417V13.083ZM195.789 13.2319C196.008 13.3211 196.169 13.4525 196.286 13.6271L197.067 13.1011C196.839 12.7634 196.527 12.5161 196.144 12.3602L195.789 13.2319ZM196.281 13.6192C196.365 13.7488 196.433 13.9001 196.483 14.0766L197.389 13.821C197.316 13.5632 197.211 13.3246 197.072 13.109L196.281 13.6192ZM196.483 14.0766C196.53 14.2431 196.557 14.4492 196.557 14.7006L197.498 14.7006C197.498 14.384 197.464 14.0889 197.389 13.821L196.483 14.0766ZM196.557 14.7006C196.557 14.9169 196.537 15.1337 196.498 15.3514L197.424 15.5198C197.473 15.2475 197.498 14.9743 197.498 14.7006L196.557 14.7006ZM196.498 15.3514C196.458 15.5707 196.401 15.7814 196.327 15.9839L197.21 16.3073C197.303 16.0532 197.374 15.7906 197.424 15.5198L196.498 15.3514ZM196.324 15.9902C196.256 16.185 196.171 16.3692 196.07 16.5433L196.883 17.0176C197.015 16.7907 197.125 16.5517 197.213 16.3011L196.324 15.9902ZM196.068 16.547C195.972 16.7137 195.868 16.8569 195.755 16.9786L196.446 17.6181C196.611 17.4391 196.757 17.237 196.885 17.014L196.068 16.547ZM195.754 16.9794C195.543 17.209 195.305 17.3638 195.039 17.454L195.341 18.3455C195.765 18.2018 196.135 17.9557 196.446 17.6173L195.754 16.9794ZM195.043 17.4526C194.766 17.5436 194.398 17.5962 193.928 17.5962V18.5375C194.461 18.5375 194.935 18.4787 195.336 18.347L195.043 17.4526ZM193.928 17.5962C193.47 17.5962 193.138 17.548 192.91 17.4708L192.608 18.3621C192.971 18.4854 193.418 18.5375 193.928 18.5375V17.5962ZM192.91 17.4708C192.693 17.397 192.54 17.2859 192.429 17.1437L191.685 17.7203C191.921 18.0236 192.235 18.2355 192.608 18.3621L192.91 17.4708ZM192.427 17.1412C192.349 17.0417 192.275 16.9002 192.216 16.7027L191.315 16.9751C191.4 17.2566 191.521 17.5105 191.687 17.7228L192.427 17.1412ZM192.218 16.7124C192.167 16.5282 192.135 16.2736 192.135 15.9368L191.194 15.9368C191.194 16.3239 191.23 16.6707 191.312 16.9654L192.218 16.7124ZM192.135 15.9368C192.135 15.3742 192.234 14.8902 192.42 14.4754L191.561 14.0904C191.313 14.6446 191.194 15.2631 191.194 15.9368L192.135 15.9368ZM192.419 14.4777C192.61 14.0576 192.872 13.7393 193.204 13.5077L192.665 12.7361C192.183 13.0725 191.817 13.5281 191.562 14.0882L192.419 14.4777ZM193.206 13.5066C193.405 13.3663 193.628 13.2608 193.879 13.1911L193.627 12.2842C193.277 12.3815 192.954 12.5322 192.663 12.7371L193.206 13.5066ZM193.879 13.1911C194.129 13.1217 194.436 13.083 194.806 13.083V12.1417C194.373 12.1417 193.979 12.1865 193.627 12.2842L193.879 13.1911ZM193.862 17.9528C194.142 17.9528 194.376 17.8259 194.554 17.6478L193.888 16.9823C193.864 17.0063 193.85 17.013 193.849 17.0136C193.848 17.0139 193.85 17.0132 193.853 17.0125C193.856 17.0118 193.859 17.0115 193.862 17.0115V17.9528ZM194.554 17.6478C194.715 17.4867 194.848 17.2887 194.959 17.0661L194.117 16.6452C194.039 16.8013 193.961 16.9095 193.888 16.9823L194.554 17.6478ZM194.957 17.0709C195.071 16.8491 195.169 16.6043 195.254 16.3385L194.357 16.0531C194.286 16.2773 194.206 16.4724 194.12 16.6404L194.957 17.0709ZM195.251 16.3476C195.341 16.0844 195.415 15.8129 195.475 15.5336L194.554 15.3377C194.502 15.5818 194.437 15.8171 194.36 16.0439L195.251 16.3476ZM195.475 15.5336C195.534 15.2569 195.578 14.9822 195.608 14.7097L194.672 14.608C194.646 14.8477 194.607 15.0909 194.554 15.3377L195.475 15.5336ZM195.607 14.7184C195.642 14.4415 195.66 14.1845 195.66 13.9488L194.719 13.9488C194.719 14.1363 194.704 14.3527 194.673 14.5992L195.607 14.7184ZM195.66 13.9488C195.66 13.7896 195.652 13.6419 195.632 13.5113C195.613 13.3868 195.578 13.2454 195.505 13.1199L194.691 13.5916C194.679 13.5719 194.69 13.5823 194.702 13.6554C194.712 13.7225 194.719 13.8185 194.719 13.9488L195.66 13.9488ZM195.519 13.1453C195.463 13.0338 195.379 12.9218 195.255 12.8389C195.127 12.7539 194.985 12.7181 194.847 12.7181V13.6593C194.821 13.6593 194.776 13.6513 194.732 13.622C194.691 13.5947 194.677 13.5664 194.677 13.5662L195.519 13.1453ZM194.847 12.7181C194.569 12.7181 194.336 12.843 194.155 13.0149L194.804 13.6966C194.832 13.6701 194.849 13.6611 194.854 13.6589C194.857 13.6574 194.854 13.6593 194.847 13.6593V12.7181ZM194.155 13.0149C193.995 13.1678 193.856 13.3599 193.735 13.5772L194.556 14.0364C194.647 13.8751 194.731 13.7664 194.804 13.6966L194.155 13.0149ZM193.732 13.5814C193.617 13.7935 193.515 14.0334 193.425 14.2981L194.315 14.6018C194.392 14.3765 194.474 14.1877 194.559 14.0322L193.732 13.5814ZM193.422 14.3043C193.34 14.5562 193.267 14.8161 193.203 15.0839L194.119 15.3029C194.177 15.0584 194.244 14.8227 194.318 14.5957L193.422 14.3043ZM193.201 15.0934C193.143 15.3616 193.096 15.6276 193.061 15.8913L193.994 16.0157C194.026 15.7783 194.068 15.5375 194.121 15.2934L193.201 15.0934ZM193.06 15.9015C193.03 16.1662 193.015 16.4149 193.015 16.6468H193.956C193.956 16.4555 193.969 16.242 193.995 16.0055L193.06 15.9015ZM193.015 16.6468C193.015 16.9666 193.044 17.2952 193.173 17.5321L193.999 17.0813C194.003 17.0882 193.989 17.0632 193.976 16.9792C193.964 16.9001 193.956 16.791 193.956 16.6468H193.015ZM193.186 17.5544C193.321 17.7724 193.548 17.9528 193.862 17.9528V17.0115C193.875 17.0115 193.893 17.0134 193.912 17.0189C193.931 17.0244 193.948 17.0324 193.962 17.0412C193.989 17.0587 193.995 17.0726 193.986 17.059L193.186 17.5544ZM198.218 12.6959V12.2252H197.837L197.758 12.598L198.218 12.6959ZM201.735 12.6959L202.195 12.7928L202.315 12.2252L201.735 12.2252V12.6959ZM201.601 13.3307V13.8013H201.983L202.062 13.4276L201.601 13.3307ZM199.889 13.3307V12.8601H199.508L199.429 13.2326L199.889 13.3307ZM199.563 14.8593L199.103 14.7612L198.982 15.3299L199.563 15.3299V14.8593ZM200.992 14.8593L201.452 14.955L201.57 14.3886L200.992 14.3886V14.8593ZM200.858 15.5025V15.9731L201.241 15.9731L201.319 15.5982L200.858 15.5025ZM199.43 15.5025V15.0318H199.049L198.969 15.404L199.43 15.5025ZM198.895 18V18.4706H199.275L199.355 18.0985L198.895 18ZM197.091 18L196.63 17.9021L196.509 18.4706L197.091 18.4706V18ZM198.218 13.1665L201.735 13.1665V12.2252L198.218 12.2252V13.1665ZM201.274 12.5989L201.141 13.2337L202.062 13.4276L202.195 12.7928L201.274 12.5989ZM201.601 12.8601L199.889 12.8601V13.8013L201.601 13.8013V12.8601ZM199.429 13.2326L199.103 14.7612L200.023 14.9574L200.349 13.4288L199.429 13.2326ZM199.563 15.3299L200.992 15.3299V14.3886L199.563 14.3886V15.3299ZM200.531 14.7635L200.397 15.4067L201.319 15.5982L201.452 14.955L200.531 14.7635ZM200.858 15.0318L199.43 15.0318V15.9731L200.858 15.9731V15.0318ZM198.969 15.404L198.435 17.9015L199.355 18.0985L199.89 15.601L198.969 15.404ZM198.895 17.5294L197.091 17.5294V18.4706L198.895 18.4706V17.5294ZM197.551 18.0979L198.679 12.7937L197.758 12.598L196.63 17.9021L197.551 18.0979ZM202.321 12.6959V12.2252H201.94L201.861 12.598L202.321 12.6959ZM205.838 12.6959L206.299 12.7928L206.418 12.2252L205.838 12.2252V12.6959ZM205.704 13.3307V13.8013H206.086L206.165 13.4276L205.704 13.3307ZM203.992 13.3307V12.8601H203.611L203.532 13.2326L203.992 13.3307ZM203.666 14.8593L203.206 14.7612L203.085 15.3299L203.666 15.3299V14.8593ZM205.095 14.8593L205.555 14.955L205.673 14.3886L205.095 14.3886V14.8593ZM204.961 15.5025V15.9731H205.344L205.422 15.5982L204.961 15.5025ZM203.533 15.5025V15.0318L203.152 15.0318L203.072 15.404L203.533 15.5025ZM202.998 18V18.4706H203.379L203.458 18.0985L202.998 18ZM201.194 18L200.733 17.9021L200.613 18.4706L201.194 18.4706V18ZM202.321 13.1665L205.838 13.1665V12.2252L202.321 12.2252V13.1665ZM205.377 12.5989L205.244 13.2337L206.165 13.4276L206.299 12.7928L205.377 12.5989ZM205.704 12.8601L203.992 12.8601V13.8013L205.704 13.8013V12.8601ZM203.532 13.2326L203.206 14.7612L204.127 14.9574L204.452 13.4288L203.532 13.2326ZM203.666 15.3299L205.095 15.3299V14.3886L203.666 14.3886V15.3299ZM204.634 14.7635L204.5 15.4067L205.422 15.5982L205.555 14.955L204.634 14.7635ZM204.961 15.0318L203.533 15.0318V15.9731L204.961 15.9731V15.0318ZM203.072 15.404L202.538 17.9015L203.458 18.0985L203.993 15.601L203.072 15.404ZM202.998 17.5294L201.194 17.5294V18.4706L202.998 18.4706V17.5294ZM201.654 18.0979L202.782 12.7937L201.861 12.598L200.733 17.9021L201.654 18.0979ZM206.424 12.6959V12.2252L206.043 12.2252L205.964 12.598L206.424 12.6959ZM208.237 12.6959L208.697 12.7944L208.819 12.2252L208.237 12.2252V12.6959ZM207.251 17.2984L206.791 17.1998L206.669 17.769L207.251 17.769V17.2984ZM208.947 17.2984L209.408 17.3917L209.522 16.8277H208.947V17.2984ZM208.805 18V18.4706H209.19L209.266 18.0934L208.805 18ZM205.297 18L204.836 17.9021L204.716 18.4706H205.297V18ZM206.424 13.1665L208.237 13.1665V12.2252L206.424 12.2252V13.1665ZM207.777 12.5973L206.791 17.1998L207.712 17.3969L208.697 12.7944L207.777 12.5973ZM207.251 17.769H208.947V16.8277H207.251V17.769ZM208.486 17.205L208.344 17.9066L209.266 18.0934L209.408 17.3917L208.486 17.205ZM208.805 17.5294L205.297 17.5294V18.4706L208.805 18.4706V17.5294ZM205.757 18.0979L206.885 12.7937L205.964 12.598L204.836 17.9021L205.757 18.0979ZM211.131 18V18.4706L211.511 18.4706L211.591 18.0986L211.131 18ZM209.326 18L208.866 17.9021L208.745 18.4706H209.326V18ZM210.454 12.6959V12.2252H210.073L209.994 12.598L210.454 12.6959ZM212.267 12.6959L212.727 12.7944L212.849 12.2252L212.267 12.2252V12.6959ZM211.131 17.5294L209.326 17.5294V18.4706L211.131 18.4706V17.5294ZM209.787 18.0979L210.914 12.7937L209.994 12.598L208.866 17.9021L209.787 18.0979ZM210.454 13.1665L212.267 13.1665V12.2252L210.454 12.2252V13.1665ZM211.807 12.5973L210.671 17.9014L211.591 18.0986L212.727 12.7944L211.807 12.5973ZM216.503 18V18.4706H216.883L216.963 18.0993L216.503 18ZM214.549 18L214.091 18.1106L214.178 18.4706H214.549V18ZM213.621 14.166L214.079 14.0554L213.161 14.0677L213.621 14.166ZM212.803 18V18.4706H213.184L213.263 18.0983L212.803 18ZM212.051 18L211.591 17.9021L211.47 18.4706H212.051V18ZM213.179 12.6959V12.2252H212.798L212.718 12.598L213.179 12.6959ZM215.175 12.6959L215.634 12.5922L215.551 12.2252H215.175V12.6959ZM216.052 16.58L215.593 16.6837L216.512 16.678L216.052 16.58ZM216.879 12.6959V12.2252H216.498L216.419 12.5979L216.879 12.6959ZM217.647 12.6959L218.108 12.7951L218.23 12.2252L217.647 12.2252V12.6959ZM216.503 17.5294L214.549 17.5294V18.4706L216.503 18.4706V17.5294ZM215.006 17.8894L214.079 14.0554L213.164 14.2766L214.091 18.1106L215.006 17.8894ZM213.161 14.0677L212.342 17.9017L213.263 18.0983L214.082 14.2643L213.161 14.0677ZM212.803 17.5294H212.051V18.4706H212.803V17.5294ZM212.511 18.0979L213.639 12.7937L212.718 12.598L211.591 17.9021L212.511 18.0979ZM213.179 13.1665L215.175 13.1665V12.2252L213.179 12.2252V13.1665ZM214.716 12.7995L215.593 16.6837L216.511 16.4763L215.634 12.5922L214.716 12.7995ZM216.512 16.678L217.339 12.7939L216.419 12.5979L215.592 16.482L216.512 16.678ZM216.879 13.1665L217.647 13.1665V12.2252L216.879 12.2252V13.1665ZM217.187 12.5966L216.043 17.9007L216.963 18.0993L218.108 12.7951L217.187 12.5966ZM218.554 12.6959V12.2252H218.173L218.094 12.598L218.554 12.6959ZM222.071 12.6959L222.531 12.7928L222.651 12.2252L222.071 12.2252V12.6959ZM221.937 13.3307V13.8013H222.319L222.398 13.4276L221.937 13.3307ZM220.233 13.3307V12.8601H219.854L219.773 13.2306L220.233 13.3307ZM219.882 14.9428L219.422 14.8427L219.298 15.4134L219.882 15.4134V14.9428ZM221.311 14.9428L221.771 15.041L221.892 14.4722H221.311V14.9428ZM221.177 15.5693V16.0399H221.558L221.637 15.6675L221.177 15.5693ZM219.749 15.5693V15.0986H219.368L219.289 15.4704L219.749 15.5693ZM219.364 17.3568L218.904 17.2579L218.782 17.8275H219.364V17.3568ZM221.068 17.3568L221.53 17.4468L221.64 16.8862H221.068V17.3568ZM220.943 18V18.4706H221.331L221.405 18.09L220.943 18ZM217.427 18L216.966 17.9021L216.845 18.4706H217.427V18ZM218.554 13.1665L222.071 13.1665V12.2252L218.554 12.2252V13.1665ZM221.61 12.5989L221.477 13.2337L222.398 13.4276L222.531 12.7928L221.61 12.5989ZM221.937 12.8601L220.233 12.8601V13.8013L221.937 13.8013V12.8601ZM219.773 13.2306L219.422 14.8427L220.342 15.0429L220.693 13.4308L219.773 13.2306ZM219.882 15.4134L221.311 15.4134V14.4722L219.882 14.4722V15.4134ZM220.85 14.8446L220.717 15.4711L221.637 15.6675L221.771 15.041L220.85 14.8446ZM221.177 15.0986L219.749 15.0986V16.0399L221.177 16.0399V15.0986ZM219.289 15.4704L218.904 17.2579L219.825 17.4557L220.209 15.6682L219.289 15.4704ZM219.364 17.8275L221.068 17.8275V16.8862L219.364 16.8862V17.8275ZM220.607 17.2668L220.481 17.91L221.405 18.09L221.53 17.4468L220.607 17.2668ZM220.943 17.5294L217.427 17.5294V18.4706L220.943 18.4706V17.5294ZM217.887 18.0979L219.015 12.7937L218.094 12.598L216.966 17.9021L217.887 18.0979Z" fill="black" mask="url(#path-7-outside-1_6655_54971)"/>
<rect width="99" height="34.2973" transform="translate(191 24.8379)" fill="#FFDC00"/>
<path d="M209.29 49.0693L205.683 43.6996V41.9204H207.777C208.273 41.9204 208.621 41.8207 208.821 41.6212C209.02 41.4164 209.144 41.1091 209.193 40.6993L205.683 40.6993V39.2437L209.193 39.2437C209.144 38.8231 209.02 38.5158 208.821 38.3217C208.621 38.1223 208.273 38.0225 207.777 38.0225H205.683V36.2434L212.047 36.2434V38.0225H211.02C211.139 38.3676 211.22 38.7746 211.263 39.2437H212.047V40.6993H211.271C211.19 41.632 210.899 42.3652 210.398 42.899C209.896 43.4327 209.128 43.6996 208.093 43.6996H208.044L211.635 49.0693L209.29 49.0693ZM215.638 49.0693V37.5353C215.434 37.7791 215.153 37.9776 214.796 38.1307C214.439 38.2781 214.101 38.3518 213.784 38.3518V35.9617C214.084 35.9163 214.408 35.8199 214.754 35.6725C215.099 35.5194 215.42 35.3124 215.715 35.0515C216.015 34.785 216.245 34.4646 216.404 34.0904L218.811 34.0904L218.811 49.0693L215.638 49.0693ZM224.165 49.282C223.014 49.282 222.072 48.9985 221.341 48.4314C220.615 47.8587 220.252 46.9825 220.252 45.8031L220.252 43.5745L223.365 43.5745V44.8589C223.365 45.1254 223.38 45.3834 223.408 45.6329C223.442 45.8824 223.516 46.0866 223.629 46.2454C223.742 46.4041 223.921 46.4835 224.165 46.4835C224.488 46.4835 224.701 46.3758 224.803 46.1603C224.905 45.9391 224.956 45.6585 224.956 45.3182V42.3752C224.956 42.1313 224.939 41.8903 224.905 41.6522C224.877 41.414 224.809 41.2155 224.701 41.0567C224.593 40.898 224.42 40.8186 224.182 40.8186C223.615 40.8186 223.331 41.2297 223.331 42.0519H220.584L220.584 34.0904L227.72 34.0904V36.8973L223.425 36.8973V39.0068C223.572 38.8253 223.771 38.6666 224.02 38.5305C224.275 38.3887 224.573 38.3178 224.913 38.3178C225.594 38.3178 226.147 38.4482 226.572 38.7091C227.003 38.9699 227.332 39.3329 227.559 39.7979C227.791 40.2628 227.95 40.8016 228.035 41.414C228.126 42.0264 228.171 42.6842 228.171 43.3874C228.171 44.289 228.123 45.1027 228.027 45.8286C227.936 46.5487 227.752 47.1668 227.474 47.6829C227.202 48.1989 226.799 48.5958 226.266 48.8737C225.739 49.1459 225.038 49.282 224.165 49.282ZM229.978 51.0682L230.54 49.0608H229.459V46.5261L232.641 46.5261V48.9843L231.773 51.0682H229.978ZM237.935 49.2054C236.67 49.2054 235.692 48.851 235 48.1422C234.314 47.4334 233.971 46.4126 233.971 45.08V38.3263C233.971 36.92 234.297 35.8426 234.949 35.0941C235.607 34.3399 236.602 33.9628 237.935 33.9628C239.273 33.9628 240.268 34.3399 240.921 35.0941C241.573 35.8426 241.899 36.92 241.899 38.3263V45.08C241.899 46.4126 241.556 47.4334 240.87 48.1422C240.183 48.851 239.205 49.2054 237.935 49.2054ZM237.935 46.4495C238.168 46.4495 238.349 46.3446 238.479 46.1348C238.61 45.925 238.675 45.6896 238.675 45.4288V38.0371C238.675 37.6855 238.635 37.3793 238.556 37.1185C238.482 36.852 238.275 36.7187 237.935 36.7187C237.595 36.7187 237.385 36.852 237.306 37.1185C237.232 37.3793 237.195 37.6855 237.195 38.0371V45.4288C237.195 45.6896 237.26 45.925 237.391 46.1348C237.527 46.3446 237.708 46.4495 237.935 46.4495ZM247.066 49.2054C245.801 49.2054 244.823 48.851 244.131 48.1422C243.445 47.4334 243.102 46.4126 243.102 45.08V38.3263C243.102 36.92 243.428 35.8426 244.08 35.0941C244.738 34.3399 245.733 33.9628 247.066 33.9628C248.404 33.9628 249.399 34.3399 250.051 35.0941C250.703 35.8426 251.029 36.92 251.029 38.3263V45.08C251.029 46.4126 250.686 47.4334 250 48.1422C249.314 48.851 248.336 49.2054 247.066 49.2054ZM247.066 46.4495C247.298 46.4495 247.48 46.3446 247.61 46.1348C247.74 45.925 247.806 45.6896 247.806 45.4288V38.0371C247.806 37.6855 247.766 37.3793 247.687 37.1185C247.613 36.852 247.406 36.7187 247.066 36.7187C246.725 36.7187 246.516 36.852 246.436 37.1185C246.362 37.3793 246.326 37.6855 246.326 38.0371V45.4288C246.326 45.6896 246.391 45.925 246.521 46.1348C246.657 46.3446 246.839 46.4495 247.066 46.4495ZM256.196 49.2054C254.932 49.2054 253.954 48.851 253.262 48.1422C252.576 47.4334 252.232 46.4126 252.232 45.08V38.3263C252.232 36.92 252.559 35.8426 253.211 35.0941C253.868 34.3399 254.864 33.9628 256.196 33.9628C257.535 33.9628 258.53 34.3399 259.182 35.0941C259.834 35.8426 260.16 36.92 260.16 38.3263L260.16 45.08C260.16 46.4126 259.817 47.4334 259.131 48.1422C258.445 48.851 257.466 49.2054 256.196 49.2054ZM256.196 46.4495C256.429 46.4495 256.61 46.3446 256.741 46.1348C256.871 45.925 256.936 45.6896 256.936 45.4288V38.0371C256.936 37.6855 256.897 37.3793 256.817 37.1185C256.743 36.852 256.536 36.7187 256.196 36.7187C255.856 36.7187 255.646 36.852 255.567 37.1185C255.493 37.3793 255.456 37.6855 255.456 38.0371V45.4288C255.456 45.6896 255.521 45.925 255.652 46.1348C255.788 46.3446 255.969 46.4495 256.196 46.4495ZM261.965 47.9253V47.1348H261.175V46.253H261.965V45.4625H262.847V46.253H263.638V47.1348L262.847 47.1348V47.9253H261.965ZM267.757 49.1301C266.802 49.1301 266.324 48.446 266.324 47.0778V44.1931C266.324 42.9439 266.872 42.3193 267.966 42.3193C268.417 42.3193 268.763 42.4106 269.004 42.593C269.245 42.7729 269.411 43.0364 269.502 43.3835C269.593 43.7307 269.639 44.1538 269.639 44.6529L268.331 44.6529V44.06C268.331 43.9156 268.311 43.7953 268.27 43.699C268.232 43.6002 268.151 43.5508 268.027 43.5508C267.872 43.5508 267.77 43.6027 267.719 43.7066C267.671 43.8105 267.647 43.9245 267.647 44.0486V47.2906C267.647 47.4705 267.67 47.6175 267.715 47.7315C267.764 47.843 267.856 47.8987 267.993 47.8987C268.135 47.8987 268.228 47.843 268.274 47.7315C268.322 47.6175 268.346 47.468 268.346 47.283V46.329H267.989V45.1736L269.623 45.1736V49.0693H269.087L268.859 48.5068C268.626 48.9224 268.259 49.1301 267.757 49.1301ZM271.978 49.1301C271.367 49.1301 270.926 48.9781 270.655 48.6741C270.386 48.37 270.252 47.8861 270.252 47.2222V46.5685H271.575V47.4046C271.575 47.5592 271.598 47.6808 271.643 47.7695C271.691 47.8557 271.774 47.8987 271.89 47.8987C272.012 47.8987 272.095 47.8633 272.141 47.7923C272.189 47.7214 272.213 47.6048 272.213 47.4426C272.213 47.2374 272.193 47.0664 272.152 46.9296C272.112 46.7902 272.041 46.6584 271.94 46.5343C271.841 46.4076 271.703 46.2606 271.525 46.0934L270.925 45.5233C270.476 45.1002 270.252 44.6162 270.252 44.0714C270.252 43.5013 270.384 43.0668 270.647 42.7678C270.913 42.4688 271.297 42.3193 271.799 42.3193C272.412 42.3193 272.847 42.4828 273.103 42.8096C273.361 43.1365 273.49 43.6331 273.49 44.2995H272.13V43.8396C272.13 43.7484 272.103 43.6774 272.05 43.6268C271.999 43.5761 271.929 43.5508 271.841 43.5508C271.734 43.5508 271.656 43.5812 271.605 43.642C271.557 43.7002 271.533 43.7763 271.533 43.87C271.533 43.9638 271.558 44.0651 271.609 44.1741C271.66 44.283 271.76 44.4084 271.909 44.5503L272.681 45.2915C272.835 45.4384 272.977 45.5943 273.106 45.7589C273.236 45.9211 273.34 46.1111 273.418 46.329C273.497 46.5444 273.536 46.8079 273.536 47.1196C273.536 47.748 273.419 48.2408 273.186 48.5981C272.956 48.9528 272.553 49.1301 271.978 49.1301ZM274.792 49.0693V43.6648H273.997V42.3801L276.924 42.3801V43.6648H276.13V49.0693L274.792 49.0693Z" fill="black"/>
<path d="M211.626 34.9043L258.677 47.2235" stroke="#FB6514" stroke-width="1.45946"/>
<rect width="99" height="34.2973" transform="translate(191 59.1348)" fill="black"/>
<path d="M202.34 86.2832L197.254 78.7123V76.2038L200.207 76.2038C200.907 76.2038 201.397 76.0632 201.678 75.7819C201.959 75.4931 202.134 75.0598 202.203 74.4821H197.254V72.4297L202.203 72.4297C202.134 71.8368 201.959 71.4036 201.678 71.1299C201.397 70.8487 200.907 70.708 200.207 70.708L197.254 70.708V68.1996L206.228 68.1996V70.708H204.78C204.947 71.1945 205.061 71.7684 205.122 72.4297H206.228V74.4821L205.133 74.4821C205.019 75.7971 204.609 76.8309 203.902 77.5835C203.195 78.336 202.111 78.7123 200.652 78.7123H200.584L205.646 86.2832H202.34ZM208.703 73.2298V69.9139L210.781 68.7697H214.938L214.938 86.2832H210.571L210.571 72.7628L208.703 73.2298ZM226.21 81.5195V86.2832L221.843 86.2832V81.5195H216.472V78.3671L220.956 68.7697H226.21L226.21 78.3671H227.121V81.5195H226.21ZM221.843 78.3671V72.1089L219.064 78.3671H221.843ZM230.586 88.6417H228.578L229.932 86.2832H228.578V82.9206H231.94V86.2365L230.586 88.6417ZM233.566 73.3232C233.566 72.4981 233.699 71.7898 233.963 71.1982C234.244 70.5911 234.617 70.0929 235.084 69.7037C235.567 69.3146 236.135 69.0266 236.789 68.8397C237.443 68.6374 238.151 68.5362 238.914 68.5362C239.677 68.5362 240.385 68.6374 241.039 68.8397C241.693 69.0266 242.253 69.3146 242.72 69.7037C243.203 70.0929 243.576 70.5911 243.841 71.1982C244.106 71.7898 244.238 72.4981 244.238 73.3232L244.238 81.7297C244.238 82.5392 244.106 83.2475 243.841 83.8547C243.576 84.4618 243.203 84.96 242.72 85.3491C242.253 85.7383 241.693 86.0341 241.039 86.2365C240.385 86.4233 239.677 86.5167 238.914 86.5167C238.151 86.5167 237.443 86.4233 236.789 86.2365C236.135 86.0341 235.567 85.7383 235.084 85.3491C234.617 84.96 234.244 84.4618 233.963 83.8547C233.699 83.2475 233.566 82.5392 233.566 81.7297L233.566 73.3232ZM238.914 71.8754C238.603 71.8754 238.361 71.9688 238.19 72.1556C238.019 72.3424 237.933 72.5837 237.933 72.8795V82.1734C237.933 82.4691 238.019 82.7104 238.19 82.8973C238.361 83.0841 238.603 83.1775 238.914 83.1775C239.225 83.1775 239.459 83.0841 239.614 82.8973C239.786 82.7104 239.871 82.4691 239.871 82.1734V72.8795C239.871 72.5837 239.786 72.3424 239.614 72.1556C239.459 71.9688 239.225 71.8754 238.914 71.8754ZM245.874 73.3232C245.874 72.4981 246.007 71.7898 246.271 71.1982C246.551 70.5911 246.925 70.0929 247.392 69.7037C247.875 69.3146 248.443 69.0266 249.097 68.8397C249.751 68.6374 250.459 68.5362 251.222 68.5362C251.985 68.5362 252.693 68.6374 253.347 68.8397C254.001 69.0266 254.561 69.3146 255.028 69.7037C255.511 70.0929 255.884 70.5911 256.149 71.1982C256.414 71.7898 256.546 72.4981 256.546 73.3232L256.546 81.7297C256.546 82.5392 256.414 83.2475 256.149 83.8547C255.884 84.4618 255.511 84.96 255.028 85.3491C254.561 85.7383 254.001 86.0341 253.347 86.2365C252.693 86.4233 251.985 86.5167 251.222 86.5167C250.459 86.5167 249.751 86.4233 249.097 86.2365C248.443 86.0341 247.875 85.7383 247.392 85.3491C246.925 84.96 246.551 84.4618 246.271 83.8547C246.007 83.2475 245.874 82.5392 245.874 81.7297L245.874 73.3232ZM251.222 71.8754C250.91 71.8754 250.669 71.9688 250.498 72.1556C250.327 72.3424 250.241 72.5837 250.241 72.8795V82.1734C250.241 82.4691 250.327 82.7104 250.498 82.8973C250.669 83.0841 250.91 83.1775 251.222 83.1775C251.533 83.1775 251.767 83.0841 251.922 82.8973C252.094 82.7104 252.179 82.4691 252.179 82.1734V72.8795C252.179 72.5837 252.094 72.3424 251.922 72.1556C251.767 71.9688 251.533 71.8754 251.222 71.8754ZM258.182 73.3232C258.182 72.4981 258.314 71.7898 258.579 71.1982C258.859 70.5911 259.233 70.0929 259.7 69.7037C260.183 69.3146 260.751 69.0266 261.405 68.8397C262.058 68.6374 262.767 68.5362 263.53 68.5362C264.292 68.5362 265.001 68.6374 265.655 68.8397C266.308 69.0266 266.869 69.3146 267.336 69.7037C267.818 70.0929 268.192 70.5911 268.457 71.1982C268.721 71.7898 268.854 72.4981 268.854 73.3232L268.854 81.7297C268.854 82.5392 268.721 83.2475 268.457 83.8547C268.192 84.4618 267.818 84.96 267.336 85.3491C266.869 85.7383 266.308 86.0341 265.655 86.2365C265.001 86.4233 264.292 86.5167 263.53 86.5167C262.767 86.5167 262.058 86.4233 261.405 86.2365C260.751 86.0341 260.183 85.7383 259.7 85.3491C259.233 84.96 258.859 84.4618 258.579 83.8547C258.314 83.2475 258.182 82.5392 258.182 81.7297V73.3232ZM263.53 71.8754C263.218 71.8754 262.977 71.9688 262.806 72.1556C262.634 72.3424 262.549 72.5837 262.549 72.8795V82.1734C262.549 82.4691 262.634 82.7104 262.806 82.8973C262.977 83.0841 263.218 83.1775 263.53 83.1775C263.841 83.1775 264.074 83.0841 264.23 82.8973C264.401 82.7104 264.487 82.4691 264.487 82.1734L264.487 72.8795C264.487 72.5837 264.401 72.3424 264.23 72.1556C264.074 71.9688 263.841 71.8754 263.53 71.8754ZM270.965 85.1392V84.3487H270.175V83.4669H270.965V82.6764L271.847 82.6764V83.4669H272.638V84.3487H271.847V85.1392H270.965ZM276.757 86.344C275.802 86.344 275.324 85.6599 275.324 84.2916V81.4069C275.324 80.1578 275.872 79.5332 276.966 79.5332C277.417 79.5332 277.763 79.6244 278.004 79.8069C278.245 79.9867 278.41 80.2503 278.502 80.5974C278.593 80.9445 278.639 81.3677 278.639 81.8668H277.331V81.2739C277.331 81.1295 277.311 81.0091 277.27 80.9128C277.232 80.814 277.151 80.7646 277.027 80.7646C276.872 80.7646 276.77 80.8166 276.719 80.9204C276.671 81.0243 276.647 81.1384 276.647 81.2625V84.5045C276.647 84.6844 276.67 84.8313 276.715 84.9454C276.764 85.0569 276.856 85.1126 276.993 85.1126C277.135 85.1126 277.228 85.0569 277.274 84.9454C277.322 84.8313 277.346 84.6819 277.346 84.4969V83.5429H276.989V82.3875H278.623V86.2832H278.087L277.859 85.7207C277.626 86.1362 277.259 86.344 276.757 86.344ZM280.978 86.344C280.367 86.344 279.926 86.192 279.655 85.8879C279.386 85.5839 279.252 85.0999 279.252 84.4361V83.7824H280.575V84.6185C280.575 84.7731 280.598 84.8947 280.643 84.9834C280.691 85.0695 280.774 85.1126 280.89 85.1126C281.012 85.1126 281.095 85.0771 281.141 85.0062C281.189 84.9352 281.213 84.8187 281.213 84.6565C281.213 84.4513 281.193 84.2802 281.152 84.1434C281.112 84.0041 281.041 83.8723 280.94 83.7482C280.841 83.6215 280.703 83.4745 280.525 83.3073L279.925 82.7372C279.476 82.314 279.252 81.8301 279.252 81.2853C279.252 80.7152 279.384 80.2807 279.647 79.9817C279.913 79.6827 280.297 79.5332 280.799 79.5332C281.412 79.5332 281.847 79.6966 282.103 80.0235C282.361 80.3503 282.49 80.847 282.49 81.5134H281.13V81.0535C281.13 80.9623 281.103 80.8913 281.05 80.8406C280.999 80.79 280.929 80.7646 280.841 80.7646C280.734 80.7646 280.656 80.795 280.605 80.8558C280.557 80.9141 280.533 80.9901 280.533 81.0839C280.533 81.1776 280.558 81.279 280.609 81.3879C280.66 81.4969 280.76 81.6223 280.909 81.7642L281.681 82.5053C281.835 82.6523 281.977 82.8081 282.106 82.9728C282.236 83.135 282.34 83.325 282.418 83.5429C282.497 83.7583 282.536 84.0218 282.536 84.3335C282.536 84.9618 282.419 85.4547 282.186 85.8119C281.956 86.1666 281.553 86.344 280.978 86.344ZM283.792 86.2832V80.8786H282.997V79.594L285.924 79.594L285.924 80.8786H285.13V86.2832H283.792Z" fill="white"/>
<mask id="path-12-outside-2_6655_54971" maskUnits="userSpaceOnUse" x="309" y="12.999" width="28" height="7" fill="black">
<rect fill="white" x="309" y="12.999" width="28" height="7"/>
<path d="M312.523 13.7696C312.988 13.7696 313.363 13.829 313.65 13.9479C313.942 14.0669 314.171 14.2506 314.339 14.4993C314.447 14.6668 314.531 14.856 314.59 15.0668C314.65 15.2776 314.679 15.5208 314.679 15.7965C314.679 16.0343 314.658 16.2721 314.614 16.51C314.571 16.7478 314.509 16.9775 314.428 17.1991C314.352 17.4153 314.258 17.6207 314.144 17.8153C314.036 18.0045 313.915 18.172 313.779 18.318C313.525 18.5936 313.231 18.7882 312.896 18.9017C312.566 19.0098 312.158 19.0639 311.671 19.0639C311.201 19.0639 310.823 19.0152 310.536 18.9179C310.25 18.8207 310.023 18.6639 309.855 18.4477C309.736 18.2964 309.642 18.1045 309.571 17.8721C309.507 17.6396 309.474 17.3478 309.474 16.9964C309.474 16.3965 309.58 15.8614 309.79 15.3911C310.007 14.9155 310.312 14.5398 310.707 14.2641C310.944 14.0966 311.209 13.9723 311.501 13.8912C311.793 13.8101 312.134 13.7696 312.523 13.7696ZM311.607 18.4963C311.731 18.4963 311.847 18.4423 311.955 18.3342C312.069 18.2207 312.171 18.072 312.263 17.8883C312.361 17.6991 312.447 17.4856 312.523 17.2478C312.604 17.0099 312.671 16.764 312.725 16.51C312.779 16.2559 312.82 16.0046 312.847 15.756C312.879 15.5019 312.896 15.2722 312.896 15.0668C312.896 14.7857 312.866 14.5939 312.806 14.4912C312.752 14.3831 312.671 14.329 312.563 14.329C312.439 14.329 312.32 14.3831 312.206 14.4912C312.093 14.5993 311.985 14.7452 311.882 14.929C311.785 15.1073 311.696 15.3154 311.615 15.5533C311.539 15.7857 311.471 16.0262 311.412 16.2748C311.358 16.5235 311.315 16.7694 311.282 17.0126C311.255 17.2559 311.242 17.4802 311.242 17.6856C311.242 17.9937 311.274 18.2072 311.339 18.3261C311.409 18.4396 311.498 18.4963 311.607 18.4963ZM319.062 18.999L317.165 18.999L316.265 15.2776L315.47 18.999H314.741L315.835 13.8507L317.773 13.8507L318.624 17.6207L319.427 13.8507L320.173 13.8507L319.062 18.999ZM321.053 13.8507L322.812 13.8507L321.856 18.318L323.501 18.318L323.364 18.999L319.958 18.999L321.053 13.8507ZM325.621 18.999L323.87 18.999L324.964 13.8507L326.724 13.8507L325.621 18.999ZM330.836 18.999L328.938 18.999L328.038 15.2776L327.244 18.999H326.514L327.609 13.8507L329.547 13.8507L330.398 17.6207L331.2 13.8507L331.946 13.8507L330.836 18.999ZM332.827 13.8507L336.24 13.8507L336.11 14.4668L334.456 14.4668L334.116 16.0316L335.502 16.0316L335.372 16.6397H333.986L333.613 18.3747H335.267L335.145 18.999L331.732 18.999L332.827 13.8507Z"/>
</mask>
<path d="M312.523 13.7696C312.988 13.7696 313.363 13.829 313.65 13.9479C313.942 14.0669 314.171 14.2506 314.339 14.4993C314.447 14.6668 314.531 14.856 314.59 15.0668C314.65 15.2776 314.679 15.5208 314.679 15.7965C314.679 16.0343 314.658 16.2721 314.614 16.51C314.571 16.7478 314.509 16.9775 314.428 17.1991C314.352 17.4153 314.258 17.6207 314.144 17.8153C314.036 18.0045 313.915 18.172 313.779 18.318C313.525 18.5936 313.231 18.7882 312.896 18.9017C312.566 19.0098 312.158 19.0639 311.671 19.0639C311.201 19.0639 310.823 19.0152 310.536 18.9179C310.25 18.8207 310.023 18.6639 309.855 18.4477C309.736 18.2964 309.642 18.1045 309.571 17.8721C309.507 17.6396 309.474 17.3478 309.474 16.9964C309.474 16.3965 309.58 15.8614 309.79 15.3911C310.007 14.9155 310.312 14.5398 310.707 14.2641C310.944 14.0966 311.209 13.9723 311.501 13.8912C311.793 13.8101 312.134 13.7696 312.523 13.7696ZM311.607 18.4963C311.731 18.4963 311.847 18.4423 311.955 18.3342C312.069 18.2207 312.171 18.072 312.263 17.8883C312.361 17.6991 312.447 17.4856 312.523 17.2478C312.604 17.0099 312.671 16.764 312.725 16.51C312.779 16.2559 312.82 16.0046 312.847 15.756C312.879 15.5019 312.896 15.2722 312.896 15.0668C312.896 14.7857 312.866 14.5939 312.806 14.4912C312.752 14.3831 312.671 14.329 312.563 14.329C312.439 14.329 312.32 14.3831 312.206 14.4912C312.093 14.5993 311.985 14.7452 311.882 14.929C311.785 15.1073 311.696 15.3154 311.615 15.5533C311.539 15.7857 311.471 16.0262 311.412 16.2748C311.358 16.5235 311.315 16.7694 311.282 17.0126C311.255 17.2559 311.242 17.4802 311.242 17.6856C311.242 17.9937 311.274 18.2072 311.339 18.3261C311.409 18.4396 311.498 18.4963 311.607 18.4963ZM319.062 18.999L317.165 18.999L316.265 15.2776L315.47 18.999H314.741L315.835 13.8507L317.773 13.8507L318.624 17.6207L319.427 13.8507L320.173 13.8507L319.062 18.999ZM321.053 13.8507L322.812 13.8507L321.856 18.318L323.501 18.318L323.364 18.999L319.958 18.999L321.053 13.8507ZM325.621 18.999L323.87 18.999L324.964 13.8507L326.724 13.8507L325.621 18.999ZM330.836 18.999L328.938 18.999L328.038 15.2776L327.244 18.999H326.514L327.609 13.8507L329.547 13.8507L330.398 17.6207L331.2 13.8507L331.946 13.8507L330.836 18.999ZM332.827 13.8507L336.24 13.8507L336.11 14.4668L334.456 14.4668L334.116 16.0316L335.502 16.0316L335.372 16.6397H333.986L333.613 18.3747H335.267L335.145 18.999L331.732 18.999L332.827 13.8507Z" fill="white"/>
<path d="M313.65 13.9479L313.475 14.3699L313.477 14.371L313.65 13.9479ZM314.339 14.4993L314.723 14.2516L314.718 14.244L314.339 14.4993ZM314.59 15.0668L314.15 15.1908L314.15 15.1908L314.59 15.0668ZM314.428 17.1991L313.999 17.0422L313.997 17.0482L314.428 17.1991ZM314.144 17.8153L313.75 17.5851L313.748 17.5887L314.144 17.8153ZM313.779 18.318L313.444 18.0076L313.443 18.0084L313.779 18.318ZM312.896 18.9017L313.038 19.3358L313.042 19.3344L312.896 18.9017ZM310.536 18.9179L310.683 18.4854L310.536 18.9179ZM309.855 18.4477L310.216 18.1679L310.214 18.1655L309.855 18.4477ZM309.571 17.8721L309.131 17.9949L309.134 18.0043L309.571 17.8721ZM309.79 15.3911L309.375 15.2021L309.374 15.2042L309.79 15.3911ZM310.707 14.2641L310.968 14.6386L310.97 14.6376L310.707 14.2641ZM311.501 13.8912L311.379 13.451L311.379 13.451L311.501 13.8912ZM311.955 18.3342L312.278 18.6572H312.278L311.955 18.3342ZM312.263 17.8883L311.857 17.6793L311.855 17.684L312.263 17.8883ZM312.523 17.2478L312.09 17.1003L312.087 17.1093L312.523 17.2478ZM312.847 15.756L312.394 15.6981L312.393 15.7066L312.847 15.756ZM312.806 14.4912L312.398 14.6955L312.404 14.7079L312.411 14.72L312.806 14.4912ZM312.206 14.4912L311.891 14.1604L311.891 14.1604L312.206 14.4912ZM311.882 14.929L311.483 14.7061L311.481 14.7102L311.882 14.929ZM311.615 15.5533L311.182 15.4058L311.18 15.4118L311.615 15.5533ZM311.412 16.2748L310.968 16.1686L310.966 16.1778L311.412 16.2748ZM311.282 17.0126L310.829 16.9523L310.828 16.9622L311.282 17.0126ZM311.339 18.3261L310.938 18.5448L310.944 18.5559L310.951 18.5665L311.339 18.3261ZM312.523 14.2264C312.955 14.2264 313.264 14.2825 313.475 14.3699L313.825 13.526C313.462 13.3756 313.02 13.3128 312.523 13.3128V14.2264ZM313.477 14.371C313.69 14.4576 313.846 14.585 313.96 14.7546L314.718 14.244C314.497 13.9162 314.193 13.6762 313.822 13.5249L313.477 14.371ZM313.955 14.7469C314.036 14.8727 314.102 15.0195 314.15 15.1908L315.03 14.9428C314.959 14.6925 314.858 14.4609 314.723 14.2516L313.955 14.7469ZM314.15 15.1908C314.196 15.3524 314.223 15.5525 314.223 15.7965L315.136 15.7965C315.136 15.4892 315.103 15.2028 315.03 14.9428L314.15 15.1908ZM314.223 15.7965C314.223 16.0065 314.203 16.2169 314.165 16.4283L315.064 16.5917C315.112 16.3273 315.136 16.0622 315.136 15.7965L314.223 15.7965ZM314.165 16.4283C314.126 16.6411 314.071 16.8456 313.999 17.0422L314.857 17.3561C314.947 17.1094 315.016 16.8545 315.064 16.5917L314.165 16.4283ZM313.997 17.0482C313.931 17.2374 313.848 17.4162 313.75 17.5851L314.539 18.0455C314.667 17.8253 314.774 17.5933 314.859 17.35L313.997 17.0482ZM313.748 17.5887C313.655 17.7505 313.554 17.8895 313.444 18.0076L314.115 18.6283C314.275 18.4546 314.417 18.2584 314.541 18.0419L313.748 17.5887ZM313.443 18.0084C313.238 18.2313 313.007 18.3816 312.749 18.4691L313.042 19.3344C313.454 19.1949 313.813 18.956 314.115 18.6276L313.443 18.0084ZM312.753 18.4677C312.484 18.556 312.127 18.6071 311.671 18.6071V19.5207C312.188 19.5207 312.648 19.4637 313.038 19.3358L312.753 18.4677ZM311.671 18.6071C311.227 18.6071 310.904 18.5603 310.683 18.4854L310.389 19.3505C310.742 19.4702 311.176 19.5207 311.671 19.5207V18.6071ZM310.683 18.4854C310.472 18.4137 310.323 18.3059 310.216 18.1679L309.494 18.7275C309.722 19.022 310.027 19.2276 310.389 19.3505L310.683 18.4854ZM310.214 18.1655C310.139 18.0688 310.067 17.9315 310.009 17.7399L309.134 18.0043C309.217 18.2774 309.334 18.5239 309.496 18.7299L310.214 18.1655ZM310.012 17.7493C309.962 17.5705 309.931 17.3233 309.931 16.9964H309.017C309.017 17.3722 309.052 17.7088 309.131 17.9948L310.012 17.7493ZM309.931 16.9964C309.931 16.4504 310.027 15.9806 310.207 15.578L309.374 15.2042C309.132 15.7421 309.017 16.3425 309.017 16.9964H309.931ZM310.206 15.5801C310.392 15.1724 310.646 14.8634 310.968 14.6386L310.445 13.8897C309.978 14.2162 309.622 14.6585 309.375 15.2021L310.206 15.5801ZM310.97 14.6376C311.163 14.5014 311.38 14.399 311.623 14.3313L311.379 13.451C311.039 13.5455 310.726 13.6918 310.443 13.8907L310.97 14.6376ZM311.623 14.3313C311.866 14.2639 312.164 14.2264 312.523 14.2264V13.3128C312.103 13.3128 311.72 13.3563 311.379 13.451L311.623 14.3313ZM311.607 18.9532C311.879 18.9532 312.105 18.8301 312.278 18.6572L311.632 18.0112C311.609 18.0345 311.596 18.041 311.594 18.0416C311.594 18.0419 311.595 18.0412 311.598 18.0405C311.601 18.0398 311.604 18.0395 311.607 18.0395V18.9532ZM312.278 18.6572C312.435 18.5008 312.564 18.3086 312.672 18.0926L311.855 17.684C311.779 17.8355 311.703 17.9405 311.632 18.0112L312.278 18.6572ZM312.669 18.0972C312.78 17.8819 312.876 17.6443 312.958 17.3863L312.087 17.1093C312.018 17.3269 311.941 17.5163 311.857 17.6793L312.669 18.0972ZM312.955 17.3952C313.042 17.1396 313.115 16.8762 313.172 16.605L312.279 16.4149C312.228 16.6518 312.165 16.8802 312.09 17.1004L312.955 17.3952ZM313.172 16.605C313.229 16.3365 313.272 16.0699 313.301 15.8053L312.393 15.7066C312.368 15.9393 312.33 16.1754 312.279 16.4149L313.172 16.605ZM313.3 15.8138C313.334 15.545 313.352 15.2956 313.352 15.0668L312.439 15.0668C312.439 15.2488 312.424 15.4588 312.394 15.6981L313.3 15.8138ZM313.352 15.0668C313.352 14.9122 313.344 14.769 313.325 14.6422C313.306 14.5213 313.272 14.384 313.202 14.2623L312.411 14.72C312.4 14.701 312.411 14.711 312.422 14.782C312.432 14.8471 312.439 14.9403 312.439 15.0668L313.352 15.0668ZM313.215 14.2869C313.161 14.1786 313.079 14.07 312.959 13.9895C312.835 13.907 312.697 13.8722 312.563 13.8722V14.7858C312.537 14.7858 312.494 14.778 312.452 14.7496C312.412 14.7231 312.398 14.6956 312.398 14.6955L313.215 14.2869ZM312.563 13.8722C312.293 13.8722 312.067 13.9934 311.891 14.1604L312.522 14.822C312.549 14.7963 312.565 14.7876 312.57 14.7854C312.573 14.784 312.57 14.7858 312.563 14.7858V13.8722ZM311.891 14.1604C311.736 14.3088 311.601 14.4952 311.483 14.7061L312.281 15.1518C312.368 14.9952 312.45 14.8898 312.522 14.822L311.891 14.1604ZM311.481 14.7102C311.369 14.916 311.27 15.1489 311.182 15.4059L312.047 15.7007C312.122 15.482 312.201 15.2986 312.283 15.1477L311.481 14.7102ZM311.18 15.4118C311.101 15.6564 311.03 15.9087 310.968 16.1686L311.856 16.3811C311.913 16.1438 311.977 15.915 312.049 15.6947L311.18 15.4118ZM310.966 16.1778C310.909 16.4381 310.864 16.6963 310.829 16.9523L311.735 17.073C311.766 16.8425 311.807 16.6088 311.858 16.3719L310.966 16.1778ZM310.828 16.9622C310.8 17.2191 310.785 17.4605 310.785 17.6856H311.698C311.698 17.4999 311.711 17.2926 311.736 17.0631L310.828 16.9622ZM310.785 17.6856C310.785 17.996 310.813 18.3149 310.938 18.5448L311.74 18.1073C311.744 18.114 311.73 18.0898 311.718 18.0082C311.706 17.9314 311.698 17.8255 311.698 17.6856H310.785ZM310.951 18.5665C311.082 18.7781 311.302 18.9532 311.607 18.9532V18.0395C311.62 18.0395 311.637 18.0414 311.655 18.0467C311.674 18.052 311.69 18.0598 311.704 18.0684C311.73 18.0853 311.736 18.0988 311.727 18.0856L310.951 18.5665ZM319.062 18.999V19.4558H319.431L319.509 19.0954L319.062 18.999ZM317.165 18.999L316.721 19.1064L316.805 19.4558H317.165V18.999ZM316.265 15.2776L316.709 15.1702L315.818 15.1822L316.265 15.2776ZM315.47 18.999V19.4558H315.84L315.917 19.0944L315.47 18.999ZM314.741 18.999L314.294 18.904L314.177 19.4558L314.741 19.4558V18.999ZM315.835 13.8507V13.3938H315.465L315.388 13.7557L315.835 13.8507ZM317.773 13.8507L318.219 13.75L318.138 13.3938H317.773V13.8507ZM318.624 17.6207L318.179 17.7213L319.071 17.7158L318.624 17.6207ZM319.427 13.8507V13.3938L319.057 13.3938L318.98 13.7555L319.427 13.8507ZM320.173 13.8507L320.619 13.947L320.739 13.3938L320.173 13.3938V13.8507ZM319.062 18.5422L317.165 18.5422V19.4558L319.062 19.4558V18.5422ZM317.609 18.8916L316.709 15.1702L315.821 15.385L316.721 19.1064L317.609 18.8916ZM315.818 15.1822L315.024 18.9036L315.917 19.0944L316.712 15.373L315.818 15.1822ZM315.47 18.5422H314.741V19.4558H315.47V18.5422ZM315.188 19.094L316.282 13.9456L315.388 13.7557L314.294 18.904L315.188 19.094ZM315.835 14.3075L317.773 14.3075V13.3938L315.835 13.3938V14.3075ZM317.327 13.9513L318.179 17.7213L319.07 17.5201L318.219 13.75L317.327 13.9513ZM319.071 17.7158L319.874 13.9458L318.98 13.7555L318.177 17.5256L319.071 17.7158ZM319.427 14.3075H320.173V13.3938H319.427V14.3075ZM319.726 13.7543L318.616 18.9027L319.509 19.0954L320.619 13.947L319.726 13.7543ZM321.053 13.8507V13.3938H320.683L320.606 13.7557L321.053 13.8507ZM322.812 13.8507L323.259 13.9463L323.377 13.3938H322.812V13.8507ZM321.856 18.318L321.409 18.2223L321.291 18.7748H321.856V18.318ZM323.501 18.318L323.949 18.4086L324.06 17.8612H323.501V18.318ZM323.364 18.999V19.4558H323.737L323.811 19.0896L323.364 18.999ZM319.958 18.999L319.512 18.904L319.394 19.4558H319.958V18.999ZM321.053 14.3075L322.812 14.3075V13.3938L321.053 13.3938V14.3075ZM322.366 13.755L321.409 18.2223L322.302 18.4136L323.259 13.9463L322.366 13.755ZM321.856 18.7748L323.501 18.7748V17.8612L321.856 17.8612V18.7748ZM323.054 18.2274L322.916 18.9084L323.811 19.0896L323.949 18.4086L323.054 18.2274ZM323.364 18.5422L319.958 18.5422V19.4558L323.364 19.4558V18.5422ZM320.405 19.094L321.5 13.9456L320.606 13.7557L319.512 18.904L320.405 19.094ZM325.621 18.999V19.4558H325.99L326.068 19.0947L325.621 18.999ZM323.87 18.999L323.423 18.904L323.306 19.4558L323.87 19.4558V18.999ZM324.964 13.8507V13.3938L324.594 13.3938L324.517 13.7557L324.964 13.8507ZM326.724 13.8507L327.17 13.9463L327.289 13.3938L326.724 13.3938V13.8507ZM325.621 18.5422L323.87 18.5422V19.4558L325.621 19.4558V18.5422ZM324.317 19.094L325.411 13.9456L324.517 13.7557L323.423 18.904L324.317 19.094ZM324.964 14.3075L326.724 14.3075V13.3938L324.964 13.3938V14.3075ZM326.277 13.755L325.174 18.9034L326.068 19.0947L327.17 13.9463L326.277 13.755ZM330.836 18.999V19.4558H331.204L331.282 19.0954L330.836 18.999ZM328.938 18.999L328.494 19.1064L328.579 19.4558H328.938V18.999ZM328.038 15.2776L328.483 15.1702L327.592 15.1822L328.038 15.2776ZM327.244 18.999V19.4558H327.614L327.691 19.0944L327.244 18.999ZM326.514 18.999L326.067 18.904L325.95 19.4558H326.514V18.999ZM327.609 13.8507V13.3938H327.239L327.162 13.7557L327.609 13.8507ZM329.547 13.8507L329.992 13.75L329.912 13.3938H329.547V13.8507ZM330.398 17.6207L329.952 17.7213L330.845 17.7158L330.398 17.6207ZM331.2 13.8507V13.3938H330.831L330.754 13.7555L331.2 13.8507ZM331.946 13.8507L332.393 13.947L332.512 13.3938L331.946 13.3938V13.8507ZM330.836 18.5422L328.938 18.5422V19.4558L330.836 19.4558V18.5422ZM329.382 18.8916L328.483 15.1702L327.594 15.385L328.494 19.1064L329.382 18.8916ZM327.592 15.1822L326.797 18.9036L327.691 19.0944L328.485 15.373L327.592 15.1822ZM327.244 18.5422H326.514V19.4558H327.244V18.5422ZM326.961 19.094L328.056 13.9456L327.162 13.7557L326.067 18.904L326.961 19.094ZM327.609 14.3075L329.547 14.3075V13.3938L327.609 13.3938V14.3075ZM329.101 13.9513L329.952 17.7213L330.843 17.5201L329.992 13.75L329.101 13.9513ZM330.845 17.7158L331.647 13.9458L330.754 13.7555L329.951 17.5256L330.845 17.7158ZM331.2 14.3075L331.946 14.3075V13.3938L331.2 13.3938V14.3075ZM331.5 13.7543L330.389 18.9027L331.282 19.0954L332.393 13.947L331.5 13.7543ZM332.827 13.8507V13.3938H332.457L332.38 13.7557L332.827 13.8507ZM336.24 13.8507L336.687 13.9448L336.803 13.3938L336.24 13.3938V13.8507ZM336.11 14.4668V14.9237H336.481L336.557 14.5609L336.11 14.4668ZM334.456 14.4668V14.01L334.088 14.01L334.01 14.3697L334.456 14.4668ZM334.116 16.0316L333.669 15.9345L333.549 16.4884L334.116 16.4884V16.0316ZM335.502 16.0316L335.949 16.1269L336.067 15.5748L335.502 15.5748V16.0316ZM335.372 16.6397V17.0965H335.742L335.819 16.735L335.372 16.6397ZM333.986 16.6397V16.1829L333.617 16.1829L333.539 16.5437L333.986 16.6397ZM333.613 18.3747L333.166 18.2787L333.048 18.8315H333.613V18.3747ZM335.267 18.3747L335.715 18.4621L335.821 17.9179H335.267V18.3747ZM335.145 18.999V19.4558H335.522L335.594 19.0864L335.145 18.999ZM331.732 18.999L331.285 18.904L331.168 19.4558H331.732V18.999ZM332.827 14.3075L336.24 14.3075V13.3938L332.827 13.3938V14.3075ZM335.793 13.7565L335.663 14.3727L336.557 14.5609L336.687 13.9448L335.793 13.7565ZM336.11 14.01L334.456 14.01V14.9237L336.11 14.9237V14.01ZM334.01 14.3697L333.669 15.9345L334.562 16.1288L334.903 14.564L334.01 14.3697ZM334.116 16.4884H335.502V15.5748L334.116 15.5748V16.4884ZM335.055 15.9363L334.926 16.5444L335.819 16.735L335.949 16.1269L335.055 15.9363ZM335.372 16.1829H333.986V17.0965H335.372V16.1829ZM333.539 16.5437L333.166 18.2787L334.06 18.4707L334.433 16.7357L333.539 16.5437ZM333.613 18.8315L335.267 18.8315V17.9179L333.613 17.9179V18.8315ZM334.819 18.2874L334.697 18.9117L335.594 19.0864L335.715 18.4621L334.819 18.2874ZM335.145 18.5422L331.732 18.5422V19.4558L335.145 19.4558V18.5422ZM332.179 19.094L333.273 13.9456L332.38 13.7557L331.285 18.904L332.179 19.094Z" fill="black" mask="url(#path-12-outside-2_6655_54971)"/>
<rect width="96.0926" height="33.2901" transform="translate(309 25.665)" fill="#FFDC00"/>
<path d="M332.719 49.3447L329.218 44.1327V42.4058L331.251 42.4058C331.732 42.4058 332.07 42.309 332.264 42.1153C332.457 41.9165 332.578 41.6182 332.625 41.2205L329.218 41.2205V39.8076H332.625C332.578 39.3994 332.457 39.1011 332.264 38.9128C332.07 38.7191 331.732 38.6223 331.251 38.6223L329.218 38.6223V36.8954L335.396 36.8954V38.6223H334.399C334.514 38.9572 334.592 39.3523 334.634 39.8076H335.396V41.2205L334.642 41.2205C334.564 42.1258 334.281 42.8375 333.794 43.3556C333.308 43.8736 332.562 44.1327 331.557 44.1327H331.51L334.995 49.3447L332.719 49.3447ZM341.027 49.4703C340.069 49.4703 339.319 49.3081 338.774 48.9836C338.235 48.654 337.853 48.1595 337.628 47.5001C337.408 46.8407 337.299 46.0192 337.299 45.0354L337.299 41.299C337.299 40.3414 337.338 39.4962 337.416 38.7636C337.5 38.031 337.67 37.4161 337.927 36.919C338.183 36.4219 338.565 36.0451 339.073 35.7887C339.58 35.5322 340.258 35.404 341.106 35.404C341.686 35.404 342.228 35.5061 342.73 35.7102C343.233 35.909 343.638 36.2099 343.947 36.6129C344.256 37.0106 344.41 37.5103 344.41 38.1121V39.6035L341.749 39.6035V39.3209C341.749 39.0907 341.736 38.8604 341.71 38.6302C341.689 38.3999 341.631 38.2089 341.537 38.0572C341.443 37.9054 341.283 37.8295 341.058 37.8295C340.75 37.8295 340.535 37.9159 340.415 38.0886C340.294 38.256 340.234 38.4994 340.234 38.8186V41.5894C340.365 41.3435 340.561 41.1472 340.823 41.0007C341.085 40.849 341.404 40.7731 341.781 40.7731C342.545 40.7731 343.131 40.9275 343.539 41.2362C343.952 41.5397 344.238 41.995 344.395 42.602C344.552 43.209 344.63 43.9678 344.63 44.8784C344.63 45.7994 344.517 46.6053 344.292 47.296C344.067 47.9815 343.691 48.5153 343.162 48.8973C342.639 49.2793 341.927 49.4703 341.027 49.4703ZM340.925 46.9271C341.249 46.9271 341.443 46.791 341.506 46.5189C341.569 46.2416 341.6 45.8883 341.6 45.4592V44.3446C341.6 43.5911 341.388 43.2143 340.964 43.2143C340.478 43.2143 340.234 43.5413 340.234 44.1955V45.9067C340.234 46.5869 340.465 46.9271 340.925 46.9271ZM349.272 49.541C348.21 49.541 347.342 49.2793 346.666 48.756C345.997 48.2275 345.662 47.419 345.662 46.3305V44.274L348.535 44.274L348.535 45.4592C348.535 45.7052 348.548 45.9433 348.574 46.1735C348.605 46.4038 348.673 46.5922 348.778 46.7387C348.883 46.8852 349.047 46.9585 349.272 46.9585C349.571 46.9585 349.767 46.8591 349.861 46.6602C349.955 46.4561 350.002 46.1971 350.002 45.8831V43.1672C350.002 42.9422 349.987 42.7198 349.955 42.5C349.929 42.2802 349.866 42.097 349.767 41.9505C349.668 41.804 349.508 41.7307 349.288 41.7307C348.765 41.7307 348.503 42.1101 348.503 42.8689L345.968 42.8689L345.968 35.5218L352.554 35.5218V38.1121L348.59 38.1121V40.0588C348.726 39.8913 348.909 39.7448 349.139 39.6192C349.375 39.4884 349.649 39.423 349.963 39.423C350.591 39.423 351.101 39.5433 351.494 39.7841C351.892 40.0248 352.195 40.3597 352.404 40.7888C352.619 41.2179 352.766 41.715 352.844 42.2802C352.928 42.8454 352.97 43.4524 352.97 44.1013C352.97 44.9333 352.925 45.6842 352.836 46.3541C352.752 47.0187 352.582 47.5891 352.326 48.0653C352.075 48.5415 351.703 48.9078 351.211 49.1642C350.725 49.4154 350.078 49.541 349.272 49.541ZM357.698 49.4703C356.531 49.4703 355.629 49.1433 354.99 48.4891C354.357 47.835 354.041 46.8931 354.041 45.6633L354.041 39.4308C354.041 38.133 354.341 37.1388 354.943 36.448C355.55 35.752 356.469 35.404 357.698 35.404C358.933 35.404 359.852 35.752 360.454 36.448C361.055 37.1388 361.356 38.133 361.356 39.4308L361.356 45.6633C361.356 46.8931 361.04 47.835 360.407 48.4891C359.773 49.1433 358.871 49.4703 357.698 49.4703ZM357.698 46.9271C357.913 46.9271 358.08 46.8303 358.201 46.6367C358.321 46.443 358.381 46.2259 358.381 45.9851V39.1639C358.381 38.8395 358.345 38.5569 358.271 38.3162C358.203 38.0702 358.012 37.9473 357.698 37.9473C357.384 37.9473 357.191 38.0702 357.118 38.3162C357.05 38.5569 357.016 38.8395 357.016 39.1639V45.9851C357.016 46.2259 357.076 46.443 357.196 46.6367C357.322 46.8303 357.489 46.9271 357.698 46.9271ZM366.124 49.4703C364.957 49.4703 364.055 49.1433 363.416 48.4891C362.783 47.835 362.467 46.8931 362.467 45.6633L362.467 39.4308C362.467 38.133 362.767 37.1388 363.369 36.448C363.976 35.752 364.895 35.404 366.124 35.404C367.359 35.404 368.278 35.752 368.88 36.448C369.481 37.1388 369.782 38.133 369.782 39.4308L369.782 45.6633C369.782 46.8931 369.466 47.835 368.832 48.4891C368.199 49.1433 367.297 49.4703 366.124 49.4703ZM366.124 46.9271C366.339 46.9271 366.506 46.8303 366.627 46.6367C366.747 46.443 366.807 46.2259 366.807 45.9851V39.1639C366.807 38.8395 366.771 38.5569 366.697 38.3162C366.629 38.0702 366.438 37.9473 366.124 37.9473C365.81 37.9473 365.617 38.0702 365.544 38.3162C365.476 38.5569 365.441 38.8395 365.441 39.1639V45.9851C365.441 46.2259 365.502 46.443 365.622 46.6367C365.748 46.8303 365.915 46.9271 366.124 46.9271ZM371.493 48.2343V47.467L370.726 47.467V46.6111H371.493V45.8438H372.349V46.6111H373.117V47.467H372.349V48.2343H371.493ZM377.115 49.4038C376.188 49.4038 375.724 48.7397 375.724 47.4117V44.6117C375.724 43.3992 376.256 42.793 377.318 42.793C377.756 42.793 378.091 42.8815 378.325 43.0586C378.559 43.2332 378.72 43.489 378.808 43.8259C378.897 44.1628 378.941 44.5735 378.941 45.058L377.672 45.058V44.4825C377.672 44.3424 377.652 44.2255 377.613 44.1321C377.576 44.0362 377.498 43.9882 377.377 43.9882C377.227 43.9882 377.127 44.0386 377.078 44.1395C377.031 44.2403 377.008 44.351 377.008 44.4715L377.008 47.6182C377.008 47.7929 377.03 47.9355 377.075 48.0462C377.121 48.1544 377.211 48.2085 377.344 48.2085C377.482 48.2085 377.573 48.1544 377.617 48.0462C377.664 47.9355 377.687 47.7904 377.687 47.6109V46.6849H377.34V45.5634H378.926V49.3447H378.406L378.185 48.7987C377.959 49.2021 377.602 49.4038 377.115 49.4038ZM381.212 49.4038C380.619 49.4038 380.191 49.2562 379.928 48.9611C379.667 48.6659 379.537 48.1962 379.537 47.5518V46.9173H380.821V47.7289C380.821 47.8789 380.843 47.997 380.887 48.0831C380.934 48.1667 381.014 48.2085 381.127 48.2085C381.245 48.2085 381.326 48.1741 381.37 48.1052C381.417 48.0363 381.44 47.9232 381.44 47.7658C381.44 47.5666 381.421 47.4006 381.381 47.2678C381.342 47.1325 381.273 47.0046 381.175 46.8841C381.079 46.7612 380.945 46.6185 380.773 46.4562L380.19 45.9028C379.754 45.4921 379.537 45.0224 379.537 44.4936C379.537 43.9403 379.665 43.5185 379.92 43.2283C380.179 42.9381 380.551 42.793 381.038 42.793C381.633 42.793 382.055 42.9516 382.304 43.2688C382.554 43.5861 382.68 44.0681 382.68 44.715H381.359V44.2686C381.359 44.18 381.333 44.1112 381.282 44.062C381.232 44.0128 381.165 43.9882 381.079 43.9882C380.975 43.9882 380.899 44.0177 380.85 44.0767C380.803 44.1333 380.78 44.2071 380.78 44.2981C380.78 44.3891 380.805 44.4875 380.854 44.5932C380.903 44.699 381 44.8207 381.145 44.9584L381.894 45.6778C382.044 45.8204 382.182 45.9717 382.307 46.1316C382.433 46.289 382.533 46.4734 382.61 46.6849C382.686 46.894 382.724 47.1497 382.724 47.4522C382.724 48.0622 382.611 48.5405 382.385 48.8873C382.161 49.2316 381.77 49.4038 381.212 49.4038ZM383.943 49.3447V44.0989L383.172 44.0989V42.852H386.013V44.0989H385.242L385.242 49.3447H383.943Z" fill="black"/>
<path d="M333.612 37.5078L370.561 49.1644" stroke="#FB6514" stroke-width="1.4166"/>
<rect width="96.0926" height="33.2901" transform="translate(309 58.9551)" fill="black"/>
<path d="M325.76 85.6006L320.824 78.252V75.8172L323.691 75.8172C324.37 75.8172 324.845 75.6807 325.118 75.4077C325.391 75.1273 325.561 74.7068 325.628 74.1461L320.824 74.1461V72.154L325.628 72.154C325.561 71.5785 325.391 71.1579 325.118 70.8923C324.845 70.6193 324.37 70.4828 323.691 70.4828H320.824V68.048L329.534 68.048V70.4828L328.129 70.4828C328.291 70.955 328.402 71.5121 328.461 72.154H329.534V74.1461L328.472 74.1461C328.361 75.4225 327.963 76.4259 327.277 77.1563C326.59 77.8868 325.539 78.252 324.122 78.252H324.056L328.97 85.6006H325.76ZM332.073 73.0439C332.073 72.243 332.201 71.5555 332.458 70.9813C332.715 70.392 333.07 69.9084 333.524 69.5307C333.992 69.1378 334.544 68.8507 335.178 68.6694C335.828 68.473 336.538 68.3747 337.309 68.3747C338.095 68.3747 338.812 68.473 339.462 68.6694C340.112 68.8658 340.663 69.1605 341.117 69.5534C341.585 69.9311 341.948 70.4146 342.205 71.0039C342.461 71.5781 342.59 72.2506 342.59 73.0212V74.1998L338.329 74.1998V72.6359C338.329 72.3337 338.246 72.0919 338.079 71.9106C337.913 71.7141 337.656 71.6159 337.309 71.6159C336.961 71.6159 336.704 71.7141 336.538 71.9106C336.387 72.107 336.312 72.3412 336.312 72.6132V75.3331C336.614 75.1971 336.946 75.1291 337.309 75.1291C339.092 75.1291 340.422 75.5597 341.298 76.421C342.174 77.2672 342.613 78.5894 342.613 80.3875C342.613 82.2461 342.182 83.6211 341.321 84.5126C340.474 85.389 339.137 85.8272 337.309 85.8272C336.538 85.8272 335.828 85.7366 335.178 85.5553C334.544 85.3588 333.992 85.0717 333.524 84.694C333.07 84.3011 332.715 83.81 332.458 83.2207C332.201 82.6314 332.073 81.9439 332.073 81.1581V73.0439ZM337.309 78.3703C336.961 78.3703 336.704 78.4685 336.538 78.6649C336.387 78.8614 336.312 79.0956 336.312 79.3675V81.5661C336.312 81.8532 336.387 82.095 336.538 82.2914C336.704 82.4878 336.961 82.5861 337.309 82.5861C337.702 82.5861 337.966 82.4727 338.102 82.2461C338.253 82.0043 338.329 81.7323 338.329 81.4301V79.5262C338.329 79.224 338.253 78.9596 338.102 78.7329C337.966 78.4911 337.702 78.3703 337.309 78.3703ZM344.152 73.0212C344.152 72.2203 344.281 71.5328 344.538 70.9586C344.81 70.3693 345.172 69.8858 345.625 69.508C346.094 69.1303 346.645 68.8507 347.28 68.6694C347.915 68.473 348.602 68.3747 349.343 68.3747C350.083 68.3747 350.771 68.473 351.405 68.6694C352.04 68.8507 352.584 69.1303 353.037 69.508C353.506 69.8858 353.868 70.3693 354.125 70.9586C354.382 71.5328 354.51 72.2203 354.51 73.0212L354.51 81.1808C354.51 81.9665 354.382 82.6541 354.125 83.2434C353.868 83.8327 353.506 84.3162 353.037 84.694C352.584 85.0717 352.04 85.3588 351.405 85.5553C350.771 85.7366 350.083 85.8272 349.343 85.8272C348.602 85.8272 347.915 85.7366 347.28 85.5553C346.645 85.3588 346.094 85.0717 345.625 84.694C345.172 84.3162 344.81 83.8327 344.538 83.2434C344.281 82.6541 344.152 81.9665 344.152 81.1808V73.0212ZM349.343 71.6159C349.04 71.6159 348.806 71.7066 348.64 71.8879C348.474 72.0692 348.391 72.3034 348.391 72.5905V81.6114C348.391 81.8985 348.474 82.1328 348.64 82.3141C348.806 82.4954 349.04 82.5861 349.343 82.5861C349.645 82.5861 349.871 82.4954 350.023 82.3141C350.189 82.1328 350.272 81.8985 350.272 81.6114V72.5905C350.272 72.3034 350.189 72.0692 350.023 71.8879C349.871 71.7066 349.645 71.6159 349.343 71.6159ZM356.099 73.0212C356.099 72.2203 356.227 71.5328 356.484 70.9586C356.756 70.3693 357.119 69.8858 357.572 69.508C358.04 69.1303 358.592 68.8507 359.226 68.6694C359.861 68.473 360.549 68.3747 361.289 68.3747C362.029 68.3747 362.717 68.473 363.352 68.6694C363.986 68.8507 364.53 69.1303 364.983 69.508C365.452 69.8858 365.815 70.3693 366.071 70.9586C366.328 71.5328 366.457 72.2203 366.457 73.0212L366.457 81.1808C366.457 81.9665 366.328 82.6541 366.071 83.2434C365.815 83.8327 365.452 84.3162 364.983 84.694C364.53 85.0717 363.986 85.3588 363.352 85.5553C362.717 85.7366 362.029 85.8272 361.289 85.8272C360.549 85.8272 359.861 85.7366 359.226 85.5553C358.592 85.3588 358.04 85.0717 357.572 84.694C357.119 84.3162 356.756 83.8327 356.484 83.2434C356.227 82.6541 356.099 81.9665 356.099 81.1808V73.0212ZM361.289 71.6159C360.987 71.6159 360.753 71.7066 360.586 71.8879C360.42 72.0692 360.337 72.3034 360.337 72.5905V81.6114C360.337 81.8985 360.42 82.1328 360.586 82.3141C360.753 82.4954 360.987 82.5861 361.289 82.5861C361.591 82.5861 361.818 82.4954 361.969 82.3141C362.135 82.1328 362.218 81.8985 362.218 81.6114V72.5905C362.218 72.3034 362.135 72.0692 361.969 71.8879C361.818 71.7066 361.591 71.6159 361.289 71.6159ZM368.045 73.0212C368.045 72.2203 368.173 71.5328 368.43 70.9586C368.702 70.3693 369.065 69.8858 369.518 69.508C369.987 69.1303 370.538 68.8507 371.173 68.6694C371.807 68.473 372.495 68.3747 373.235 68.3747C373.976 68.3747 374.663 68.473 375.298 68.6694C375.933 68.8507 376.477 69.1303 376.93 69.508C377.398 69.8858 377.761 70.3693 378.018 70.9586C378.275 71.5328 378.403 72.2203 378.403 73.0212L378.403 81.1808C378.403 81.9665 378.275 82.6541 378.018 83.2434C377.761 83.8327 377.398 84.3162 376.93 84.694C376.477 85.0717 375.933 85.3588 375.298 85.5553C374.663 85.7366 373.976 85.8272 373.235 85.8272C372.495 85.8272 371.807 85.7366 371.173 85.5553C370.538 85.3588 369.987 85.0717 369.518 84.694C369.065 84.3162 368.702 83.8327 368.43 83.2434C368.173 82.6541 368.045 81.9665 368.045 81.1808V73.0212ZM373.235 71.6159C372.933 71.6159 372.699 71.7066 372.533 71.8879C372.366 72.0692 372.283 72.3034 372.283 72.5905V81.6114C372.283 81.8985 372.366 82.1328 372.533 82.3141C372.699 82.4954 372.933 82.5861 373.235 82.5861C373.538 82.5861 373.764 82.4954 373.915 82.3141C374.082 82.1328 374.165 81.8985 374.165 81.6114V72.5905C374.165 72.3034 374.082 72.0692 373.915 71.8879C373.764 71.7066 373.538 71.6159 373.235 71.6159ZM380.453 84.4902V83.7229H379.686V82.867H380.453V82.0997H381.309V82.867H382.076V83.7229H381.309V84.4902H380.453ZM386.075 85.6596C385.147 85.6596 384.684 84.9956 384.684 83.6675V80.8675C384.684 79.655 385.215 79.0488 386.277 79.0488C386.715 79.0488 387.051 79.1374 387.285 79.3144C387.518 79.489 387.679 79.7448 387.768 80.0818C387.856 80.4187 387.901 80.8294 387.901 81.3139H386.632V80.7384C386.632 80.5982 386.612 80.4814 386.573 80.3879C386.536 80.292 386.457 80.2441 386.336 80.2441C386.186 80.2441 386.087 80.2945 386.038 80.3953C385.991 80.4962 385.968 80.6068 385.968 80.7273V83.8741C385.968 84.0487 385.99 84.1914 386.034 84.302C386.081 84.4102 386.17 84.4644 386.303 84.4644C386.441 84.4644 386.532 84.4102 386.576 84.302C386.623 84.1914 386.646 84.0463 386.646 83.8667V82.9408H386.3V81.8193H387.886V85.6006H387.366L387.144 85.0546C386.918 85.4579 386.561 85.6596 386.075 85.6596ZM390.171 85.6596C389.578 85.6596 389.15 85.512 388.887 85.2169C388.627 84.9218 388.496 84.4521 388.496 83.8077V83.1732H389.78V83.9848C389.78 84.1348 389.802 84.2528 389.846 84.3389C389.893 84.4225 389.973 84.4644 390.086 84.4644C390.204 84.4644 390.285 84.4299 390.33 84.3611C390.376 84.2922 390.4 84.1791 390.4 84.0217C390.4 83.8225 390.38 83.6565 390.341 83.5236C390.301 83.3884 390.233 83.2605 390.134 83.14C390.038 83.017 389.904 82.8744 389.732 82.7121L389.149 82.1587C388.714 81.748 388.496 81.2782 388.496 80.7495C388.496 80.1961 388.624 79.7743 388.88 79.4841C389.138 79.1939 389.511 79.0488 389.998 79.0488C390.593 79.0488 391.015 79.2074 391.263 79.5247C391.514 79.842 391.639 80.324 391.639 80.9708H390.319V80.5244C390.319 80.4359 390.293 80.367 390.241 80.3179C390.192 80.2687 390.124 80.2441 390.038 80.2441C389.935 80.2441 389.859 80.2736 389.809 80.3326C389.763 80.3892 389.739 80.463 389.739 80.554C389.739 80.6449 389.764 80.7433 389.813 80.8491C389.862 80.9548 389.96 81.0766 390.105 81.2143L390.854 81.9337C391.004 82.0763 391.141 82.2276 391.267 82.3874C391.392 82.5448 391.493 82.7293 391.569 82.9408C391.645 83.1498 391.684 83.4056 391.684 83.7081C391.684 84.318 391.57 84.7964 391.344 85.1431C391.12 85.4875 390.729 85.6596 390.171 85.6596ZM392.903 85.6006V80.3547H392.132V79.1078H394.972V80.3547H394.201V85.6006L392.903 85.6006Z" fill="white"/>
</svg>
