<svg xmlns="http://www.w3.org/2000/svg" width="52" height="52" viewBox="0 0 52 52" fill="none">
  <path d="M47.6667 13V36.8333C47.6667 37.9826 47.2102 39.0848 46.3975 39.8975C45.5849 40.7101 44.4827 41.1667 43.3334 41.1667C39.7151 41.1667 32.6301 41.1667 29.5317 43.3333H47.6667C48.2414 43.3333 48.7925 43.1051 49.1988 42.6987C49.6051 42.2924 49.8334 41.7413 49.8334 41.1667V15.1667C49.8334 14.592 49.6051 14.0409 49.1988 13.6346C48.7925 13.2283 48.2414 13 47.6667 13Z" fill="#FF7B34"/>
  <path d="M4.33317 36.8333V13C3.75853 13 3.20743 13.2283 2.80111 13.6346C2.39478 14.0409 2.1665 14.592 2.1665 15.1667V41.1667C2.1665 41.7413 2.39478 42.2924 2.80111 42.6987C3.20743 43.1051 3.75853 43.3333 4.33317 43.3333H22.4682C19.3915 41.1667 12.2848 41.1667 8.6665 41.1667C7.51723 41.1667 6.41503 40.7101 5.60237 39.8975C4.78972 39.0848 4.33317 37.9826 4.33317 36.8333Z" fill="#FF7B34"/>
  <path d="M8.66667 8.66699C8.09203 8.66699 7.54093 8.89527 7.1346 9.30159C6.72827 9.70792 6.5 10.259 6.5 10.8337V36.8337C6.5 37.4083 6.72827 37.9594 7.1346 38.3657C7.54093 38.7721 8.09203 39.0003 8.66667 39.0003C15.0692 39.0003 22.0892 39.3253 24.9167 42.6512V11.6137C21.0492 8.95949 14.6033 8.66699 8.66667 8.66699Z" fill="#FF7B34"/>
  <path d="M45.4997 36.8337V10.8337C45.4997 10.259 45.2714 9.70792 44.8651 9.30159C44.4587 8.89527 43.9076 8.66699 43.333 8.66699C37.3963 8.66699 30.9505 8.95949 27.083 11.6137V42.6512C29.9105 39.3253 36.9305 39.0003 43.333 39.0003C43.9076 39.0003 44.4587 38.7721 44.8651 38.3657C45.2714 37.9594 45.4997 37.4083 45.4997 36.8337Z" fill="#FF7B34"/>
</svg>