<svg xmlns="http://www.w3.org/2000/svg" width="52" height="52" viewBox="0 0 52 52" fill="none">
  <path d="M44.8823 18.7852V28.6327C44.8823 33.7189 40.7223 37.8626 35.6035 37.8626H20.8973L19.6948 38.8052C20.4911 40.4139 22.1649 41.5189 24.0661 41.5189H35.7986L42.0386 46.4102C42.3311 46.6377 42.6886 46.7513 43.0461 46.7513C43.2899 46.7513 43.5335 46.7026 43.7448 46.5889C44.3136 46.3127 44.6711 45.7439 44.6711 45.1263V41.4539C46.9785 41.0638 48.7498 39.0489 48.7498 36.6276V23.5951C48.7498 21.2389 47.0923 19.2726 44.8823 18.7852Z" fill="#2E90FA"/>
  <path d="M8.69371 34.5965V39.9753C8.69371 40.5928 9.05126 41.1615 9.60371 41.4378C9.83123 41.5353 10.075 41.6003 10.3187 41.6003C10.6763 41.6003 11.0337 41.4702 11.3262 41.2428L19.7762 34.6128H35.6037C38.935 34.6128 41.6325 31.9315 41.6325 28.6328V11.229C41.6325 7.93031 38.935 5.24902 35.62 5.24902H9.26252C5.94746 5.24902 3.25 7.93031 3.25 11.229V28.6328C3.25 31.7528 5.6387 34.304 8.69371 34.5965ZM22.4738 29.2503C21.58 29.2503 20.8325 28.519 20.8325 27.6253C20.8325 26.7316 21.5638 26.0003 22.4575 26.0003H22.4738C23.3675 26.0003 24.0988 26.7316 24.0988 27.6253C24.0988 28.519 23.3675 29.2503 22.4738 29.2503ZM19.2075 11.7816C20.4588 10.7903 22.0675 10.4328 23.6437 10.7903C25.545 11.229 27.0563 12.7402 27.495 14.6416C27.9825 16.7865 27.1213 18.964 25.3013 20.1665C24.5375 20.6703 24.0662 21.6128 24.0662 22.6203C24.0662 23.5303 23.335 24.2453 22.4412 24.2453C21.5475 24.2453 20.8162 23.5303 20.8162 22.6203C20.8162 20.5078 21.8237 18.574 23.4975 17.4691C24.05 17.0952 24.5537 16.3641 24.3262 15.3727C24.1637 14.6903 23.595 14.1216 22.9125 13.959C22.0838 13.764 21.515 14.1053 21.2388 14.3328C20.7675 14.7065 20.5075 15.2591 20.5075 15.8441C20.5075 16.7378 19.7762 17.4691 18.8825 17.4691C17.9725 17.4691 17.2575 16.7378 17.2575 15.8441C17.2575 14.2515 17.9725 12.7728 19.2075 11.7816Z" fill="#2E90FA"/>
</svg>