<svg xmlns="http://www.w3.org/2000/svg" width="53" height="53" viewBox="0 0 53 53" fill="none">
  <path fill-rule="evenodd" clip-rule="evenodd" d="M15.5002 2.66699C16.6968 2.66699 17.6668 3.63705 17.6668 4.83366V9.16699C17.6668 10.3636 16.6968 11.3337 15.5002 11.3337C14.3036 11.3337 13.3335 10.3636 13.3335 9.16699V4.83366C13.3335 3.63705 14.3036 2.66699 15.5002 2.66699ZM26.3335 2.66699C27.5301 2.66699 28.5002 3.63705 28.5002 4.83366V9.16699C28.5002 10.3636 27.5301 11.3337 26.3335 11.3337C25.1368 11.3337 24.1668 10.3636 24.1668 9.16699V4.83366C24.1668 3.63705 25.1368 2.66699 26.3335 2.66699ZM37.1668 2.66699C38.3635 2.66699 39.3335 3.63705 39.3335 4.83366V9.16699C39.3335 10.3636 38.3635 11.3337 37.1668 11.3337C35.9702 11.3337 35.0002 10.3636 35.0002 9.16699V4.83366C35.0002 3.63705 35.9702 2.66699 37.1668 2.66699Z" fill="#FFC108"/>
  <path fill-rule="evenodd" clip-rule="evenodd" d="M31.8693 5.375C34.8324 5.37496 37.2207 5.37491 39.0992 5.62746C41.0494 5.88967 42.6913 6.4506 43.9957 7.75476C45.2998 9.05892 45.8607 10.701 46.1229 12.6512C46.3753 14.5296 46.3753 16.918 46.3753 19.8811V26.6244C46.3753 28.0968 46.3753 29.4757 46.3649 30.7662C46.2178 31.7433 45.8438 32.7682 45.1273 33.6106C44.2006 34.6995 42.5102 35.7083 39.3321 35.7083C39.1033 35.7083 38.8548 35.6984 38.5662 35.6849L38.4598 35.68C38.2085 35.668 37.9288 35.6548 37.6499 35.6492C37.0216 35.6362 36.2546 35.6544 35.5021 35.8559C34.0067 36.2567 32.8386 37.4248 32.438 38.9202C32.2365 39.6725 32.2181 40.4395 32.2311 41.0678C32.237 41.3467 32.2502 41.6262 32.2619 41.8775L32.2669 41.9841C32.2803 42.2729 32.2905 42.5214 32.2905 42.75C32.2905 44.2028 32.1453 45.9954 31.3523 47.3917C30.9736 48.0583 30.4497 48.6288 29.7015 49.0435C28.9467 49.4617 27.875 49.77 26.3337 49.77C26.2505 49.77 26.1686 49.7763 26.0886 49.7884C25.1741 49.7917 24.2183 49.7917 23.2191 49.7917H20.7981C17.835 49.7917 15.4466 49.7917 13.5682 49.5392C11.618 49.2771 9.97591 48.7161 8.67175 47.412C7.36761 46.1077 6.80666 44.4658 6.54447 42.5156C6.29193 40.6371 6.29195 38.2488 6.29199 35.2856V19.8811C6.29195 16.918 6.29193 14.5296 6.54447 12.6512C6.80666 10.701 7.36761 9.05892 8.67175 7.75476C9.97591 6.4506 11.618 5.88967 13.5682 5.62746C15.4466 5.37491 17.8349 5.37496 20.798 5.375H31.8693ZM17.667 20.5417C16.7695 20.5417 16.042 21.2692 16.042 22.1667C16.042 23.0641 16.7695 23.7917 17.667 23.7917H35.0003C35.8978 23.7917 36.6253 23.0641 36.6253 22.1667C36.6253 21.2692 35.8978 20.5417 35.0003 20.5417H17.667ZM17.667 31.375C16.7695 31.375 16.042 32.1026 16.042 33C16.042 33.8974 16.7695 34.625 17.667 34.625H26.3337C27.2311 34.625 27.9587 33.8974 27.9587 33C27.9587 32.1026 27.2311 31.375 26.3337 31.375H17.667Z" fill="#FFC108"/>
  <path d="M39.3321 38.9585C42.2623 38.9585 44.4957 38.2432 46.1315 37.0693C46.0852 37.6034 46.0299 38.1145 45.9643 38.6038C45.5433 41.734 44.6651 44.2042 42.7264 46.1429C40.7877 48.0816 38.3174 48.9598 35.1873 49.3808C34.7578 49.4384 34.3113 49.488 33.8472 49.5307C33.9655 49.3556 34.0755 49.1775 34.178 48.9971C35.4154 46.8187 35.5404 44.2889 35.5404 42.7501C35.5404 42.4377 35.5268 42.1211 35.5133 41.8336L35.5081 41.7227C35.4962 41.4677 35.4852 41.2337 35.4804 41.0005C35.4691 40.4576 35.4969 40.0611 35.5773 39.7614C35.6774 39.3875 35.9694 39.0956 36.3432 38.9953C36.6428 38.9151 37.0395 38.8872 37.5823 38.8987C37.8154 38.9034 38.0494 38.9143 38.3044 38.9264L38.4156 38.9316C38.7031 38.9448 39.0197 38.9585 39.3321 38.9585Z" fill="#FFC108"/>
</svg>