<svg xmlns="http://www.w3.org/2000/svg" width="53" height="52" viewBox="0 0 53 52" fill="none">
  <g clip-path="url(#clip0_6451_6374)">
    <path d="M51.0512 19.2573C49.1578 17.6654 46.2607 17.855 44.6168 19.8152L43.6289 20.9839L50.6311 26.8592L51.5744 25.6947C53.1969 23.765 52.9916 20.8831 51.0512 19.2573Z" fill="#1ECD67"/>
    <path d="M31.2747 35.6016L30.7536 36.2182C30.3013 36.7598 29.9755 37.4069 29.8119 38.0928L28.3956 44.0199C28.2617 44.5807 28.4566 45.1699 28.8984 45.5404C29.3285 45.9017 29.935 46.0066 30.4829 45.7724L36.0752 43.3474C36.7224 43.0662 37.3026 42.6333 37.7549 42.0963L38.2778 41.4776L31.2747 35.6016Z" fill="#1ECD67"/>
    <path d="M41.6626 23.3105L33.2407 33.2753L40.2435 39.1512L48.6648 29.1858L41.6626 23.3105Z" fill="#1ECD67"/>
    <path d="M38.856 6.75473L33.0687 1.25603C32.5216 0.737352 31.8486 0.431852 31.1392 0.233398V9.14104H40.1835C39.9945 8.23612 39.5334 7.39782 38.856 6.75473Z" fill="#1ECD67"/>
    <path d="M26.849 37.3842C27.1213 36.2446 27.6643 35.166 28.4171 34.2644L40.2803 20.2271V12.1875H29.6162C28.7742 12.1875 28.0928 11.5061 28.0928 10.6641V0H5.24121C2.72104 0 0.670898 2.05014 0.670898 4.57031V47.4297C0.670898 49.9499 2.72104 52 5.24121 52H35.71C38.2301 52 40.2803 49.9499 40.2803 47.4297V43.8284L40.0824 44.0625C39.3341 44.9537 38.3686 45.6722 37.2929 46.141L31.6961 48.5675C30.1186 49.2487 28.2926 49.0074 26.9414 47.8756C25.6068 46.7554 25.0281 45.0073 25.4328 43.3113L26.849 37.3842ZM8.28809 9.14062H23.5225C24.3645 9.14062 25.0459 9.82201 25.0459 10.6641C25.0459 11.5061 24.3645 12.1875 23.5225 12.1875H8.28809C7.44603 12.1875 6.76465 11.5061 6.76465 10.6641C6.76465 9.82201 7.44603 9.14062 8.28809 9.14062ZM8.28809 18.3828H32.6631C33.5051 18.3828 34.1865 19.0642 34.1865 19.9062C34.1865 20.7483 33.5051 21.4297 32.6631 21.4297H8.28809C7.44603 21.4297 6.76465 20.7483 6.76465 19.9062C6.76465 19.0642 7.44603 18.3828 8.28809 18.3828ZM20.4756 39.7109H8.28809C7.44603 39.7109 6.76465 39.0296 6.76465 38.1875C6.76465 37.3454 7.44603 36.6641 8.28809 36.6641H20.4756C21.3176 36.6641 21.999 37.3454 21.999 38.1875C21.999 39.0296 21.3176 39.7109 20.4756 39.7109ZM8.28809 30.5703C7.44603 30.5703 6.76465 29.8889 6.76465 29.0469C6.76465 28.2048 7.44603 27.5234 8.28809 27.5234H26.5693C27.4114 27.5234 28.0928 28.2048 28.0928 29.0469C28.0928 29.8889 27.4114 30.5703 26.5693 30.5703H8.28809Z" fill="#1ECD67"/>
  </g>
  <defs>
    <clipPath id="clip0_6451_6374">
      <rect width="52" height="52" fill="white" transform="translate(0.666504)"/>
    </clipPath>
  </defs>
</svg>