<svg xmlns="http://www.w3.org/2000/svg" width="52" height="52" viewBox="0 0 52 52" fill="none">
  <path d="M13.8125 25.5938H11.375C9.54402 25.5916 7.78865 24.8632 6.49395 23.5685C5.19925 22.2738 4.47093 20.5185 4.46875 18.6875V16.25C4.46967 15.4961 4.76957 14.7733 5.30268 14.2402C5.83579 13.7071 6.55857 13.4072 7.3125 13.4062H13.8125C14.1357 13.4063 14.4457 13.5348 14.6742 13.7633C14.9027 13.9919 15.0312 14.3018 15.0312 14.625V24.375C15.0312 24.6982 14.9027 25.0082 14.6742 25.2367C14.4457 25.4652 14.1357 25.5937 13.8125 25.5938ZM7.3125 15.8438C7.20482 15.844 7.10161 15.8868 7.02547 15.963C6.94932 16.0391 6.90646 16.1423 6.90625 16.25V18.6875C6.90745 19.8723 7.37865 21.0083 8.21645 21.8461C9.05424 22.6838 10.1902 23.155 11.375 23.1562H12.5938V15.8438H7.3125Z" fill="#FF54B0"/>
  <path d="M40.625 25.5938H38.1875C37.8643 25.5937 37.5544 25.4652 37.3258 25.2367C37.0973 25.0082 36.9688 24.6982 36.9688 24.375V14.625C36.9688 14.3018 37.0973 13.9919 37.3258 13.7633C37.5544 13.5348 37.8643 13.4063 38.1875 13.4062H44.6875C45.4414 13.4072 46.1642 13.7071 46.6973 14.2402C47.2304 14.7733 47.5303 15.4961 47.5312 16.25V18.6875C47.5291 20.5185 46.8007 22.2738 45.506 23.5685C44.2113 24.8632 42.456 25.5916 40.625 25.5938ZM39.4062 23.1562H40.625C41.8098 23.155 42.9458 22.6838 43.7836 21.8461C44.6213 21.0083 45.0925 19.8723 45.0938 18.6875V16.25C45.0935 16.1423 45.0507 16.0391 44.9745 15.963C44.8984 15.8868 44.7952 15.844 44.6875 15.8438H39.4062V23.1562Z" fill="#FF54B0"/>
  <path d="M28.4375 31.2812H23.5625C22.8894 31.2812 22.3438 31.8269 22.3438 32.5V40.625C22.3438 41.2981 22.8894 41.8438 23.5625 41.8438H28.4375C29.1106 41.8438 29.6562 41.2981 29.6562 40.625V32.5C29.6562 31.8269 29.1106 31.2812 28.4375 31.2812Z" fill="#FF54B0"/>
  <path d="M38.1875 8.53125H13.8125C13.4893 8.53134 13.1794 8.65977 12.9508 8.88831C12.7223 9.11685 12.5938 9.42679 12.5938 9.75V21.125C12.5975 24.4639 13.9255 27.665 16.2865 30.026C18.6475 32.387 21.8486 33.715 25.1875 33.7188H26.8125C30.1514 33.715 33.3525 32.387 35.7135 30.026C38.0745 27.665 39.4025 24.4639 39.4062 21.125V9.75C39.4062 9.42679 39.2777 9.11685 39.0492 8.88831C38.8207 8.65977 38.5107 8.53134 38.1875 8.53125ZM30.946 18.7544L29.4587 20.2425C29.3627 20.3385 29.2932 20.4578 29.2569 20.5886C29.2207 20.7195 29.2188 20.8575 29.2516 20.9892L29.9546 23.8019C29.992 23.9513 29.9848 24.1085 29.9336 24.2538C29.8825 24.3991 29.7898 24.5262 29.6671 24.6193C29.5443 24.7123 29.3969 24.7672 29.2432 24.7772C29.0895 24.7872 28.9362 24.7517 28.8025 24.6753L26.39 23.2963C26.2712 23.2284 26.1368 23.1927 26 23.1927C25.8632 23.1927 25.7288 23.2284 25.61 23.2963L23.1979 24.6753C23.0641 24.7517 22.9108 24.7872 22.7571 24.7772C22.6034 24.7672 22.456 24.7123 22.3332 24.6193C22.2104 24.5262 22.1177 24.3991 22.0665 24.2538C22.0153 24.1085 22.008 23.9514 22.0454 23.8019L22.7484 20.9892C22.7812 20.8575 22.7793 20.7195 22.743 20.5886C22.7068 20.4578 22.6373 20.3385 22.5413 20.2425L21.054 18.7544C20.9441 18.6445 20.8692 18.5044 20.8389 18.3519C20.8085 18.1994 20.8241 18.0413 20.8836 17.8977C20.943 17.754 21.0438 17.6312 21.173 17.5448C21.3023 17.4584 21.4542 17.4122 21.6097 17.4121H23.5953C23.7492 17.4121 23.8996 17.367 24.0281 17.2823C24.1565 17.1976 24.2572 17.0771 24.3178 16.9357L25.2775 14.6953C25.338 14.5539 25.4388 14.4333 25.5672 14.3486C25.6956 14.2639 25.8461 14.2187 25.9999 14.2187C26.1538 14.2187 26.3042 14.2639 26.4327 14.3486C26.5611 14.4333 26.6618 14.5539 26.7224 14.6953L27.6821 16.9357C27.7426 17.0771 27.8433 17.1976 27.9718 17.2823C28.1002 17.367 28.2507 17.4121 28.4045 17.4121H30.3901C30.5456 17.4122 30.6976 17.4583 30.8269 17.5447C30.9561 17.6312 31.0569 17.754 31.1164 17.8976C31.1759 18.0413 31.1915 18.1994 31.1611 18.3519C31.1308 18.5044 31.0559 18.6445 30.946 18.7544Z" fill="#FF54B0"/>
  <path d="M41.0312 3.65625H10.9688C10.52 3.65625 10.1562 4.02002 10.1562 4.46875V8.53125C10.1562 8.97998 10.52 9.34375 10.9688 9.34375H41.0312C41.48 9.34375 41.8438 8.97998 41.8438 8.53125V4.46875C41.8438 4.02002 41.48 3.65625 41.0312 3.65625Z" fill="#FF54B0"/>
  <path d="M35.3494 48.3438H16.6509C16.4075 48.3438 16.1673 48.2891 15.9479 48.1838C15.7285 48.0786 15.5356 47.9254 15.3833 47.7356C15.231 47.5457 15.1234 47.3242 15.0682 47.0872C15.013 46.8501 15.0118 46.6038 15.0646 46.3662L15.9673 42.3037C16.0475 41.9428 16.2484 41.62 16.5368 41.3887C16.8252 41.1573 17.1839 41.0312 17.5537 41.0313H34.4466C34.8163 41.0312 35.175 41.1573 35.4634 41.3887C35.7518 41.62 35.9527 41.9428 36.0329 42.3037L36.9357 46.3662C36.9885 46.6038 36.9872 46.8501 36.9321 47.0872C36.8769 47.3242 36.7692 47.5457 36.6169 47.7356C36.4647 47.9254 36.2717 48.0786 36.0523 48.1838C35.8329 48.2891 35.5927 48.3438 35.3494 48.3438Z" fill="#FF54B0"/>
</svg>